<svg t="1750404728048" class="icon" viewBox="0 0 1024 1024" version="1.1" xmlns="http://www.w3.org/2000/svg" p-id="21002" width="1em" height="1em"><path fill="#fff" d="M82.749424 1019.175387L4.678413 951.046002A12.938735 12.938735 0 0 1 0 941.177476c0-3.65501 1.681305-7.23692 4.678413-9.795427L258.774701 709.084347H104.167782a16.959246 16.959246 0 0 1-11.18433-3.94741 12.938735 12.938735 0 0 1-4.605313-9.795427V598.556848c0-7.602421 7.090719-13.742837 15.789643-13.742837H495.619342c4.239811 0 8.333423 1.388904 11.330531 3.94741A12.938735 12.938735 0 0 1 511.701386 598.556848v342.255127c0 3.65501-1.608204 7.23692-4.605313 9.795426a16.959246 16.959246 0 0 1-11.25743 4.093611H385.091843a17.032346 17.032346 0 0 1-11.18433-4.020511 12.938735 12.938735 0 0 1-4.678413-9.795426v-152.413913l-264.111015 230.777325a16.959246 16.959246 0 0 1-11.184331 4.166711 16.959246 16.959246 0 0 1-11.25743-4.166711h0.0731zM511.701386 424.870778V82.542551c0-3.65501 1.608204-7.23692 4.605312-9.868527A16.959246 16.959246 0 0 1 527.564129 68.726613h110.527499c4.166711 0 8.187222 1.462004 11.18433 4.020511 2.924008 2.558507 4.605312 6.067316 4.605313 9.795427V235.395064L918.284687 4.032938A16.959246 16.959246 0 0 1 929.469017 0.012427c4.166711 0 8.114122 1.462004 11.11123 4.020511l78.217212 68.494885c2.924008 2.558507 4.605312 6.067316 4.605312 9.795427 0 3.65501-1.681305 7.163819-4.678412 9.722326l-253.657687 222.151502h153.510416c8.625823 0 15.716543 6.140417 15.716542 13.742837v96.930863c0 3.65501-1.681305 7.090719-4.605312 9.722326a16.959246 16.959246 0 0 1-11.11123 4.020511H527.637229a16.959246 16.959246 0 0 1-11.257431-3.947411A13.011835 13.011835 0 0 1 511.701386 424.870778z" p-id="21003"></path></svg>