<svg width="1em" height="1em" viewBox="0 0 24 24" fill="none" xmlns="http://www.w3.org/2000/svg" data-icon="SubtitlesOffFilled"><path d="M1.064 3.254A1 1 0 1 1 2.478 1.84L21.57 20.932a1 1 0 0 1-1.414 1.414L1.064 3.254ZM1 19V5.308l4.19 4.19c-.406.694-.64 1.542-.64 2.502 0 3 1.577 4.5 4.1 4.5 1.372 0 2.153-.504 2.579-.963L16.692 21H3a2 2 0 0 1-2-2Z" fill="#fff"></path><path d="M6.88 12c0-.26.031-.503.088-.725l2.714 2.715c-.255.165-.586.3-.982.3-.475 0-.884-.193-1.22-.533-.233-.235-.6-.82-.6-1.757ZM23 19c0 .356-.093.69-.256.98L18.7 15.938a2.64 2.64 0 0 0 .573-.518c.283-.344.166-.819-.15-1.133l-.366-.363c-.27-.267-.73-.222-1.036 0a1.912 1.912 0 0 1-.709.326l-2.188-2.189V12c0-1.426.935-2.3 1.82-2.3a2.2 2.2 0 0 1 1.092.318c.295.171.695.164.928-.085l.29-.312c.356-.382.419-.958.02-1.296-.466-.396-1.235-.825-2.38-.825-1.671 0-3.108.988-3.747 2.584L5.763 3H21a2 2 0 0 1 2 2v14Z" fill="#fff"></path></svg>