<svg width="1em" height="1em" viewBox="0 0 24 24" fill="none" xmlns="http://www.w3.org/2000/svg" data-icon="SubtitlesFilled"><path d="M3 3a2 2 0 0 0-2 2v14a2 2 0 0 0 2 2h18a2 2 0 0 0 2-2V5a2 2 0 0 0-2-2H3Zm7.813 10.924.367.363c.316.314.433.789.15 1.133-.399.486-1.19 1.08-2.68 1.08-2.522 0-4.1-1.5-4.1-4.5 0-2.684 1.836-4.5 4.1-4.5 1.146 0 1.915.43 2.382.825.398.338.335.914-.021 1.296l-.29.312c-.233.25-.633.256-.928.085A2.2 2.2 0 0 0 8.7 9.7c-.884 0-1.82.874-1.82 2.3 0 .938.367 1.522.6 1.757.336.34.745.533 1.22.533.448 0 .811-.173 1.077-.366.307-.222.767-.267 1.036 0Zm7.945 0 .366.363c.317.314.434.789.15 1.133-.398.486-1.19 1.08-2.68 1.08-2.522 0-4.1-1.5-4.1-4.5 0-2.684 1.836-4.5 4.1-4.5 1.146 0 1.916.43 2.382.825.398.338.335.914-.02 1.296l-.291.312c-.233.25-.633.256-.927.085a2.2 2.2 0 0 0-1.094-.318c-.884 0-1.82.874-1.82 2.3 0 .938.367 1.522.6 1.757.337.34.745.533 1.22.533.448 0 .812-.173 1.078-.366.307-.222.767-.267 1.036 0Z" fill="#fff"></path></svg>