<?xml version="1.0" encoding="UTF-8"?>
<svg width="30px" height="30px" viewBox="0 0 30 30" version="1.1" xmlns="http://www.w3.org/2000/svg" xmlns:xlink="http://www.w3.org/1999/xlink">
    <title>Gc_65_face-BatchProcessing</title>
    <g id="页面-1" stroke="none" stroke-width="1" fill="none" fill-rule="evenodd">
        <g id="首页" transform="translate(-944.000000, -1913.000000)" fill="#6367F1" fill-rule="nonzero">
            <g id="编组-4" transform="translate(120.000000, 1715.000000)">
                <g id="Gc_65_face-BatchProcessing" transform="translate(824.000000, 198.000000)">
                    <path d="M25.4112,0 L7.44,0 C6.65279999,0 6,0.652839473 6,1.44003812 C6,2.22723677 6.65280001,2.88003569 7.44,2.88003571 L25.4112,2.88003571 C26.352,2.88003571 27.12,3.62883445 27.12,4.55043287 L27.12,22.5600024 C27.12,23.3472011 27.7728,24 28.56,24 C29.3472,24 30,23.3472011 30,22.5600024 L30,4.55043287 C29.9949185,3.33849832 29.5085997,2.17822126 28.6480305,1.32485486 C27.7874612,0.47148846 26.6231365,-0.00506229513 25.4112,0 Z" id="路径"></path>
                    <path d="M19.68,6 L4.31999999,6 C1.93919999,6 0,7.93919999 0,10.32 L0,25.68 C0,28.0608 1.93919999,30 4.31999999,30 L19.68,30 C22.0608,30 24,28.0608 24,25.68 L24,10.32 C24,7.93919999 22.0608,6 19.68,6 Z M17.952,15.984 L12.192,23.664 C11.9424,23.9904 11.5584,24.2016 11.136,24.24 L11.04,24.24 C10.6582169,24.2396639 10.2921933,24.0877296 10.0224,23.8176 L6.18239999,19.9776 C5.62559999,19.4208 5.62559999,18.4992 6.18239999,17.9424 C6.73919999,17.3856 7.66079999,17.3856 8.2176,17.9424 L10.8864,20.6112 L15.648,14.256 C16.125174,13.619768 17.027768,13.490826 17.664,13.968 C18.300232,14.445174 18.429174,15.347768 17.952,15.984 Z" id="形状"></path>
                </g>
            </g>
        </g>
    </g>
</svg>