<?xml version="1.0" encoding="UTF-8"?>
<svg width="30px" height="30px" viewBox="0 0 30 30" version="1.1" xmlns="http://www.w3.org/2000/svg" xmlns:xlink="http://www.w3.org/1999/xlink">
    <title>Gc_65_face-BatchProcessing</title>
    <g id="页面-1" stroke="none" stroke-width="1" fill="none" fill-rule="evenodd">
        <g id="首页" transform="translate(-544.000000, -1913.000000)" fill="#6367F1" fill-rule="nonzero">
            <g id="编组-4" transform="translate(120.000000, 1715.000000)">
                <g id="Gc_65_face-BatchProcessing" transform="translate(424.000000, 198.000000)">
                    <path d="M19.4112,6 L1.44,6 C0.652799985,6 0,6.65283947 0,7.44003812 C0,8.22723677 0.652800015,8.88003569 1.44,8.88003571 L19.4112,8.88003571 C20.352,8.88003571 21.12,9.62883445 21.12,10.5504329 L21.12,28.5600024 C21.12,29.3472011 21.7728,30 22.56,30 C23.3472,30 24,29.3472011 24,28.5600024 L24,10.5504329 C23.9949185,9.33849832 23.5085997,8.17822126 22.6480305,7.32485486 C21.7874612,6.47148846 20.6231365,5.9949377 19.4112,6 Z" id="路径" transform="translate(12.000000, 18.000000) scale(-1, -1) translate(-12.000000, -18.000000) "></path>
                    <path d="M25.68,0 C28.0608,0 30,1.93919999 30,4.31999999 L30,4.31999999 L30,19.68 C30,22.0608 28.0608,24 25.68,24 L25.68,24 L10.32,24 C7.93919999,24 6,22.0608 6,19.68 L6,19.68 L6,4.31999999 C6,1.93919999 7.93919999,0 10.32,0 L10.32,0 Z M17.5595698,6.06781305 C17.4578306,6.11303049 17.3673957,6.16955228 17.2882652,6.2486828 L13.8969574,9.63999057 C13.569131,9.96781698 13.569131,10.5104262 13.8969574,10.8382526 C14.2247838,11.1660791 14.7673931,11.1660791 15.0952195,10.8382526 L17.0395693,8.89390286 L17.0395693,18.1521731 C17.0395693,18.6156518 17.4239175,19 17.8873962,19 C18.350875,19 18.7352232,18.6156518 18.7352232,18.1521731 L18.735,8.905 L20.6682686,10.8382526 C20.996095,11.1660791 21.5387043,11.1660791 21.8665307,10.8382526 C22.0360961,10.6686873 22.1152266,10.4539044 22.1152266,10.2391216 C22.1152266,10.0243388 22.0360961,9.80955595 21.8665307,9.63999057 L18.4752229,6.2486828 C18.3968863,6.17196739 18.304862,6.11061784 18.2039183,6.06781305 C17.9986512,5.97739565 17.7648369,5.97739565 17.5595698,6.06781305 Z" id="形状结合"></path>
                </g>
            </g>
        </g>
    </g>
</svg>