<?xml version="1.0" encoding="UTF-8"?>
<svg width="30px" height="30px" viewBox="0 0 30 30" version="1.1" xmlns="http://www.w3.org/2000/svg" xmlns:xlink="http://www.w3.org/1999/xlink">
    <title>专业</title>
    <g id="页面-1" stroke="none" stroke-width="1" fill="none" fill-rule="evenodd">
        <g id="首页" transform="translate(-944.000000, -2208.000000)" fill="#6367F1">
            <g id="编组-4" transform="translate(120.000000, 1715.000000)">
                <g id="专业" transform="translate(824.000000, 493.000000)">
                    <path d="M15,0 C23.2842712,0 30,6.71572875 30,15 C30,23.2842712 23.2842712,30 15,30 C6.71572875,30 0,23.2842712 0,15 C0,6.71572875 6.71572875,0 15,0 Z M17.7285391,7 L11.3197305,7 C10.1881914,7 10.5653652,7.70853906 10.5653652,7.70853906 L13.1303652,10.8994609 C13.1303652,10.8994609 12.3477739,13.5777783 11.5651826,16.3304468 L11.3915915,16.9423164 C10.6709459,19.488053 10,21.9321647 10,22.2075391 C10,22.8023652 14.0221914,25 14.5,25 C14.9778262,25 19,22.7393652 19,22.2075391 C19,21.8726966 17.7590184,17.476607 16.8397729,14.266176 L16.6050312,13.4476531 C16.1798802,11.9674794 15.8696348,10.8994609 15.8696348,10.8994609 L18.2939043,7.70853906 C18.2939043,7.70853906 18.8592871,7 17.7285391,7 Z M17,11 L19.0957095,18 L19.8810204,16.8278747 C20.028794,16.6069848 20.0407835,16.2390967 19.9065142,16.0080972 L17,11 Z" id="形状结合"></path>
                </g>
            </g>
        </g>
    </g>
</svg>