<?xml version="1.0" encoding="UTF-8"?>
<svg width="30px" height="30px" viewBox="0 0 30 30" version="1.1" xmlns="http://www.w3.org/2000/svg" xmlns:xlink="http://www.w3.org/1999/xlink">
    <title>编组 2</title>
    <g id="页面-1" stroke="none" stroke-width="1" fill="none" fill-rule="evenodd">
        <g id="首页" transform="translate(-144.000000, -1913.000000)">
            <g id="编组-4" transform="translate(120.000000, 1715.000000)">
                <g id="编组-2" transform="translate(24.000000, 198.000000)">
                    <rect id="矩形" fill="#6367F1" x="0" y="0" width="30" height="30" rx="5"></rect>
                    <path d="M9.04142002,20.9411765 C6.59204496,20.9436726 4.44653516,19.2731506 3.81086824,16.8685893 C3.17520132,14.4640279 4.20795689,11.9252922 6.32862952,10.6793896 C8.44930214,9.43348703 11.1288483,9.79123242 12.861112,11.5515394 L16,14.7354699 L14.6091828,16.1515652 L11.4770354,12.9653507 C10.1315575,11.5989031 7.95122784,11.5995921 6.6065859,12.9668896 C5.26194396,14.3341872 5.26194396,16.5505638 6.6065859,17.9178614 C7.95122784,19.285159 10.1315575,19.2858479 11.4770354,17.9194004 L12.7734837,16.6015181 L14.164301,18.0153294 L12.8678526,19.3332117 C11.8536812,20.3654399 10.4765694,20.9441334 9.04142002,20.9411765 L9.04142002,20.9411765 Z" id="路径" fill="#FFFFFF" fill-rule="nonzero"></path>
                    <path d="M21.58565,20.9411765 C20.1537007,20.9447276 18.7791179,20.3696773 17.7648218,19.3427344 L14.625,16.1504501 L16.016231,14.7369852 L19.1515577,17.9201356 C20.0223795,18.8040587 21.2912017,19.1488348 22.4800712,18.82459 C23.6689406,18.5003452 24.5972397,17.55634 24.9152873,16.348172 C25.2333348,15.1400041 24.8928118,13.8512228 24.0219899,12.9672997 C22.6584637,11.6450607 20.5128363,11.6450607 19.1493101,12.9672997 L17.8007825,14.3373788 L16.4095515,12.9216304 L17.7580791,11.5515513 C19.3056674,9.98000019 21.6321719,9.50930665 23.6542624,10.3586478 C25.6763529,11.207989 26.9965029,13.2103915 27,15.4334421 C27.0029749,16.8939205 26.4337122,18.2955546 25.4178733,19.3289135 C24.4020343,20.3622724 23.0231576,20.9423766 21.58565,20.9411765 L21.58565,20.9411765 Z" id="路径" fill="#FFFFFF" fill-rule="nonzero"></path>
                </g>
            </g>
        </g>
    </g>
</svg>