<?xml version="1.0" encoding="UTF-8"?>
<svg width="25px" height="22px" viewBox="0 0 25 22" version="1.1" xmlns="http://www.w3.org/2000/svg" xmlns:xlink="http://www.w3.org/1999/xlink">
    <title>URL</title>
    <g id="页面-1" stroke="none" stroke-width="1" fill="none" fill-rule="evenodd">
        <g id="蓝色首页" transform="translate(-556.000000, -154.000000)">
            <g id="编组-5备份-2" transform="translate(514.000000, 130.000000)">
                <g id="URL" transform="translate(42.538462, 24.000000)">
                    <path d="M14.4615385,0 C17.2229622,-5.07265313e-16 19.4615385,2.23857625 19.4615385,5 L19.4614538,6.22299722 C18.818257,6.07705468 18.1488963,6 17.4615385,6 C12.4909757,6 8.46153846,10.0294373 8.46153846,15 C8.46153846,17.8277083 9.76561322,20.3508336 11.8051609,22.0007741 L5,22 C2.23857625,22 3.38176876e-16,19.7614237 0,17 L0,2 C-1.3527075e-16,0.8954305 0.8954305,2.02906125e-16 2,0 L14.4615385,0 Z" id="形状结合" fill="#23C388"></path>
                    <circle id="椭圆形" fill="#23C388" cx="17.4615385" cy="15" r="7"></circle>
                    <g id="链接-(7)" transform="translate(17.350427, 15.500000) scale(-1, 1) translate(-17.350427, -15.500000) translate(13.461538, 12.000000)" fill="#FFFFFF" fill-rule="nonzero">
                        <path d="M7.7729351,5.21746892 C7.74892932,4.74236926 7.52844484,4.29379073 7.15679157,3.96391697 L6.54064803,3.3958957 C6.41641235,3.2758264 6.23136859,3.22722796 6.05714805,3.26891306 C5.8829275,3.31059815 5.7468758,3.4360239 5.70165917,3.59663741 C5.65644255,3.75725092 5.70915821,3.92784233 5.83939967,4.04237491 L6.4555432,4.61039618 C6.64908852,4.77938962 6.76348346,5.01132612 6.77439749,5.25687539 C6.78787322,5.47408459 6.70326491,5.68675399 6.54064803,5.8444224 C6.38187893,5.98716016 6.16738567,6.06484863 5.94568443,6.05991547 C5.6677505,6.04670548 5.40405927,5.94246739 5.20207621,5.76596446 L3.65093486,4.3359709 C3.26811102,4.02024771 3.23025222,3.47997837 3.56583003,3.12147041 C3.69607154,3.00693784 3.74878723,2.83634642 3.70357062,2.67573288 C3.658354,2.51511934 3.52230227,2.38969357 3.34808169,2.34800848 C3.17386112,2.30632339 2.98881733,2.35492187 2.86458167,2.47499121 C2.51795681,2.78973018 2.32608395,3.22149386 2.33354296,3.66996596 C2.3408159,4.1714121 2.56219727,4.6500054 2.9496865,5.00197585 L4.50082784,6.43196941 C4.88351621,6.78797574 5.40208794,6.99184357 5.94568443,7 C6.43102754,7.00147593 6.89719035,6.82541196 7.24189639,6.51042735 C7.61723839,6.17282524 7.81160444,5.69958814 7.7729351,5.21746892 L7.7729351,5.21746892 Z" id="路径"></path>
                        <path d="M1.97759229,2.9565601 L1.55375027,2.56604547 L1.34105865,2.37007813 C1.15041297,2.20497009 1.02980068,1.98271337 1.0008291,1.74312463 C0.987299027,1.52590907 1.07196252,1.31322313 1.23471283,1.15557762 C1.39357314,1.01283985 1.60818962,0.935151381 1.83001821,0.940084543 C2.11029424,0.944279636 2.37753766,1.04986127 2.57405361,1.23403556 L4.12608602,2.66402914 C4.50912977,2.97975234 4.54701031,3.52002168 4.21123973,3.87852964 C4.08092345,3.99306222 4.02817751,4.16365363 4.07342011,4.32426715 C4.1186627,4.48488066 4.25479257,4.61030641 4.4291132,4.65199151 C4.60343382,4.69367661 4.78858388,4.64507817 4.91289093,4.52500887 C5.25971491,4.21026989 5.45169799,3.7785062 5.44423469,3.3300341 C5.43695758,2.82858795 5.21544904,2.34999464 4.82773721,1.99802419 L3.27570481,0.568030604 C2.8927966,0.212024264 2.37392697,0.00815643254 1.83001821,0 C1.3443963,-0.00147593414 0.877965686,0.174588038 0.533061633,0.489572662 C0.172027113,0.827696142 -0.0204099633,1.28876743 0.00171786848,1.76265037 C0.025737433,2.23775004 0.246348579,2.68632857 0.61821535,3.01620234 L0.830906975,3.21216968 L1.23471283,3.60268431 C1.42953313,3.77882045 1.74154372,3.77882045 1.93636403,3.60268431 C2.03826054,3.52398725 2.10052778,3.4101303 2.10854478,3.2878482 C2.11656179,3.1655661 2.06962232,3.04563108 1.97874823,2.95620508 L1.97759229,2.9565601 Z" id="路径"></path>
                    </g>
                </g>
            </g>
        </g>
    </g>
</svg>