<?xml version="1.0" encoding="UTF-8"?>
<svg width="27px" height="22px" viewBox="0 0 27 22" version="1.1" xmlns="http://www.w3.org/2000/svg" xmlns:xlink="http://www.w3.org/1999/xlink">
    <title>转录</title>
    <g id="页面-1" stroke="none" stroke-width="1" fill="none" fill-rule="evenodd">
        <g id="蓝色首页" transform="translate(-810.000000, -154.000000)">
            <g id="编组-4备份-2" transform="translate(770.000000, 130.000000)">
                <g id="转录" transform="translate(40.823529, 24.000000)">
                    <path d="M19.1764706,0 C20.2810401,-2.16501571e-15 21.1764706,0.8954305 21.1764706,2 L21.176386,6.22299722 C20.5331891,6.07705468 19.8638284,6 19.1764706,6 C14.2059078,6 10.1764706,10.0294373 10.1764706,15 C10.1764706,15.3382478 10.1951302,15.6721373 10.2314763,16.0006955 L7.949,16 L5.64412281,18.3056247 C5.56179166,18.3879558 5.4659319,18.4550623 5.36101463,18.5041809 L5.25324379,18.5472012 C4.766725,18.7093741 4.24366714,18.4768046 4.03159405,18.0232547 L3.98833273,17.9147456 L3.35,16 L2,16 C0.8954305,16 1.3527075e-16,15.1045695 0,14 L0,2 C-1.3527075e-16,0.8954305 0.8954305,2.02906125e-16 2,0 L19.1764706,0 Z" id="形状结合" fill="#8B78F0"></path>
                    <circle id="椭圆形" fill="#8B78F0" cx="19.1764706" cy="15" r="7"></circle>
                    <g id="语音2" transform="translate(16.176471, 11.000000)" fill="#FFFFFF" fill-rule="nonzero">
                        <path d="M5.5,3.75 C5.49997265,3.57134897 5.59526613,3.40625691 5.7499779,3.3169235 C5.90468967,3.2275901 6.09531033,3.2275901 6.2500221,3.3169235 C6.40473387,3.40625691 6.5,3.57134897 6.5,3.75 C6.5,5.375 5.3075,6.72125 3.75,6.96174999 L3.75,7.5 C3.75,7.77614237 3.52614238,8 3.25,8 C2.97385762,8 2.75,7.77614237 2.75,7.5 L2.75,6.96174999 C1.19250001,6.72124999 0,5.37499999 0,3.75 C0,3.57134897 0.095266135,3.40625691 0.249977905,3.3169235 C0.404689675,3.2275901 0.595310332,3.2275901 0.750022102,3.3169235 C0.904733872,3.40625691 1.00002735,3.57134897 1,3.75 C1,4.99264068 2.00735931,6 3.25,6 C4.49264069,6 5.5,4.99264068 5.5,3.75 Z M3.25,0 C3.71412886,0 4.1592482,0.18437447 4.48743686,0.512563132 C4.81562553,0.840751793 5.00000001,1.28587114 5.00000001,1.75 L5.00000001,3.75 C5.00000001,4.71649831 4.21649831,5.5 3.25,5.5 C2.28350169,5.5 1.50000001,4.71649831 1.50000001,3.75 L1.50000001,1.75 C1.50000001,0.783501686 2.28350169,0 3.25,0 L3.25,0 Z" id="形状"></path>
                    </g>
                </g>
            </g>
        </g>
    </g>
</svg>