<?xml version="1.0" encoding="UTF-8"?>
<svg width="20px" height="20px" viewBox="0 0 20 20" version="1.1" xmlns="http://www.w3.org/2000/svg" xmlns:xlink="http://www.w3.org/1999/xlink">
    <title>放大镜_所搜-线 (1)</title>
    <g id="页面-1" stroke="none" stroke-width="1" fill="none" fill-rule="evenodd">
        <g id="Use-Cases3" transform="translate(-803.000000, -1933.000000)" fill="#64748B" fill-rule="nonzero">
            <g id="放大镜_所搜-线-(1)" transform="translate(803.000000, 1933.000000)">
                <path d="M15.7832037,14.3910604 L20,18.6068721 L18.6068721,20 L14.3910604,15.7832037 C12.8224261,17.0406824 10.8713213,17.7246285 8.86088413,17.7217683 C3.96967609,17.7217683 0,13.7520922 0,8.86088413 C0,3.96967609 3.96967609,0 8.86088413,0 C13.7520922,0 17.7217683,3.96967609 17.7217683,8.86088413 C17.7246285,10.8713213 17.0406824,12.8224261 15.7832037,14.3910604 L15.7832037,14.3910604 Z M13.8082111,13.6605297 C15.0577069,12.3755889 15.7555056,10.6531744 15.7526914,8.86088413 C15.7526914,5.05267303 12.6681107,1.96908537 8.86088413,1.96908537 C5.05267303,1.96908537 1.96908537,5.05267305 1.96908537,8.86088413 C1.96908537,12.6681107 5.05267305,15.7526914 8.86088413,15.7526914 C10.6531744,15.7555056 12.3755889,15.0577069 13.6605297,13.8082111 L13.8082111,13.6605297 L13.8082111,13.6605297 Z" id="形状"></path>
            </g>
        </g>
    </g>
</svg>