<?xml version="1.0" encoding="UTF-8"?>
<svg width="72px" height="84px" viewBox="0 0 72 84" version="1.1" xmlns="http://www.w3.org/2000/svg" xmlns:xlink="http://www.w3.org/1999/xlink">
    <title>安全保障</title>
    <g id="页面-1" stroke="none" stroke-width="1" fill="none" fill-rule="evenodd">
        <g id="Use-Cases5" transform="translate(-344.000000, -1451.000000)" fill="#6367F1" fill-rule="nonzero">
            <g id="安全保障" transform="translate(344.000000, 1451.000000)">
                <path d="M70.2554821,17.6729654 C59.8733032,13.4096546 50.7093631,8.26427957 43.1214758,2.425854 C38.9190928,-0.808618 33.0822995,-0.808618 28.8799165,2.425854 C21.2920293,8.26287944 12.1280892,13.4096546 1.7445179,17.6729654 C0.693856496,18.0983727 0.00411463442,19.121366 0,20.260354 L0,43.2668309 C0,63.1790823 30.7260703,84 36,84 C41.2739297,84 72,63.1776822 72,43.2668309 L72,20.260354 C71.9958854,19.121366 71.3061435,18.0983727 70.2554821,17.6729654 Z M47.3901845,40.8488547 L34.7608772,58.6287506 C33.974243,59.7376315 32.2352942,59.1775906 32.2352941,57.8152914 L32.2352941,46.7628857 C32.2352941,45.9896307 31.6119523,45.3627837 30.8430213,45.3627837 L25.7417334,45.3627837 C25.2202545,45.3628342 24.7424684,45.0698276 24.5037591,44.6035847 C24.2650497,44.1373418 24.305444,43.5760425 24.6084232,43.1492223 L37.2377306,25.3693263 C38.0243648,24.2604455 39.7633136,24.8204863 39.7633136,26.1827857 L39.7633136,37.2337912 C39.7633137,38.0070462 40.3866555,38.6338932 41.1555865,38.6338932 L46.2582666,38.6338932 C47.3901845,38.6352933 48.0487295,39.921987 47.3901845,40.8488547 L47.3901845,40.8488547 Z" id="形状"></path>
            </g>
        </g>
    </g>
</svg>