<?xml version="1.0" encoding="UTF-8"?>
<svg width="50px" height="50px" viewBox="0 0 50 50" version="1.1" xmlns="http://www.w3.org/2000/svg" xmlns:xlink="http://www.w3.org/1999/xlink">
    <title>srt格式-01备份 5</title>
    <g id="页面-1" stroke="none" stroke-width="1" fill="none" fill-rule="evenodd">
        <g id="Use-Cases7" transform="translate(-1129.000000, -2436.000000)" fill-rule="nonzero">
            <g id="srt格式-01备份-5" transform="translate(1129.000000, 2436.000000)">
                <polygon id="路径" fill="#3311AD" points="5.55636161 18.2926829 44.4436384 18.2926829 50 23.8227656 50 39.0243902 0 39.0243902 0 23.8227656"></polygon>
                <path d="M39.5532809,50 L11.6723938,50 C8.59281829,49.9983259 6.09756098,47.5111607 6.09756098,44.4436384 L6.09756098,5.55636161 C6.09756098,2.49162946 8.58889669,0.00558035714 11.6662313,0 L33.9689241,0 L45.1219512,11.1127232 L45.1219512,44.4469866 C45.1202705,47.5106027 42.6289348,49.9949777 39.5532809,50 Z" id="路径" fill="#C0C2FD"></path>
                <polygon id="路径" fill="#6367F1" points="0 23.1707317 50 23.1707317 50 40.2439024 0 40.2439024"></polygon>
                <path d="M14.618,37 L14.618,33.164 L17.096,33.164 C19.532,33.164 20.75,32.128 20.75,30.07 C20.75,28.026 19.532,27.004 17.124,27.004 L12.98,27.004 L12.98,37 L14.618,37 Z M16.998,31.764 L14.618,31.764 L14.618,28.404 L16.998,28.404 C17.712,28.404 18.244,28.53 18.58,28.796 C18.916,29.048 19.098,29.468 19.098,30.07 C19.098,30.672 18.93,31.106 18.594,31.372 C18.258,31.624 17.726,31.764 16.998,31.764 Z M25.804,37 C27.428,37 28.646,36.552 29.486,35.656 C30.284,34.802 30.69,33.584 30.69,32.002 C30.69,30.406 30.284,29.188 29.486,28.348 C28.646,27.452 27.428,27.004 25.804,27.004 L22.15,27.004 L22.15,37 L25.804,37 Z M25.496,35.6 L23.788,35.6 L23.788,28.404 L25.496,28.404 C26.742,28.404 27.652,28.684 28.226,29.258 C28.786,29.818 29.066,30.742 29.066,32.002 C29.066,33.234 28.786,34.144 28.226,34.732 C27.652,35.306 26.742,35.6 25.496,35.6 Z M33.868,37 L33.868,32.576 L38.754,32.576 L38.754,31.176 L33.868,31.176 L33.868,28.404 L39.048,28.404 L39.048,27.004 L32.23,27.004 L32.23,37 L33.868,37 Z" id="PDF" fill="#FFFFFF"></path>
                <path d="M32.9268293,0 L43.902439,10.9756098 L38.4149096,10.9756098 C35.384154,10.9756098 32.9273801,8.51945223 32.9273801,5.489457 L32.9273801,0 L32.9268293,0 Z" id="路径" fill="#929DCA"></path>
            </g>
        </g>
    </g>
</svg>