<?xml version="1.0" encoding="UTF-8"?>
<svg width="50px" height="50px" viewBox="0 0 50 50" version="1.1" xmlns="http://www.w3.org/2000/svg" xmlns:xlink="http://www.w3.org/1999/xlink">
    <title>srt格式-01备份 4</title>
    <g id="页面-1" stroke="none" stroke-width="1" fill="none" fill-rule="evenodd">
        <g id="Use-Cases7" transform="translate(-981.000000, -2435.000000)" fill-rule="nonzero">
            <g id="srt格式-01备份-4" transform="translate(981.000000, 2435.000000)">
                <polygon id="路径" fill="#3311AD" points="5.55636161 18.2926829 44.4436384 18.2926829 50 23.8227656 50 39.0243902 0 39.0243902 0 23.8227656"></polygon>
                <path d="M39.5532809,50 L11.6723938,50 C8.59281829,49.9983259 6.09756098,47.5111607 6.09756098,44.4436384 L6.09756098,5.55636161 C6.09756098,2.49162946 8.58889669,0.00558035714 11.6662313,0 L33.9689241,0 L45.1219512,11.1127232 L45.1219512,44.4469866 C45.1202705,47.5106027 42.6289348,49.9949777 39.5532809,50 Z" id="路径" fill="#C0C2FD"></path>
                <polygon id="路径" fill="#6367F1" points="0 23.1707317 50 23.1707317 50 40.2439024 0 40.2439024"></polygon>
                <path d="M9.634,37 C11.258,37 12.476,36.552 13.316,35.656 C14.114,34.802 14.52,33.584 14.52,32.002 C14.52,30.406 14.114,29.188 13.316,28.348 C12.476,27.452 11.258,27.004 9.634,27.004 L5.98,27.004 L5.98,37 L9.634,37 Z M9.326,35.6 L7.618,35.6 L7.618,28.404 L9.326,28.404 C10.572,28.404 11.482,28.684 12.056,29.258 C12.616,29.818 12.896,30.742 12.896,32.002 C12.896,33.234 12.616,34.144 12.056,34.732 C11.482,35.306 10.572,35.6 9.326,35.6 Z M20.498,37.196 C22.024,37.196 23.228,36.706 24.11,35.726 C24.95,34.788 25.37,33.556 25.37,32.016 C25.37,30.476 24.95,29.23 24.11,28.292 C23.228,27.298 22.024,26.808 20.498,26.808 C18.958,26.808 17.754,27.298 16.886,28.306 C16.046,29.258 15.64,30.49 15.64,32.016 C15.64,33.528 16.046,34.76 16.886,35.712 C17.754,36.692 18.958,37.196 20.498,37.196 Z M20.498,35.754 C19.462,35.754 18.65,35.404 18.09,34.718 C17.544,34.046 17.278,33.15 17.278,32.016 C17.278,30.868 17.544,29.972 18.09,29.3 C18.664,28.6 19.462,28.25 20.498,28.25 C21.534,28.25 22.332,28.572 22.892,29.244 C23.438,29.916 23.718,30.84 23.718,32.016 C23.718,33.192 23.438,34.102 22.892,34.76 C22.332,35.418 21.534,35.754 20.498,35.754 Z M31.278,37.196 C32.356,37.196 33.28,36.888 34.05,36.272 C34.876,35.614 35.394,34.704 35.618,33.528 L34.022,33.528 C33.826,34.284 33.49,34.858 33.014,35.236 C32.566,35.572 31.978,35.754 31.264,35.754 C30.172,35.754 29.36,35.404 28.842,34.732 C28.366,34.102 28.128,33.192 28.128,32.016 C28.128,30.868 28.366,29.972 28.856,29.328 C29.388,28.6 30.172,28.25 31.222,28.25 C31.922,28.25 32.496,28.39 32.944,28.698 C33.406,29.006 33.714,29.482 33.882,30.14 L35.478,30.14 C35.324,29.132 34.89,28.32 34.162,27.732 C33.406,27.116 32.426,26.808 31.25,26.808 C29.654,26.808 28.436,27.326 27.596,28.39 C26.854,29.314 26.49,30.532 26.49,32.016 C26.49,33.528 26.84,34.732 27.554,35.628 C28.366,36.664 29.612,37.196 31.278,37.196 Z M38.25,37 L40.826,33.136 L43.402,37 L45.404,37 L41.806,31.834 L45.18,27.004 L43.178,27.004 L40.826,30.532 L38.474,27.004 L36.472,27.004 L39.818,31.834 L36.248,37 L38.25,37 Z" id="DOCX" fill="#FFFFFF"></path>
                <path d="M32.9268293,0 L43.902439,10.9756098 L38.4149096,10.9756098 C35.384154,10.9756098 32.9273801,8.51945223 32.9273801,5.489457 L32.9273801,0 L32.9268293,0 Z" id="路径" fill="#929DCA"></path>
            </g>
        </g>
    </g>
</svg>