<?xml version="1.0" encoding="UTF-8"?>
<svg width="50px" height="50px" viewBox="0 0 50 50" version="1.1" xmlns="http://www.w3.org/2000/svg" xmlns:xlink="http://www.w3.org/1999/xlink">
    <title>srt格式-01备份 3</title>
    <g id="页面-1" stroke="none" stroke-width="1" fill="none" fill-rule="evenodd">
        <g id="Use-Cases7" transform="translate(-832.000000, -2435.000000)" fill-rule="nonzero">
            <g id="srt格式-01备份-3" transform="translate(832.000000, 2435.000000)">
                <polygon id="路径" fill="#3311AD" points="5.55636161 18.2926829 44.4436384 18.2926829 50 23.8227656 50 39.0243902 0 39.0243902 0 23.8227656"></polygon>
                <path d="M39.5532809,50 L11.6723938,50 C8.59281829,49.9983259 6.09756098,47.5111607 6.09756098,44.4436384 L6.09756098,5.55636161 C6.09756098,2.49162946 8.58889669,0.00558035714 11.6662313,0 L33.9689241,0 L45.1219512,11.1127232 L45.1219512,44.4469866 C45.1202705,47.5106027 42.6289348,49.9949777 39.5532809,50 Z" id="路径" fill="#C0C2FD"></path>
                <polygon id="路径" fill="#6367F1" points="0 23.1707317 50 23.1707317 50 40.2439024 0 40.2439024"></polygon>
                <path d="M17.124,37 L17.124,28.404 L20.4,28.404 L20.4,27.004 L12.21,27.004 L12.21,28.404 L15.486,28.404 L15.486,37 L17.124,37 Z M22.682,37 L25.258,33.136 L27.834,37 L29.836,37 L26.238,31.834 L29.612,27.004 L27.61,27.004 L25.258,30.532 L22.906,27.004 L20.904,27.004 L24.25,31.834 L20.68,37 L22.682,37 Z M35.03,37 L35.03,28.404 L38.306,28.404 L38.306,27.004 L30.116,27.004 L30.116,28.404 L33.392,28.404 L33.392,37 L35.03,37 Z" id="TXT" fill="#FFFFFF"></path>
                <path d="M32.9268293,0 L43.902439,10.9756098 L38.4149096,10.9756098 C35.384154,10.9756098 32.9273801,8.51945223 32.9273801,5.489457 L32.9273801,0 L32.9268293,0 Z" id="路径" fill="#929DCA"></path>
            </g>
        </g>
    </g>
</svg>