<?xml version="1.0" encoding="UTF-8"?>
<svg width="30px" height="30px" viewBox="0 0 30 30" version="1.1" xmlns="http://www.w3.org/2000/svg" xmlns:xlink="http://www.w3.org/1999/xlink">
    <title>编组</title>
    <defs>
        <linearGradient x1="8.41594225%" y1="50%" x2="92.3900041%" y2="50%" id="linearGradient-1">
            <stop stop-color="#3470FF" offset="0%"></stop>
            <stop stop-color="#9534E6" offset="100%"></stop>
        </linearGradient>
    </defs>
    <g id="紫色" stroke="none" stroke-width="1" fill="none" fill-rule="evenodd">
        <g id="紫色首页文件夹" transform="translate(-20.000000, -65.000000)">
            <g id="Top" transform="translate(0.000000, 50.000000)">
                <g id="编组" transform="translate(20.000000, 15.000000)">
                    <rect id="矩形备份-27" fill="url(#linearGradient-1)" x="0" y="0" width="30" height="30" rx="15"></rect>
                    <g id="编组-10备份-4" transform="translate(6.713287, 6.503497)" fill="#FFFFFF">
                        <g id="编组-13" transform="translate(0.270282, 6.490563)">
                            <path d="M3.9828808,5.45745771 L13.4300038,5.43161574 C14.4987459,5.42869227 15.3675026,6.29270901 15.370426,7.36145114 C15.370885,7.52925343 15.3495163,7.69640272 15.3068577,7.85869276 C14.9298717,9.29289266 13.6333575,10.2926539 12.1504388,10.2926539 L2.52220412,10.2926539 C1.48829195,10.2926539 0.650140538,9.45450244 0.650140538,8.42059028 C0.650140538,8.23693953 0.677164154,8.05428825 0.730343057,7.87850543 C1.16427805,6.44413364 2.48431308,5.46155694 3.9828808,5.45745771 Z" id="矩形备份-22" transform="translate(7.973318, 7.858693) scale(-1, -1) translate(-7.973318, -7.858693) "></path>
                            <path d="M11.3810855,0 C14.1281436,0 16.3717604,2.15528425 16.5128885,4.86695657 L14.3562083,4.8679222 L14.355237,4.871 L14.3394589,4.8713974 C11.6205055,4.94524588 9.45709078,6.18678757 9.45709078,7.70754348 C9.45709078,8.79311879 10.5594945,9.73641588 12.1794393,10.2142518 C11.9195255,10.2556436 11.6527676,10.2767246 11.3810855,10.2767246 C8.54297784,10.2767246 6.24223699,7.97620146 6.24223699,5.13836232 C6.24223699,2.30052317 8.54297784,0 11.3810855,0 Z" id="形状结合备份-3" transform="translate(11.377586, 5.138362) scale(-1, -1) translate(-11.377586, -5.138362) "></path>
                        </g>
                        <g id="编组-13" transform="translate(8.256467, 5.146327) scale(-1, -1) translate(-8.256467, -5.146327) ">
                            <path d="M3.9828808,5.45745771 L13.4300038,5.43161574 C14.4987459,5.42869227 15.3675026,6.29270901 15.370426,7.36145114 C15.370885,7.52925343 15.3495163,7.69640272 15.3068577,7.85869276 C14.9298717,9.29289266 13.6333575,10.2926539 12.1504388,10.2926539 L2.52220412,10.2926539 C1.48829195,10.2926539 0.650140538,9.45450244 0.650140538,8.42059028 C0.650140538,8.23693953 0.677164154,8.05428825 0.730343057,7.87850543 C1.16427805,6.44413364 2.48431308,5.46155694 3.9828808,5.45745771 Z" id="矩形备份-22" transform="translate(7.973318, 7.858693) scale(-1, -1) translate(-7.973318, -7.858693) "></path>
                            <path d="M11.3810855,0 C14.1281436,0 16.3717604,2.15528425 16.5128885,4.86695657 L14.3562083,4.8679222 L14.355237,4.871 L14.3394589,4.8713974 C11.6205055,4.94524588 9.45709078,6.18678757 9.45709078,7.70754348 C9.45709078,8.79311879 10.5594945,9.73641588 12.1794393,10.2142518 C11.9195255,10.2556436 11.6527676,10.2767246 11.3810855,10.2767246 C8.54297784,10.2767246 6.24223699,7.97620146 6.24223699,5.13836232 C6.24223699,2.30052317 8.54297784,0 11.3810855,0 Z" id="形状结合备份-3" transform="translate(11.377586, 5.138362) scale(-1, -1) translate(-11.377586, -5.138362) "></path>
                        </g>
                    </g>
                </g>
            </g>
        </g>
    </g>
</svg>