<?xml version="1.0" encoding="UTF-8"?>
<svg width="131px" height="30px" viewBox="0 0 131 30" version="1.1" xmlns="http://www.w3.org/2000/svg" xmlns:xlink="http://www.w3.org/1999/xlink">
    <title>编组 14备份 2</title>
    <defs>
        <linearGradient x1="8.41594225%" y1="50%" x2="92.3900041%" y2="50%" id="linearGradient-1">
            <stop stop-color="#3470FF" offset="0%"></stop>
            <stop stop-color="#9534E6" offset="100%"></stop>
        </linearGradient>
        <linearGradient x1="8.41594225%" y1="50%" x2="92.3900041%" y2="50%" id="linearGradient-2">
            <stop stop-color="#3470FF" offset="0%"></stop>
            <stop stop-color="#9534E6" offset="100%"></stop>
        </linearGradient>
    </defs>
    <g id="紫色" stroke="none" stroke-width="1" fill="none" fill-rule="evenodd">
        <g id="紫升级付费" transform="translate(-20.000000, -65.000000)">
            <g id="Top" transform="translate(0.000000, 50.000000)">
                <g id="编组-14备份-2" transform="translate(20.000000, 15.000000)">
                    <g id="编组">
                        <rect id="矩形备份-27" fill="url(#linearGradient-1)" x="0" y="0" width="30" height="30" rx="15"></rect>
                        <g id="编组-10备份-4" transform="translate(6.713287, 6.503497)" fill="#FFFFFF">
                            <g id="编组-13" transform="translate(0.270282, 6.490563)">
                                <path d="M3.9828808,5.45745771 L13.4300038,5.43161574 C14.4987459,5.42869227 15.3675026,6.29270901 15.370426,7.36145114 C15.370885,7.52925343 15.3495163,7.69640272 15.3068577,7.85869276 C14.9298717,9.29289266 13.6333575,10.2926539 12.1504388,10.2926539 L2.52220412,10.2926539 C1.48829195,10.2926539 0.650140538,9.45450244 0.650140538,8.42059028 C0.650140538,8.23693953 0.677164154,8.05428825 0.730343057,7.87850543 C1.16427805,6.44413364 2.48431308,5.46155694 3.9828808,5.45745771 Z" id="矩形备份-22" transform="translate(7.973318, 7.858693) scale(-1, -1) translate(-7.973318, -7.858693) "></path>
                                <path d="M11.3810855,0 C14.1281436,0 16.3717604,2.15528425 16.5128885,4.86695657 L14.3562083,4.8679222 L14.355237,4.871 L14.3394589,4.8713974 C11.6205055,4.94524588 9.45709078,6.18678757 9.45709078,7.70754348 C9.45709078,8.79311879 10.5594945,9.73641588 12.1794393,10.2142518 C11.9195255,10.2556436 11.6527676,10.2767246 11.3810855,10.2767246 C8.54297784,10.2767246 6.24223699,7.97620146 6.24223699,5.13836232 C6.24223699,2.30052317 8.54297784,0 11.3810855,0 Z" id="形状结合备份-3" transform="translate(11.377586, 5.138362) scale(-1, -1) translate(-11.377586, -5.138362) "></path>
                            </g>
                            <g id="编组-13" transform="translate(8.256467, 5.146327) scale(-1, -1) translate(-8.256467, -5.146327) ">
                                <path d="M3.9828808,5.45745771 L13.4300038,5.43161574 C14.4987459,5.42869227 15.3675026,6.29270901 15.370426,7.36145114 C15.370885,7.52925343 15.3495163,7.69640272 15.3068577,7.85869276 C14.9298717,9.29289266 13.6333575,10.2926539 12.1504388,10.2926539 L2.52220412,10.2926539 C1.48829195,10.2926539 0.650140538,9.45450244 0.650140538,8.42059028 C0.650140538,8.23693953 0.677164154,8.05428825 0.730343057,7.87850543 C1.16427805,6.44413364 2.48431308,5.46155694 3.9828808,5.45745771 Z" id="矩形备份-22" transform="translate(7.973318, 7.858693) scale(-1, -1) translate(-7.973318, -7.858693) "></path>
                                <path d="M11.3810855,0 C14.1281436,0 16.3717604,2.15528425 16.5128885,4.86695657 L14.3562083,4.8679222 L14.355237,4.871 L14.3394589,4.8713974 C11.6205055,4.94524588 9.45709078,6.18678757 9.45709078,7.70754348 C9.45709078,8.79311879 10.5594945,9.73641588 12.1794393,10.2142518 C11.9195255,10.2556436 11.6527676,10.2767246 11.3810855,10.2767246 C8.54297784,10.2767246 6.24223699,7.97620146 6.24223699,5.13836232 C6.24223699,2.30052317 8.54297784,0 11.3810855,0 Z" id="形状结合备份-3" transform="translate(11.377586, 5.138362) scale(-1, -1) translate(-11.377586, -5.138362) "></path>
                            </g>
                        </g>
                    </g>
                    <path d="M48.36,24.44 C50.3986667,24.44 52.078,24.0953333 53.398,23.406 C55.07,22.526 55.906,21.1693333 55.906,19.336 C55.906,17.4146667 54.894,16.102 52.87,15.398 C52.777954,15.3661379 52.5987451,15.3227396 52.3323734,15.267805 L52.0827087,15.217893 C51.1793397,15.0421023 49.5644368,14.7721379 47.238,14.408 C45.214,14.0853333 44.202,13.44 44.202,12.472 C44.202,11.0346667 45.4193333,10.316 47.854,10.316 C49.13,10.316 50.12,10.5873333 50.824,11.13 C51.4253333,11.5846667 51.7553333,12.1566667 51.814,12.846 L51.814,12.846 L55.378,12.846 C55.07,9.51666667 52.5106667,7.852 47.7,7.852 C45.632,7.852 43.9966667,8.226 42.794,8.974 C41.4446667,9.81 40.77,11.0566667 40.77,12.714 C40.77,14.5473333 41.7673333,15.816 43.762,16.52 C43.894,16.564 45.7566667,16.916 49.35,17.576 C51.3446667,17.928 52.342,18.6246667 52.342,19.666 C52.342,20.4726667 51.946,21.074 51.154,21.47 C50.4793333,21.8073333 49.5846667,21.976 48.47,21.976 C45.5513333,21.976 44.048,20.9566667 43.96,18.918 L43.96,18.918 L40.396,18.918 C40.44,22.5993333 43.0946667,24.44 48.36,24.44 Z M64.244,24.44 C65.4466667,24.44 66.5393333,24.2273333 67.522,23.802 C69.3553333,23.01 70.4186667,21.5873333 70.712,19.534 L70.712,19.534 L67.544,19.534 C67.192,20.458 66.8033333,21.096 66.378,21.448 C65.8353333,21.888 65.014,22.108 63.914,22.108 C62.682,22.108 61.736,21.7046667 61.076,20.898 C60.4893333,20.194 60.196,19.2846667 60.196,18.17 C60.196,17.07 60.5186667,16.1606667 61.164,15.442 C61.8973333,14.6353333 62.924,14.232 64.244,14.232 C65.0946667,14.232 65.817,14.4446667 66.411,14.87 C67.005,15.2953333 67.3606667,15.816 67.478,16.432 L67.478,16.432 L70.646,16.432 C70.3673333,14.716 69.4433333,13.4693333 67.874,12.692 C66.8033333,12.164 65.5933333,11.9 64.244,11.9 C62.0146667,11.9 60.2546667,12.4683333 58.964,13.605 C57.6733333,14.7416667 57.028,16.2633333 57.028,18.17 C57.028,19.9446667 57.578,21.3893333 58.678,22.504 C59.954,23.7946667 61.8093333,24.44 64.244,24.44 Z M75.64,24 L75.64,18.368 C75.64,17.1506667 76.0653333,16.2266667 76.916,15.596 C77.5906667,15.0973333 78.4046667,14.848 79.358,14.848 C80.0473333,14.848 80.6926667,14.9433333 81.294,15.134 L81.294,15.134 L81.294,12.142 C80.854,12.0686667 80.4506667,12.032 80.084,12.032 C78.2066667,12.032 76.74,12.89 75.684,14.606 L75.684,14.606 L75.64,14.606 L75.64,12.34 L72.604,12.34 L72.604,24 L75.64,24 Z M85.914,10.492 L85.914,8.028 L82.878,8.028 L82.878,10.492 L85.914,10.492 Z M85.914,24 L85.914,12.34 L82.878,12.34 L82.878,24 L85.914,24 Z M96.012,24.44 C98.08,24.44 99.7006667,23.7726667 100.874,22.438 C101.886,21.294 102.392,19.886 102.392,18.214 C102.392,16.5713333 101.886,15.1706667 100.874,14.012 C99.7006667,12.692 98.08,12.032 96.012,12.032 C93.8853333,12.032 92.3966667,12.692 91.546,14.012 L91.546,14.012 L91.502,14.012 L91.502,8.028 L88.466,8.028 L88.466,24 L91.502,24 L91.502,22.394 L91.546,22.394 C91.678,22.8193333 92.1473333,23.2446667 92.954,23.67 C93.8926667,24.1833333 94.912,24.44 96.012,24.44 Z M95.286,22.108 C93.966,22.108 92.9613333,21.7046667 92.272,20.898 C91.6706667,20.2086667 91.37,19.314 91.37,18.214 C91.37,17.1286667 91.6706667,16.2413333 92.272,15.552 C92.9613333,14.76 93.966,14.364 95.286,14.364 C96.6206667,14.364 97.6326667,14.76 98.322,15.552 C98.9233333,16.2413333 99.224,17.1286667 99.224,18.214 C99.224,19.314 98.9233333,20.2086667 98.322,20.898 C97.6326667,21.7046667 96.6206667,22.108 95.286,22.108 Z M107.474,10.492 L107.474,8.028 L104.438,8.028 L104.438,10.492 L107.474,10.492 Z M107.474,24 L107.474,12.34 L104.438,12.34 L104.438,24 L107.474,24 Z M113.986,24 L113.986,14.54 L117.176,14.54 L117.176,12.34 L113.986,12.34 L113.986,11.438 C113.986,10.8953333 114.088667,10.5286667 114.294,10.338 C114.499333,10.1473333 114.939333,10.052 115.614,10.052 C116.215333,10.052 116.736,10.0813333 117.176,10.14 L117.176,10.14 L117.176,7.94 C116.237333,7.88133333 115.328,7.852 114.448,7.852 C112.116,7.852 110.95,8.84933333 110.95,10.844 L110.95,10.844 L110.95,12.34 L108.552,12.34 L108.552,14.54 L110.95,14.54 L110.95,24 L113.986,24 Z M120.08,28.444 C121.356,28.444 122.261667,28.2973333 122.797,28.004 C123.332333,27.7106667 123.827333,27.0653333 124.282,26.068 L124.282,26.068 L130.64,12.34 L127.406,12.34 L123.754,20.678 L120.014,12.34 L116.714,12.34 L122.148,23.802 L121.466,25.21 C121.172667,25.8113333 120.586,26.112 119.706,26.112 C119.016667,26.112 118.510667,26.0973333 118.188,26.068 L118.188,26.068 L118.188,28.4 C118.98,28.4293333 119.610667,28.444 120.08,28.444 Z" id="Scribify" fill="url(#linearGradient-2)"></path>
                </g>
            </g>
        </g>
    </g>
</svg>