<?xml version="1.0" encoding="UTF-8"?>
<svg width="98px" height="98px" viewBox="0 0 98 98" version="1.1" xmlns="http://www.w3.org/2000/svg" xmlns:xlink="http://www.w3.org/1999/xlink">
    <title>编组 14备份</title>
    <g id="页面-1" stroke="none" stroke-width="1" fill="none" fill-rule="evenodd">
        <g id="logo定版" transform="translate(-648.000000, -425.000000)">
            <g id="编组-14备份" transform="translate(648.000000, 425.000000)">
                <rect id="矩形备份-27" fill="#3470FF" x="0" y="0" width="98" height="98" rx="49"></rect>
                <g id="编组-10备份-4" transform="translate(21.875000, 21.823462)" fill="#FFFFFF">
                    <g id="编组-13" transform="translate(0.875000, 21.000000)">
                        <path d="M12.8896442,17.6574345 L47.7229454,17.562206 C49.3797935,17.5576765 50.7266061,18.8971453 50.7311357,20.5539934 C50.7318472,20.8142765 50.6986826,21.0735456 50.6324772,21.325269 L49.553809,25.4265385 C48.3333319,30.0669881 44.1380656,33.3015385 39.3398017,33.3015385 L8.16090787,33.3015385 C4.81612215,33.3015385 2.10463758,30.5900539 2.10463758,27.2452682 C2.10463758,26.6508146 2.19215796,26.0595999 2.36438341,25.4906417 C3.76923348,20.8496267 8.04068059,17.6706907 12.8896442,17.6574345 Z" id="矩形备份-22" transform="translate(25.812500, 25.426538) scale(-1, -1) translate(-25.812500, -25.426538) "></path>
                        <path d="M36.8446177,0 C45.7387081,0 53.0026575,6.97472189 53.4582461,15.7494641 L46.4761613,15.75 L46.4760572,15.759823 C37.6484318,15.9837236 30.6159541,20.007065 30.6159541,24.9375 C30.6159541,28.4511179 34.1874237,31.5040651 39.434889,33.0495544 C38.5909052,33.1815431 37.7257614,33.25 36.8446177,33.25 C27.6566414,33.25 20.208315,25.806734 20.208315,16.625 C20.208315,7.44326603 27.6566414,0 36.8446177,0 Z" id="形状结合备份-3" transform="translate(36.833315, 16.625000) scale(-1, -1) translate(-36.833315, -16.625000) "></path>
                    </g>
                    <g id="编组-13" transform="translate(26.729157, 16.650769) scale(-1, -1) translate(-26.729157, -16.650769) translate(0.000000, -0.000000)">
                        <path d="M12.8896442,17.6574345 L47.7229454,17.562206 C49.3797935,17.5576765 50.7266061,18.8971453 50.7311357,20.5539934 C50.7318472,20.8142765 50.6986826,21.0735456 50.6324772,21.325269 L49.553809,25.4265385 C48.3333319,30.0669881 44.1380656,33.3015385 39.3398017,33.3015385 L8.16090787,33.3015385 C4.81612215,33.3015385 2.10463758,30.5900539 2.10463758,27.2452682 C2.10463758,26.6508146 2.19215796,26.0595999 2.36438341,25.4906417 C3.76923348,20.8496267 8.04068059,17.6706907 12.8896442,17.6574345 Z" id="矩形备份-22" transform="translate(25.812500, 25.426538) scale(-1, -1) translate(-25.812500, -25.426538) "></path>
                        <path d="M36.8446177,0 C45.7387081,0 53.0026575,6.97472189 53.4582461,15.7494641 L46.4761613,15.75 L46.4760572,15.759823 C37.6484318,15.9837236 30.6159541,20.007065 30.6159541,24.9375 C30.6159541,28.4511179 34.1874237,31.5040651 39.434889,33.0495544 C38.5909052,33.1815431 37.7257614,33.25 36.8446177,33.25 C27.6566414,33.25 20.208315,25.806734 20.208315,16.625 C20.208315,7.44326603 27.6566414,0 36.8446177,0 Z" id="形状结合备份-3" transform="translate(36.833315, 16.625000) scale(-1, -1) translate(-36.833315, -16.625000) "></path>
                    </g>
                </g>
            </g>
        </g>
    </g>
</svg>
