<?xml version="1.0" encoding="UTF-8"?>
<svg width="118px" height="28px" viewBox="0 0 118 28" version="1.1" xmlns="http://www.w3.org/2000/svg" xmlns:xlink="http://www.w3.org/1999/xlink">
    <title>编组 12备份</title>
    <defs>
        <linearGradient x1="8.41594225%" y1="50%" x2="92.3900041%" y2="50%" id="linearGradient-1">
            <stop stop-color="#3470FF" offset="0%"></stop>
            <stop stop-color="#9534E6" offset="100%"></stop>
        </linearGradient>
        <linearGradient x1="8.41594225%" y1="50%" x2="92.3900041%" y2="50%" id="linearGradient-2">
            <stop stop-color="#3470FF" offset="0%"></stop>
            <stop stop-color="#9534E6" offset="100%"></stop>
        </linearGradient>
    </defs>
    <g id="页面-1" stroke="none" stroke-width="1" fill="none" fill-rule="evenodd">
        <g id="编组-12备份">
            <g id="编组-2备份-19" transform="translate(0.000000, 6.000000)" fill="url(#linearGradient-1)">
                <path d="M11.8573405,4 C18.0112614,4 23,6.6862915 23,10 C23,13.3137085 18.0112614,16 11.8573405,16 C7.5812925,16 3.86781272,14.7030164 1.99964368,12.7997691 C3.50726051,13.8883743 5.67986864,14.5714286 8.09488411,14.5714286 C12.650384,14.5714286 16.3433463,12.1409744 16.3433463,9.14285714 C16.3433463,6.78025353 14.0500541,4.77016289 10.848561,4.02415715 C11.181007,4.0081972 11.517396,4 11.8573405,4 Z M10.9523386,0 C14.7127489,0 18.0305275,1.03820657 20.0026875,2.61993803 C18.6147746,1.87434022 16.8526387,1.42857143 14.9350072,1.42857143 C10.457317,1.42857143 6.82743187,3.85902564 6.82743187,6.85714286 C6.82743187,9.2062221 9.05582083,11.2068126 12.1744118,11.9629076 C11.7733907,11.9874648 11.3655368,12 10.9523386,12 C4.90352903,12 0,9.3137085 0,6 C0,2.6862915 4.90352903,0 10.9523386,0 Z" id="形状结合"></path>
            </g>
            <text id="nevercap" fill="url(#linearGradient-2)" fill-rule="nonzero" font-family="PingFangSC-Semibold, PingFang SC" font-size="20" font-weight="500">
                <tspan x="31" y="21">nevercap</tspan>
            </text>
        </g>
    </g>
</svg>