<?xml version="1.0" encoding="UTF-8"?>
<svg width="37px" height="37px" viewBox="0 0 37 37" version="1.1" xmlns="http://www.w3.org/2000/svg" xmlns:xlink="http://www.w3.org/1999/xlink">
    <title>上传 (4)</title>
    <g id="页面-1" stroke="none" stroke-width="1" fill="none" fill-rule="evenodd">
        <g id="Features2" transform="translate(-1035.000000, -1028.000000)" fill="#6367F1" fill-rule="nonzero">
            <g id="上传-(4)" transform="translate(1035.000000, 1028.000000)">
                <path d="M3.96428571,6.60714286 L7.26785714,2.64285714 L29.7321429,2.64285714 L33.0357143,6.60714286 L3.96428571,6.60714286 Z M23.7857143,25.1071429 L23.7857143,30.3928571 L13.2142857,30.3928571 L13.2142857,25.1071429 L5.28571429,25.1071429 L17.5921786,12.2813571 C18.093,11.7580714 18.9096429,11.7593929 19.4078214,12.2787143 L31.7142857,25.1071429 L23.7857143,25.1071429 Z M36.2652857,6.8265 L32.449,1.10207143 C32.0446429,0.495535714 31.1275714,0 30.4034286,0 L6.59657143,0 C5.88696429,0 4.95667857,0.494214286 4.551,1.10207143 L0.734714286,6.8265 C0.330357143,7.43303571 0,8.52189286 0,9.25264286 L0,34.3690357 C0,35.8239286 1.17871429,37 2.63096429,37 L34.3690357,37 C35.8107143,37 37,35.8226071 37,34.3690357 L37,9.25264286 C37,8.50867857 36.6709643,7.43435714 36.2652857,6.8265" id="形状"></path>
            </g>
        </g>
    </g>
</svg>