<?xml version="1.0" encoding="UTF-8"?>
<svg width="40px" height="37px" viewBox="0 0 40 37" version="1.1" xmlns="http://www.w3.org/2000/svg" xmlns:xlink="http://www.w3.org/1999/xlink">
    <title>数据板</title>
    <g id="页面-1" stroke="none" stroke-width="1" fill="none" fill-rule="evenodd">
        <g id="Features2" transform="translate(-1088.000000, -3050.000000)" fill="#6367F1" fill-rule="nonzero">
            <g id="编组-4备份" transform="translate(120.000000, 2467.000000)">
                <g id="数据板" transform="translate(968.000000, 583.000000)">
                    <path d="M33.3333333,0 L6.66666668,0 C4.83333332,0 3.33333332,1.5 3.33333332,3.33333332 L3.33333332,23.3333333 C3.33333332,25.1666666 4.83333332,26.6666666 6.66666668,26.6666666 L33.3333333,26.6666666 C35.1666666,26.6666666 36.6666667,25.1666666 36.6666667,23.3333333 L36.6666667,3.33333332 C36.6666667,1.5 35.1666667,0 33.3333333,0 L33.3333333,0 Z M33.3333333,23.3333333 L6.66666668,23.3333333 L6.66666668,3.33333332 L33.3333333,3.33333332 L33.3333333,23.3333333 L33.3333333,23.3333333 Z" id="形状"></path>
                    <path d="M17.5,25.1666666 C18.3333333,25.6666666 18.5,26.6666666 18,27.5 L13,35.8333333 C12.6666667,36.6666666 11.6666667,36.8333333 10.8333333,36.5 C10,36 9.83333332,35 10.1666667,34.1666666 L15.1666667,25.8333333 C15.6666667,25 16.6666667,24.8333333 17.5,25.1666666 L17.5,25.1666666 Z M22.5,25.1666666 C21.6666667,25.6666666 21.5,26.6666666 22,27.5 L27,35.8333333 C27.5,36.6666666 28.5,36.8333333 29.3333333,36.3333333 C30.1666666,35.8333333 30.3333333,34.8333333 29.8333333,34 L24.8333333,25.6666666 C24.3333333,25 23.3333333,24.8333333 22.5,25.1666666 Z M0,1.66666664 C0,0.666666641 0.66666668,0 1.66666668,0 L38.3333333,0 C39.3333333,0 40,0.66666668 40,1.66666664 C40,2.6666666 39.3333333,3.33333332 38.3333333,3.33333332 L1.66666668,3.33333332 C0.66666668,3.33333332 0,2.66666664 0,1.66666664 Z M31,7.16666664 C31.6666667,7.83333332 31.6666667,8.83333332 30.8333333,9.5 L22,17.6666666 C20.6666667,18.8333333 18.5,18.8333333 17.3333333,17.5 L15.6666667,15.6666666 L10.8333333,20.3333333 C10.1666666,21 9.16666664,21 8.5,20.3333333 C7.83333336,19.6666666 7.83333332,18.6666666 8.5,18 L13.3333333,13.5 C14.6666666,12.1666667 16.8333333,12.3333333 18,13.6666666 L19.6666667,15.5 L28.5,7.33333332 C29.3333333,6.5 30.3333333,6.5 31,7.16666664 L31,7.16666664 Z" id="形状"></path>
                </g>
            </g>
        </g>
    </g>
</svg>