<?xml version="1.0" encoding="UTF-8"?>
<svg width="40px" height="40px" viewBox="0 0 40 40" version="1.1" xmlns="http://www.w3.org/2000/svg" xmlns:xlink="http://www.w3.org/1999/xlink">
    <title>找记者</title>
    <g id="页面-1" stroke="none" stroke-width="1" fill="none" fill-rule="evenodd">
        <g id="Features2" transform="translate(-1090.000000, -2706.000000)" fill="#6367F1" fill-rule="nonzero">
            <g id="编组-4备份" transform="translate(120.000000, 2467.000000)">
                <g id="找记者" transform="translate(970.000000, 239.000000)">
                    <path d="M3.29245283,2.71226415 L19.0801887,2.71226415 L19.0801887,8.96226415 C19.0801887,9.83490566 19.7877358,10.5424528 20.6603774,10.5424528 L27.0754717,10.5424528 L27.0754717,11.5188679 C27.0754717,12.2688679 27.6839623,12.8726415 28.4292453,12.8726415 C29.1792453,12.8726415 29.7830189,12.2641509 29.7830189,11.5188679 L29.7830189,8.8490566 C29.7830189,8.5 29.6556604,8.16037736 29.4292453,7.89622642 L23.0613208,0.504716981 C22.7830189,0.183962264 22.3820755,0 21.9575472,0 L1.95283019,0 C0.872641509,0 1.71602774e-15,0.872641509 1.71602774e-15,1.95283019 L1.71602774e-15,32.6886792 C1.71602774e-15,33.7688679 0.872641509,34.6415094 1.95283019,34.6415094 L9.58490566,34.6415094 C10.3349057,34.6415094 10.9386792,34.0330189 10.9386792,33.2877358 C10.9386792,32.5377358 10.3301887,31.9339623 9.58490566,31.9339623 L3.29245283,31.9339623 C2.97169811,31.9339623 2.70754717,31.6698113 2.70754717,31.3490566 L2.70754717,3.29716981 C2.70754717,2.97169811 2.96698113,2.71226415 3.29245283,2.71226415 Z M25.7971698,7.83018868 L22.3160377,7.83018868 C22.0235849,7.83018868 21.7830189,7.58962264 21.7830189,7.29716981 L21.7830189,3.17924528 L25.7971698,7.83018868 Z" id="形状"></path>
                    <path d="M7.98113208,13.1886792 L18.7924528,13.1886792 C19.5424528,13.1886792 20.1462264,13.7971698 20.1462264,14.5424528 C20.1462264,15.2924528 19.5377358,15.8962264 18.7924528,15.8962264 L7.98113208,15.8962264 C7.23113208,15.8962264 6.62735849,15.2877358 6.62735849,14.5424528 C6.62735849,13.7971698 7.23584906,13.1886792 7.98113208,13.1886792 Z M7.98113208,20.7688679 L13.1745283,20.7688679 C13.9245283,20.7688679 14.5283019,21.3773585 14.5283019,22.1226415 C14.5283019,22.8726415 13.9198113,23.4764151 13.1745283,23.4764151 L7.98113208,23.4764151 C7.23113208,23.4764151 6.62735849,22.8679245 6.62735849,22.1226415 C6.62735849,21.3773585 7.23584906,20.7688679 7.98113208,20.7688679 Z M40,19.4150943 C40,15.9811321 37.2028302,13.1886792 33.7735849,13.1886792 C30.9811321,13.1886792 28.6084906,15.0424528 27.8207547,17.5801887 L27.4481132,17.2075472 C26.9339623,16.6933962 26.254717,16.4150943 25.5330189,16.4150943 C24.8113208,16.4150943 24.1320755,16.6981132 23.6179245,17.2075472 L19.3632075,21.4622642 C18.8490566,21.9764151 18.5707547,22.6556604 18.5707547,23.3773585 C18.5707547,24.0990566 18.8537736,24.7783019 19.3632075,25.2924528 L20.3490566,26.2783019 L14.8066038,31.8396226 C13.004717,33.6415094 13.004717,36.5801887 14.8066038,38.3867925 C15.6839623,39.2641509 16.8443396,39.745283 18.0801887,39.745283 C19.3160377,39.745283 20.4811321,39.2641509 21.3537736,38.3867925 L26.9056604,32.8349057 L27.8915094,33.8207547 C28.4056604,34.3349057 29.0849057,34.6132075 29.8066038,34.6132075 C30.5283019,34.6132075 31.2075472,34.3301887 31.7216981,33.8207547 L35.9764151,29.5660377 C36.490566,29.0518868 36.7688679,28.3726415 36.7688679,27.6509434 C36.7688679,26.9292453 36.4858491,26.25 35.9764151,25.7358491 L35.6037736,25.3632075 C38.1462264,24.5801887 40,22.2122642 40,19.4150943 Z M19.4339623,36.4716981 C18.6839623,37.2216981 17.4669811,37.2216981 16.7169811,36.4716981 C15.9669811,35.7216981 15.9669811,34.504717 16.7169811,33.754717 L22.2688679,28.2028302 L24.9858491,30.9198113 L19.4339623,36.4716981 L19.4339623,36.4716981 Z M29.8113208,31.9103774 L21.2830189,23.3820755 L25.5377358,19.1273585 L34.0660377,27.6556604 L29.8113208,31.9103774 L29.8113208,31.9103774 Z M33.7735849,22.9339623 C33.5943396,22.9339623 33.4245283,22.9716981 33.2735849,23.0330189 L30.259434,20.0188679 C30.2735849,19.9198113 30.2783019,19.8160377 30.2688679,19.7169811 C30.259434,19.6179245 30.254717,19.5141509 30.254717,19.4198113 C30.254717,17.4811321 31.8301887,15.9009434 33.7735849,15.9009434 C35.7122642,15.9009434 37.2924528,17.4764151 37.2924528,19.4198113 C37.2877358,21.3584906 35.7122642,22.9339623 33.7735849,22.9339623 L33.7735849,22.9339623 Z" id="形状"></path>
                </g>
            </g>
        </g>
    </g>
</svg>