<?xml version="1.0" encoding="UTF-8"?>
<svg width="35px" height="39px" viewBox="0 0 35 39" version="1.1" xmlns="http://www.w3.org/2000/svg" xmlns:xlink="http://www.w3.org/1999/xlink">
    <title>笔记本 (1)</title>
    <g id="页面-1" stroke="none" stroke-width="1" fill="none" fill-rule="evenodd">
        <g id="Features2" transform="translate(-685.000000, -3050.000000)" fill="#6367F1" fill-rule="nonzero">
            <g id="编组-4备份" transform="translate(-165.000000, 2467.000000)">
                <g id="笔记本-(1)" transform="translate(850.000000, 583.000000)">
                    <path d="M30.5344665,0 L8.6762715,0 C6.22733423,0 4.23335811,1.98117233 4.21116488,4.42498809 C3.37422414,4.55644029 2.5961808,4.81123561 1.94660211,5.1748631 C0.709756481,5.86626749 0,6.92172617 0,8.07065247 C0,9.21957878 0.709329689,10.2746107 1.94660211,10.9664418 C2.5961808,11.3296425 3.37379735,11.5844379 4.21073809,11.7158901 L4.21073809,13.732913 C3.37379735,13.864792 2.5961808,14.1191605 1.94660211,14.4823612 C0.709756481,15.1737656 0,16.2292243 0,17.3781506 C0,18.5270769 0.709329689,19.5821088 1.94660211,20.27394 C2.5961808,20.6371407 3.37379735,20.891936 4.21073809,21.0233882 L4.21073809,23.0643115 C3.430134,23.2017388 2.70586656,23.4479983 2.09427243,23.7898593 C0.857426802,24.4812637 0.14767032,25.5367224 0.14767032,26.6856487 C0.14767032,27.8341482 0.857000009,28.8896069 2.09427243,29.5814381 C2.70586656,29.9232991 3.430134,30.1695586 4.21073809,30.3069859 L4.21073809,33.8361358 C4.21073809,36.2983037 6.21410365,38.3016692 8.6762715,38.3016692 L30.5344665,38.3016692 C32.9966343,38.3016692 35,36.2983037 35,33.8361358 L35,4.46596021 C35.0004267,2.00336556 32.9970611,0 30.5344665,0 Z M3.59999755,8.49317738 C3.23210213,8.32758176 3.04943479,8.15985218 2.97944077,8.07022568 C3.04943479,7.98059919 3.23210213,7.8132964 3.59999755,7.64727398 C3.78607922,7.56362259 3.99136658,7.49320177 4.21073809,7.43686512 L4.21073809,8.70315945 C3.99179337,8.64724959 3.78607922,8.57682877 3.59999755,8.49317738 Z M3.59999755,17.8006755 C3.23210213,17.6350799 3.04943479,17.4673503 2.97944077,17.3777238 C3.04943479,17.2880973 3.23210213,17.1207945 3.59999755,16.9547721 C3.78607922,16.8711207 3.99136658,16.8006999 4.21073809,16.7443632 L4.21073809,18.0106576 C3.99179337,17.9547477 3.78607922,17.8847537 3.59999755,17.8006755 L3.59999755,17.8006755 Z M3.74809466,27.1086004 C3.38019924,26.9430048 3.19753191,26.7752752 3.12753788,26.6856487 C3.19753191,26.5960222 3.38019924,26.4287194 3.74809466,26.262697 C3.89149705,26.1982513 4.04684964,26.1414878 4.21073809,26.0928334 L4.21073809,27.2776103 C4.04684964,27.2298095 3.89149705,27.1730461 3.74809466,27.1086004 Z M32.0453131,33.8361358 C32.0453131,34.6692354 31.3675661,35.3469824 30.5344665,35.3469824 L8.6762715,35.3469824 C7.84317189,35.3469824 7.16542487,34.6692354 7.16542487,33.8361358 L7.16542487,26.0932602 C7.32931332,26.1419146 7.48466591,26.1982513 7.62806831,26.2631238 C8.05400755,26.4551806 8.23155337,26.6497981 8.27380586,26.7223529 C8.29301154,27.521309 8.94685816,28.1636323 9.75093586,28.1636323 C10.5669638,28.1636323 11.2284926,27.5021034 11.2284926,26.6860755 C11.2284926,25.537576 10.519163,24.4821173 9.28189053,23.7902861 C8.6702964,23.448425 7.94602897,23.2021656 7.16542487,23.0647383 L7.16542487,16.8318558 C7.27553743,16.8689867 7.38095526,16.9103856 7.48039799,16.9551989 C7.90633723,17.1472557 8.08388305,17.3418732 8.12613554,17.414428 C8.14534122,18.2133842 8.79918784,18.8557074 9.60326554,18.8557074 C10.4192934,18.8557074 11.0808223,18.1941785 11.0808223,17.3781506 C11.0808223,16.2296511 10.3714926,15.1741924 9.13422021,14.4823612 C8.56146423,14.1622666 7.88969231,13.9266769 7.16542487,13.7845549 L7.16542487,7.52435765 C7.27553743,7.56148862 7.38095526,7.60288753 7.48039799,7.64770078 C7.90633723,7.83975755 8.08388305,8.03437508 8.12613554,8.10692986 C8.14534122,8.90588605 8.79918784,9.54820926 9.60326554,9.54820926 C10.4192934,9.54820926 11.0808223,8.88668037 11.0808223,8.07065247 C11.0808223,6.92215296 10.3714926,5.86669428 9.13422021,5.1748631 C8.56146423,4.85476848 7.88969231,4.61917883 7.16542487,4.47705682 L7.16542487,4.46596021 C7.16542487,3.6328606 7.84317189,2.95511358 8.6762715,2.95511358 L30.5344665,2.95511358 C31.3675661,2.95511358 32.0453131,3.6328606 32.0453131,4.46596021 L32.0453131,33.8361358 Z" id="形状"></path>
                    <path d="M27.8490859,9.41761066 L14.2941456,9.41761066 C13.4781177,9.41761066 12.8165888,8.75608176 12.8165888,7.94005387 C12.8165888,7.12402597 13.4781177,6.46249708 14.2941456,6.46249708 L27.8490859,6.46249708 C28.6651138,6.46249708 29.3266427,7.12402597 29.3266427,7.94005387 C29.3266427,8.75608176 28.6651138,9.41761066 27.8490859,9.41761066 Z M27.8490859,16.9031302 L14.2941456,16.9031302 C13.4781177,16.9031302 12.8165888,16.2416013 12.8165888,15.4255734 C12.8165888,14.6095455 13.4781177,13.9480166 14.2941456,13.9480166 L27.8490859,13.9480166 C28.6651138,13.9480166 29.3266427,14.6095455 29.3266427,15.4255734 C29.3266427,16.2416013 28.6651138,16.9031302 27.8490859,16.9031302 Z M27.8490859,24.3886497 L14.2941456,24.3886497 C13.4781177,24.3886497 12.8165888,23.7271208 12.8165888,22.9110929 C12.8165888,22.095065 13.4781177,21.4335361 14.2941456,21.4335361 L27.8490859,21.4335361 C28.6651138,21.4335361 29.3266427,22.095065 29.3266427,22.9110929 C29.3266427,23.7271208 28.6651138,24.3886497 27.8490859,24.3886497 Z M27.8490859,31.8741692 L14.2941456,31.8741692 C13.4781177,31.8741692 12.8165888,31.2126403 12.8165888,30.3966124 C12.8165888,29.5805845 13.4781177,28.9190556 14.2941456,28.9190556 L27.8490859,28.9190556 C28.6651138,28.9190556 29.3266427,29.5805845 29.3266427,30.3966124 C29.3266427,31.2126403 28.6651138,31.8741692 27.8490859,31.8741692 Z" id="形状"></path>
                </g>
            </g>
        </g>
    </g>
</svg>