<?xml version="1.0" encoding="UTF-8"?>
<svg width="30px" height="40px" viewBox="0 0 30 40" version="1.1" xmlns="http://www.w3.org/2000/svg" xmlns:xlink="http://www.w3.org/1999/xlink">
    <title>播音室</title>
    <g id="页面-1" stroke="none" stroke-width="1" fill="none" fill-rule="evenodd">
        <g id="Features2" transform="translate(-295.000000, -2706.000000)" fill="#6367F1" fill-rule="nonzero">
            <g id="编组-4备份" transform="translate(120.000000, 2467.000000)">
                <g id="播音室" transform="translate(175.000000, 239.000000)">
                    <path d="M22.1051324,28.9165066 C24.1283404,28.8912428 25.7620652,27.1859374 25.7894343,25.0764114 L25.7894343,23.051098 L20.2629814,23.051098 C19.7646472,23.0688496 19.2823189,22.8736214 18.9366327,22.5142426 C18.5868348,22.1405902 18.4010951,21.6425044 18.4208305,21.1310504 C18.4208305,20.5710365 18.5934664,20.1099724 18.9366327,19.7478582 C19.2823189,19.3884793 19.7646472,19.1932512 20.2629814,19.2110028 L25.7894343,19.2110028 L25.7894343,13.4466493 L20.2629814,13.4466493 C19.7646472,13.4644009 19.2823189,13.2691727 18.9366327,12.9097939 C18.5868348,12.5361415 18.4010951,12.0380557 18.4208305,11.5266017 C18.4208305,10.9644825 18.5934664,10.5034184 18.9366327,10.1434095 C19.2819488,9.78325641 19.7643259,9.58724287 20.2629814,9.60444871 L25.7894343,9.60444871 L25.7894343,7.68440109 C25.7641705,5.57276976 24.1283404,3.86746431 22.1051324,3.84220052 L7.36792478,3.84220052 C5.34471669,3.86746431 3.70888665,5.57276976 3.68362287,7.68440109 L3.68362287,9.60444871 L9.21007572,9.60444871 C9.70839765,9.58911158 10.1900439,9.78482817 10.5364244,10.1434095 C10.8795908,10.5034184 11.0522267,10.9644825 11.0522267,11.5266017 C11.0719621,12.0380557 10.8862224,12.5361415 10.5364244,12.9097939 C10.1907382,13.2691727 9.70840992,13.4644009 9.21007572,13.4466493 L3.68362287,13.4466493 L3.68362287,19.2110028 L9.21007572,19.2110028 C9.70807904,19.1951179 10.1896775,19.3900506 10.5364244,19.7478582 C10.8795908,20.1099724 11.0522267,20.5689312 11.0522267,21.1310504 C11.0719621,21.6425044 10.8862224,22.1405902 10.5364244,22.5142426 C10.1907382,22.8736214 9.70840992,23.0688496 9.21007572,23.051098 L3.68362287,23.051098 L3.68362287,25.0764114 C3.71099198,27.1859374 5.34471669,28.8912428 7.36792478,28.9165066 L22.1051324,28.9165066 L22.1051324,28.9165066 Z M16.5786795,32.7587072 L16.5786795,36.1566862 L27.6315852,36.1566862 C28.1299071,36.1413491 28.6115534,36.3370656 28.9579339,36.6956469 C29.298995,37.0577612 29.4716309,37.5167199 29.4716309,38.0788391 C29.4913663,38.5902932 29.3056266,39.0883789 28.9558286,39.4620313 C28.6101425,39.8214102 28.1278141,40.0166383 27.6294799,39.9988868 L1.84357721,39.9988868 C1.34524301,40.0166383 0.862914684,39.8214102 0.517228529,39.4620313 C0.16743058,39.0883789 -0.0183091512,38.5902932 0.00142627881,38.0788391 C0.00142627881,37.5188253 0.174062156,37.0577612 0.517228529,36.6956469 C0.862544596,36.3354939 1.34492165,36.1394803 1.84357721,36.1566862 L12.8964829,36.1566862 L12.8964829,32.7587072 L7.36792478,32.7587072 C5.29418913,32.7208115 3.55730394,31.9671086 2.15937452,30.508125 C0.759339813,29.0491415 0.041427238,27.2343596 0.00142627881,25.0764114 L0.00142627881,7.68440109 C0.0372166237,5.52013691 0.759339813,3.71167099 2.15937452,2.25268743 C3.55940927,0.789493265 5.29629446,0.042106291 7.36792478,0 L22.1051324,0 C24.178868,0.0378956767 25.9157532,0.791598596 27.3136826,2.25268743 C28.7137173,3.71167099 29.4316299,5.52434752 29.4716309,7.68440109 L29.4716309,25.0743061 C29.4358405,27.2385703 28.7137173,29.0491415 27.3136826,30.508125 C25.9136479,31.9671086 24.1767627,32.7187062 22.1051324,32.7608125 L16.5786795,32.7608125 L16.5786795,32.7587072 Z" id="形状"></path>
                </g>
            </g>
        </g>
    </g>
</svg>