<?xml version="1.0" encoding="UTF-8"?>
<svg width="45px" height="40px" viewBox="0 0 45 40" version="1.1" xmlns="http://www.w3.org/2000/svg" xmlns:xlink="http://www.w3.org/1999/xlink">
    <title>教育 (1)</title>
    <g id="页面-1" stroke="none" stroke-width="1" fill="none" fill-rule="evenodd">
        <g id="Features2" transform="translate(-688.000000, -2706.000000)" fill="#6367F1" fill-rule="nonzero">
            <g id="编组-4备份" transform="translate(120.000000, 2467.000000)">
                <g id="教育-(1)" transform="translate(568.000000, 239.000000)">
                    <path d="M43.3372968,15.8122396 C44.3299218,15.2561304 44.8995912,14.3669018 44.9002037,13.3719226 C44.9007683,12.3766609 44.331711,11.4862552 43.338521,10.9289219 L24.8749986,0.570534587 C23.5188851,-0.190578379 21.3769865,-0.189683783 20.0267114,0.570252083 L1.56318909,10.9284039 C0.569386964,11.4850781 0,12.3755309 0,13.3710751 C0,14.3666193 0.57028156,15.2565071 1.56229449,15.8113921 L6.72256036,18.7066818 C6.71931156,18.751082 6.70923558,18.7934576 6.70923558,18.8387524 L6.70923558,32.6003717 C6.70923558,32.7022615 6.71775779,32.8017971 6.73423719,32.8990256 C7.08063423,37.5623197 14.8272717,40 22.4554928,40 C30.1685122,40 38.0029613,37.5075139 38.1849881,32.7417179 C38.1885665,32.6951518 38.1902615,32.6480678 38.1902615,32.6003246 L38.1902615,18.8387054 C38.1902615,18.7937401 38.1802797,18.7515058 38.1770309,18.707341 L43.3372026,15.8121454 L43.3372968,15.8122396 Z M21.798718,3.72605762 C21.8817742,3.67925612 22.1126741,3.60029624 22.4502665,3.60029624 C22.7454361,3.60029624 22.9904613,3.66362423 23.102945,3.72666971 L40.2921857,13.370463 L23.1023329,23.0151038 C23.0192767,23.0616699 22.7883767,23.1408652 22.4501723,23.1408652 C22.1544377,23.1408652 21.9093654,23.0775372 21.7974938,23.0148213 L4.60825304,13.3701805 L21.798718,3.72605762 Z M34.5710081,32.5072866 C34.5696898,32.5320057 34.5691718,32.5561598 34.5685597,32.580926 C34.5544345,33.9205131 29.944722,36.3806053 22.4555399,36.3806053 C14.9663578,36.3806053 10.3560802,33.9205131 10.3416725,32.580926 C10.340825,32.5143963 10.3363991,32.4489495 10.3287244,32.384209 L10.3287244,20.7299287 L20.0267585,26.171286 C20.7035911,26.5512069 21.5642867,26.760354 22.4503136,26.760354 C23.3369054,26.760354 24.197554,26.5509244 24.8738686,26.171286 L34.5710081,20.730682 L34.5710081,32.5073808 L34.5710081,32.5072866 Z" id="形状"></path>
                    <path d="M42.8300608,17.3071097 C41.8303731,17.3071097 41.0203399,18.1174255 41.0203399,19.1168306 L41.0203399,33.4839973 C41.0203399,34.4836849 41.8303261,35.2937181 42.8300608,35.2937181 C43.8297955,35.2937181 44.6397816,34.483732 44.6397816,33.4839973 L44.6397816,19.1167835 C44.6397816,18.1173784 43.8297955,17.3071097 42.8300608,17.3071097 Z" id="路径"></path>
                </g>
            </g>
        </g>
    </g>
</svg>