<?xml version="1.0" encoding="UTF-8"?>
<svg width="30px" height="36px" viewBox="0 0 30 36" version="1.1" xmlns="http://www.w3.org/2000/svg" xmlns:xlink="http://www.w3.org/1999/xlink">
    <title>YouTube (1)</title>
    <g id="页面-1" stroke="none" stroke-width="1" fill="none" fill-rule="evenodd">
        <g id="Features2" transform="translate(-292.000000, -3052.000000)" fill="#6367F1" fill-rule="nonzero">
            <g id="编组-4备份" transform="translate(120.000000, 2467.000000)">
                <g id="YouTube-(1)" transform="translate(172.000000, 585.000000)">
                    <path d="M30.0000036,26.0217673 C30.0000036,27.1726561 29.9292799,28.8746335 29.7878397,31.1276995 C29.7398242,32.2069262 29.2506277,33.2190569 28.4347677,33.9271588 C27.5992805,34.6279169 26.5478202,35.0193387 25.457481,35.0354983 C23.1345753,35.152876 19.6487495,35.2115649 15.0000036,35.2115649 C10.3266085,35.2115649 6.84078267,35.152876 4.54252629,35.0354983 C3.45264574,35.0197259 2.40161608,34.6282329 1.56700028,33.9271588 C0.749587213,33.219774 0.258766532,32.2075758 0.209526578,31.1276995 C0.0704339417,28.8734597 0.00059417935,27.1714823 3.62253576e-06,26.0217673 C-0.000579598169,24.8720522 0.0692601642,23.1700748 0.209526578,20.915835 C0.259209581,19.8363216 0.749971781,18.8245622 1.56700028,18.117256 C2.40182702,17.4164331 3.452659,17.0247028 4.54252629,17.0080362 C6.84254334,16.8906585 10.3283691,16.8319696 15.0000036,16.8319696 C19.6716382,16.8319696 23.1571705,16.8906585 25.4566007,17.0080362 C26.5470077,17.0246583 27.5984103,17.4163695 28.4338873,18.117256 C29.2494467,18.8252146 29.7386034,19.8369448 29.7869594,20.915835 C29.9295733,23.1700748 30.0000036,24.8720522 29.9991197,26.0217673 L30.0000036,26.0217673 Z M6.47925919,21.4440349 L8.62639172,21.4440349 L8.62639172,19.6833687 L2.32232611,19.6833687 L2.32232611,21.4440349 L4.43512564,21.4440349 L4.43512564,31.7624197 L6.47925919,31.7624197 L6.47925919,21.4449153 L6.47925919,21.4440349 Z M8.48465808,0 L11.0561112,0 L9.11937828,5.81019872 C9.0243023,6.09102499 8.90897866,6.41586792 8.76724502,6.77856517 C8.62551139,7.14126242 8.50314508,7.47138735 8.39574444,7.76365795 C8.28296119,8.07918167 8.19466636,8.4029294 8.1316445,8.73202441 L8.1316445,14.9295697 L5.59452439,14.9295697 L5.59452439,9.01461134 C5.30651186,7.99989627 4.96595038,7.00083757 4.57421828,6.02147867 L2.56793906,0 L5.13763149,0 L6.75656413,5.95017169 L6.93263076,5.95017169 L8.48289742,0 L8.48465808,0 Z M11.9716576,31.7633 L13.7666569,31.7633 L13.7666569,22.8534483 L11.9716576,22.8534483 L11.9716576,29.6126461 C11.716578,29.9776761 11.3210832,30.2200762 10.8800446,30.2816993 C10.5754493,30.2816993 10.421391,30.082744 10.421391,29.6839531 L10.421391,22.8534483 L8.59117839,22.8534483 L8.59117839,30.3530063 C8.59117839,31.3856371 9.0110973,31.9023926 9.85885811,31.9023926 C10.6898012,31.8397728 11.4563171,31.4312837 11.9716576,30.7764465 L11.9716576,31.7633 L11.9716576,31.7633 Z M17.4622954,6.4792519 L17.4622954,12.1838106 C17.5192808,13.0286694 17.1965236,13.8549277 16.5819623,14.4374635 C15.9076046,14.983848 15.0540301,15.2596907 14.1874562,15.2112763 C13.329347,15.2490491 12.4899983,14.9527527 11.84577,14.3846435 C11.2356983,13.8052247 10.9079338,12.9890269 10.9478302,12.1485973 L10.9478302,6.44403858 C10.9014396,5.62793326 11.2645369,4.84232274 11.9161967,4.34884571 C12.6074372,3.8531454 13.4429361,3.59940128 14.2930961,3.62697253 C15.1133188,3.60215523 15.9143878,3.87763029 16.5458686,4.40166569 C17.15461,4.91625212 17.4920764,5.68277819 17.4605348,6.4792519 L17.4622954,6.4792519 Z M15.1734293,12.3589969 L15.1734293,6.33751827 C15.1729419,6.10268742 15.0536829,5.88404589 14.8565093,5.7564984 C14.663477,5.61052681 14.4285775,5.53058075 14.1865758,5.52848057 C13.9547524,5.52736979 13.7299733,5.60811567 13.5518556,5.7564984 C13.371738,5.89495062 13.2676223,6.11036241 13.2710294,6.33751827 L13.2710294,12.3589969 C13.2346729,12.611135 13.3191971,12.8656706 13.4991563,13.0459761 C13.6791154,13.2262817 13.933488,13.3112953 14.1856955,13.2754237 C14.8435978,13.2754237 15.1725489,12.9699481 15.1725489,12.3589969 L15.1734293,12.3589969 Z M20.772348,29.8943527 L20.772348,24.9644872 C20.772348,23.4861144 20.1854593,22.746928 19.0116818,22.746928 C18.3793451,22.7674527 17.7874535,23.0629162 17.3909885,23.5559541 L17.3909885,19.6824883 L15.5616562,19.6824883 L15.5616562,31.7615393 L17.3901081,31.7615393 L17.3901081,31.0572728 C17.8254163,31.5598311 18.4534548,31.8541741 19.1182021,31.8671934 C20.2203792,31.8707006 20.7717611,31.2139721 20.772348,29.8969937 L20.772348,29.8943527 Z M18.9069221,25.0366745 L18.9069221,29.7191664 C18.9069221,30.2130333 18.6947618,30.4595266 18.2722019,30.4595266 C17.9381004,30.4563896 17.6199016,30.3163821 17.3918688,30.07218 L17.3918688,24.5084746 C17.5912063,24.2892558 17.8720766,24.1618769 18.1683226,24.1563413 C18.6604288,24.1563413 18.9078024,24.4512529 18.9078024,25.0366745 L18.9069221,25.0366745 Z M25.8078536,3.90867914 L25.8078536,14.93045 L23.5533204,14.93045 L23.5533204,13.6979836 C22.9134867,14.4978651 21.9698564,14.9956707 20.9484147,15.0721837 C19.8920149,15.0721837 19.363815,14.4145748 19.363815,13.0993571 L19.363815,3.90867914 L21.6157072,3.90867914 L21.6157072,12.3598773 C21.6157072,12.8519835 21.8137821,13.0984768 22.2152141,13.0984768 C22.7588361,13.014926 23.2432425,12.7091027 23.5524401,12.2542373 L23.5524401,3.90867914 L25.8078536,3.90867914 Z M27.4972129,29.2270602 L27.4972129,28.5562464 L25.6300263,28.5562464 C25.6300263,28.6046647 25.6361886,28.756082 25.6493936,29.0148999 C25.6617237,29.1972141 25.6617237,29.380153 25.6493936,29.5624671 C25.6285984,29.6988796 25.5991953,29.83384 25.5613603,29.9665401 C25.5270648,30.1110374 25.4388976,30.2369905 25.314867,30.3186733 C25.1630837,30.3967824 24.9931975,30.4329478 24.8227608,30.4234329 C24.6187616,30.4362353 24.419264,30.3597772 24.2760739,30.2139137 C24.1595133,30.1004557 24.0847437,29.9509164 24.0639136,29.7895931 C24.0499919,29.590957 24.0441182,29.3918386 24.046307,29.1927272 L24.046307,27.5016073 L27.4972129,27.5016073 L27.4972129,25.2488348 C27.5368645,24.5404901 27.2965803,23.8449306 26.8281597,23.3121019 C26.3228162,22.8189692 25.6321814,22.56306 24.9275205,22.6078353 C24.1958034,22.5836119 23.4828037,22.841767 22.9362069,23.3288282 C22.4037598,23.822347 22.1142147,24.5243331 22.1439071,25.2497151 L22.1439071,29.2297012 C22.1065969,29.9671373 22.3514884,30.6911099 22.8288063,31.2544674 C23.3388485,31.7801302 24.0529434,32.0569585 24.7840262,32.0124343 C26.5904698,32.0124343 27.4933981,31.0854435 27.4928112,29.2314619 L27.4972129,29.2270602 Z M25.6300263,25.1405538 L25.6300263,26.1282876 L24.0454266,26.1282876 L24.0454266,25.1405538 C24.0454266,24.5078877 24.3156889,24.1912612 24.8562135,24.1906743 C25.3720887,24.1906743 25.629146,24.5084746 25.629146,25.1405538 L25.6300263,25.1405538 Z" id="形状"></path>
                </g>
            </g>
        </g>
    </g>
</svg>