<?xml version="1.0" encoding="UTF-8"?>
<svg width="31px" height="30px" viewBox="0 0 31 30" version="1.1" xmlns="http://www.w3.org/2000/svg" xmlns:xlink="http://www.w3.org/1999/xlink">
    <title>访谈</title>
    <g id="页面-1" stroke="none" stroke-width="1" fill="none" fill-rule="evenodd">
        <g id="Use-Cases5" transform="translate(-753.000000, -1953.000000)" fill="#6367F1" fill-rule="nonzero">
            <g id="访谈" transform="translate(753.000000, 1953.000000)">
                <path d="M1.0196811,23.115264 C-0.414264304,24.764943 -0.325868617,27.24328 1.22196281,28.7866069 C2.76979424,30.3299338 5.24837838,30.4111062 6.89387117,28.9723589 L10.9052829,25.4865599 L4.5110084,19.1096357 L1.0196811,23.115264 Z M27.6539582,2.40671771 C25.6635268,0.419733139 22.7965802,-0.413844432 20.0510676,0.196143163 C17.3055549,0.806130759 15.0613105,2.77529335 14.0995285,5.4181895 L24.6367029,15.9265319 C27.2791228,14.9748795 29.2508821,12.7373542 29.8626278,9.99622453 C30.4743734,7.25509484 29.6410348,4.39154794 27.6539582,2.40671771 L27.6539582,2.40671771 Z M12.1852095,6.41821449 C11.3338529,5.56651775 10.0083393,5.49796697 9.24245855,6.26384765 L3.28806575,12.20072 C2.52252528,12.9667708 2.59116111,14.2867562 3.44243262,15.1380277 L14.8880326,26.5552208 C15.7395592,27.4068325 17.065243,27.4751281 17.8311237,26.7095026 L23.7854314,20.772205 C24.5509719,20.0067495 24.4823361,18.6865941 23.6310646,17.8353226 L12.1852095,6.41821449 Z M11.4767379,14.4352546 C11.0766314,14.8365231 10.4741039,14.9570546 9.95042276,14.7405835 C9.42674162,14.5241124 9.08517797,14.0133272 9.08517797,13.4466689 C9.08517797,12.8800105 9.42674162,12.3692253 9.95042276,12.1527542 C10.4741039,11.9362831 11.0766314,12.0568146 11.4767379,12.4580832 C12.0214125,13.0046044 12.0214125,13.8887333 11.4767379,14.4352546 Z M14.5281835,17.4751332 C14.1280879,17.8763423 13.5256102,17.9968354 13.0019817,17.7803674 C12.4783532,17.5638995 12.1368287,17.053156 12.1368287,16.4865475 C12.1368287,15.919939 12.4783532,15.4091956 13.0019817,15.1927276 C13.5256102,14.9762597 14.1280879,15.0967528 14.5281835,15.4979618 C15.0733256,16.0442898 15.0733256,16.9288053 14.5281835,17.4751332 L14.5281835,17.4751332 Z M17.5797992,20.5153521 C17.1787657,20.9163904 16.5756406,21.0363622 16.0516613,20.8193248 C15.5276821,20.6022873 15.1860381,20.0909825 15.1860381,19.5238322 C15.1860381,18.9566819 15.5276821,18.4453771 16.0516613,18.2283396 C16.5756406,18.0113022 17.1787657,18.131274 17.5797992,18.5323122 C17.8431403,18.7950812 17.991132,19.151816 17.991132,19.5238322 C17.991132,19.8958484 17.8431403,20.2525832 17.5797992,20.5153521 Z" id="形状"></path>
            </g>
        </g>
    </g>
</svg>