<?xml version="1.0" encoding="UTF-8"?>
<svg width="30px" height="30px" viewBox="0 0 30 30" version="1.1" xmlns="http://www.w3.org/2000/svg" xmlns:xlink="http://www.w3.org/1999/xlink">
    <title>合作-1</title>
    <g id="页面-1" stroke="none" stroke-width="1" fill="none" fill-rule="evenodd">
        <g id="Use-Cases5" transform="translate(-748.000000, -2216.000000)" fill="#6367F1" fill-rule="nonzero">
            <g id="合作-1" transform="translate(748.000000, 2216.000000)">
                <path d="M11.6663444,10.6055566 C11.6663444,11.5744336 12.4474577,12.3633398 13.406901,12.3633398 C13.8363639,12.3633398 14.2480143,12.2044336 14.5669108,11.916123 C14.8223269,11.6866843 15.1887404,11.6287958 15.5024479,11.7683203 C15.8163639,11.91 16.017487,12.2238867 16.017487,12.5711133 L16.017487,16.0000195 C16.3129781,15.9195308 16.6178802,15.8787911 16.9241374,15.878877 C18.8441374,15.878877 20.4052506,17.4555469 20.4052506,19.3944434 C20.4052506,21.3333398 18.8441374,22.9100098 16.9241374,22.9100098 C16.6130045,22.9100098 16.3119206,22.8544336 16.0174577,22.7744531 L16.0174577,30 L22.145778,30 C22.6269206,30 23.0374577,29.6066602 23.0374577,29.1210938 L23.0374577,24.667793 L25.6269206,24.667793 C26.1080045,24.667793 26.5185709,24.2750391 26.5185709,23.788916 L26.5185709,19.3944434 L29.1296842,19.3944434 C29.4185514,19.3944434 29.6880241,19.2494238 29.8502409,19.0083105 C30.0113737,18.7671973 30.0446842,18.4599902 29.9374577,18.1894629 L27.6241178,12.4033301 L27.6241178,9.72667969 C27.6241178,4.39555664 23.329694,0 18.0519206,0 L16.0174577,0 L16.0174577,8.64 C16.0174577,8.98666992 15.8163639,9.30111328 15.5024479,9.44276367 C15.1888832,9.58333224 14.8218832,9.52536248 14.5669108,9.29499023 C14.2491828,9.00705579 13.8356869,8.84764135 13.406901,8.84777344 C12.4474577,8.84777344 11.6663444,9.63667969 11.6663444,10.6055566 L11.6663444,10.6055566 Z" id="路径"></path>
                <path d="M0.868043605,19.3944434 L3.53192056,19.3944434 L3.53192056,23.7888867 C3.53192056,24.2750098 3.92025064,24.667793 4.40025064,24.667793 L7.00579751,24.667793 L7.00579751,29.1210938 C7.00579751,29.6066309 7.39412759,29.9999707 7.87412759,29.9999707 L13.9541081,29.9999707 L13.9541081,21.3266602 C13.9541081,20.5988965 14.8630143,20.1644531 15.4135612,20.6827734 C15.7357975,20.9861133 16.1557975,21.1522266 16.5958073,21.1522266 C17.5535807,21.1522266 18.3330241,20.3633203 18.3330241,19.3944434 C18.3330241,18.4255664 17.5535807,17.6366602 16.5958073,17.6366602 C16.1557682,17.6366602 15.7357975,17.8033594 15.4135612,18.1061133 C15.1618211,18.3434392 14.7925999,18.4073061 14.4757682,18.2683301 C14.1575752,18.1268768 13.9528116,17.8110004 13.9535807,17.4627832 L13.9535807,14.0094434 C13.6701255,14.0838108 13.3782697,14.1213464 13.0852213,14.121123 C11.1696745,14.121123 9.61134439,12.5444531 9.61134439,10.6055566 C9.61134439,8.66666016 11.1696745,7.08999023 13.0852506,7.08999023 C13.3813542,7.08999023 13.6724479,7.1277832 13.9541374,7.20111328 L13.9541374,0 L11.960778,0 C6.69305337,0 2.40694985,4.39555664 2.40694985,9.72667969 L2.40694985,12.4033301 L0.061940089,18.1894629 C-0.0448011187,18.46023 -0.0122222649,18.7661014 0.149156886,19.0083105 C0.310817042,19.2494238 0.579703761,19.3944434 0.868043605,19.3944434 Z" id="路径"></path>
            </g>
        </g>
    </g>
</svg>