<?xml version="1.0" encoding="UTF-8"?>
<svg width="129px" height="128px" viewBox="0 0 129 128" version="1.1" xmlns="http://www.w3.org/2000/svg" xmlns:xlink="http://www.w3.org/1999/xlink">
    <title>编组</title>
    <g id="页面-1" stroke="none" stroke-width="1" fill="none" fill-rule="evenodd">
        <g id="Use-Cases5" transform="translate(-975.000000, -892.000000)" fill-rule="nonzero">
            <g id="编组" transform="translate(975.506836, 892.006836)">
                <g id="循环" transform="translate(63.993164, 63.993164) rotate(-45.000000) translate(-63.993164, -63.993164) translate(21.493164, 15.993164)" fill="#6367F1">
                    <path d="M43.0000401,5.88239808 L43.0000401,0 L22,11.1764499 L43.00004,22.3528999 L43.0000401,16.4706231 C60.325031,16.4706231 74.5001001,30.7647693 74.5001001,48.2352981 C74.5001001,53.5293499 72.9250791,58.8235231 70.8250511,63.0588615 L78.7000361,71 C82.3750851,64.1176962 85,56.7058538 85,48.2352981 C85,24.9411789 66.1001081,5.88239808 43.0000401,5.88239808 Z M10.4998799,47.7647019 C10.4998799,42.4705288 12.0748979,37.1764769 14.1749219,32.9411385 L6.29995192,25 C2.62490987,31.8823038 -4.54747351e-13,39.2941462 -4.54747351e-13,47.7647019 C-4.54747351e-13,71.0588211 18.899976,90.1176019 42,90.1176019 L42,96 L63,84.8235501 L42,73.6471001 L42,79.5293769 C24.674922,79.5293769 10.4998799,65.2352307 10.4998799,47.7647019 Z" id="形状"></path>
                </g>
                <g id="编组-3" transform="translate(43.493164, 42.993164)">
                    <path d="M21.0015025,0 C9.40749905,0.0115956926 0.0115948403,9.4081722 0,21.0030052 C0.0149093504,32.5966628 9.41167386,41.9900665 21.0045074,42 C32.5938206,41.9850994 41.9851005,32.5931476 42,21.0030052 C41.9884081,9.40934402 32.5943323,0.0132516881 21.0015025,0 Z" id="路径" fill="#6367F1"></path>
                    <path d="M29.0622041,27.6723869 L22.2744324,23.3905754 L22.2744324,11.7129078 C22.2380525,10.7556338 21.5158093,10 20.6372162,10 C19.758623,10 19.0363798,10.7556338 19,11.7129078 L19,24.2089316 C19,24.8709726 19.75326,25.4257385 20.2451275,25.7322389 C20.3800397,25.9559843 20.753859,26.1582746 20.9815234,26.2992648 L27.7327564,30.7619115 C28.5169338,31.2523123 29.3629459,30.9611368 29.815464,30.1090656 C30.2651715,29.2569943 29.8463814,28.1658526 29.0622041,27.6723869 L29.0622041,27.6723869 Z" id="路径" fill="#FFFFFF"></path>
                </g>
            </g>
        </g>
    </g>
</svg>