<?xml version="1.0" encoding="UTF-8"?>
<svg width="28px" height="30px" viewBox="0 0 28 30" version="1.1" xmlns="http://www.w3.org/2000/svg" xmlns:xlink="http://www.w3.org/1999/xlink">
    <title>资金池账簿支付限额设置</title>
    <g id="页面-1" stroke="none" stroke-width="1" fill="none" fill-rule="evenodd">
        <g id="Use-Cases5" transform="translate(-939.000000, -376.000000)" fill="#6367F1" fill-rule="nonzero">
            <g id="资金池账簿支付限额设置" transform="translate(939.000000, 376.000000)">
                <path d="M10.084464,25.1538462 L11.0225537,25.1538462 L11.0225537,25.4615385 C10.9443795,25.6923077 10.9443795,25.8461538 10.9443795,26.0769231 L10.9443795,27.4615385 L10.084464,27.4615385 C4.5341001,27.4615385 0.0781741396,24.9230769 0.0781741396,21.6923077 L0.0781741396,19.3846154 C0.0781741396,22.6153846 4.5341001,25.1538462 10.084464,25.1538462 L10.084464,25.1538462 Z M10.084464,21.1538462 L11.0225537,21.1538462 L11.0225537,21.4615385 C10.9443795,21.6923077 10.9443795,21.8461538 10.9443795,22.0769231 L10.9443795,23.4615385 L10.084464,23.4615385 C4.5341001,23.4615385 0.0781741396,20.9230769 0.0781741396,17.6923077 L0.0781741396,15.3846154 C0.0781741396,18.6153846 4.5341001,21.1538462 10.084464,21.1538462 L10.084464,21.1538462 Z M10.084464,13.1538462 C15.6348279,13.1538462 20.0907539,10.6153846 20.0907539,7.46153846 L20.0907539,9.69230769 C20.0907539,11.0769231 19.2308384,12.3076923 17.901878,13.3076923 C16.4947435,13.6923077 15.2439572,14.2307692 14.2276934,14.9230769 C12.9769072,15.2307692 11.5697727,15.4615385 10.0062899,15.4615385 C4.45592596,15.4615385 0,12.9230769 0,9.69230769 L0,7.38461538 C0.0781741396,10.6153846 4.5341001,13.1538462 10.084464,13.1538462 L10.084464,13.1538462 Z M10.084464,17.1538462 C10.7880313,17.1538462 11.4134244,17.0769231 12.0388175,17.0769231 C11.4915985,17.7692308 11.178902,18.6153846 11.0225537,19.4615385 L10.084464,19.4615385 C4.5341001,19.4615385 0.0781741396,16.9230769 0.0781741396,13.6923077 L0.0781741396,11.3846154 C0.0781741396,14.6153846 4.5341001,17.1538462 10.084464,17.1538462 Z M10.084464,0 C15.6348279,0 20.0907539,2.53846154 20.0907539,5.76923077 C20.0907539,9 15.5566538,11.5384615 10.084464,11.5384615 C4.5341001,11.5384615 0.0781741396,9 0.0781741396,5.76923077 C0.0781741396,2.53846154 4.5341001,0 10.084464,0 Z M20.5,15 C23.1794918,15 25.6554445,16.4294919 26.9951905,18.75 C28.3349365,21.0705081 28.3349365,23.9294919 26.9951905,26.25 C25.6554445,28.5705081 23.1794918,30 20.5,30 C16.3578643,30 13,26.6421356 13,22.5 C13,18.3578644 16.3578643,15 20.5,15 Z M15.9999968,22.5 C15.9997727,24.0453177 16.7924834,25.4826624 18.0995861,26.3069739 C19.4066888,27.1312855 21.0453288,27.2272484 22.4397141,26.5611428 L16.438857,20.5602857 C16.1491875,21.1658442 15.9992116,21.8287259 15.9999968,22.5 L15.9999968,22.5 Z M20.4999998,17.9999969 C19.8287257,17.9992117 19.1658441,18.1491876 18.5602856,18.4388572 L24.5611427,24.4397143 C25.2272482,23.045329 25.1312853,21.406689 24.3069738,20.0995863 C23.4826622,18.7924836 22.0453176,17.9997728 20.4999998,17.9999969 Z" id="形状"></path>
            </g>
        </g>
    </g>
</svg>