<?xml version="1.0" encoding="UTF-8"?>
<svg width="28px" height="30px" viewBox="0 0 28 30" version="1.1" xmlns="http://www.w3.org/2000/svg" xmlns:xlink="http://www.w3.org/1999/xlink">
    <title>文件-文档限制</title>
    <g id="页面-1" stroke="none" stroke-width="1" fill="none" fill-rule="evenodd">
        <g id="Use-Cases5" transform="translate(-544.000000, -376.000000)" fill="#6367F1" fill-rule="nonzero">
            <g id="文件-文档限制" transform="translate(544.000000, 376.000000)">
                <path d="M21.3496932,17.1165644 C23.6510974,17.1165644 25.7776825,18.3443488 26.9283846,20.3374233 C28.0790867,22.3304977 28.0790867,24.7860667 26.9283846,26.7791411 C25.7776825,28.7722156 23.6510974,30 21.3496932,30 C17.7920308,30 14.9079756,27.1159447 14.9079756,23.5582822 C14.9079756,20.0006198 17.7920308,17.1165644 21.3496932,17.1165644 Z M16.4488344,0 C17.2300313,0 17.9792275,0.310349061 18.5315337,0.862822097 L22.6954601,5.02674846 C23.2479331,5.57905467 23.5582822,6.32825095 23.5582822,7.10944785 L23.5582822,15.0022086 C22.8367317,14.8168661 22.0946675,14.723366 21.3496932,14.7239264 C16.4709202,14.7239264 12.5153374,18.6795092 12.5153374,23.5582822 C12.5153374,25.8213497 13.3663804,27.8856442 14.7651534,29.4478528 L2.9447853,29.4478528 C2.16377967,29.4478528 1.41476201,29.1375995 0.862507634,28.5853451 C0.310253262,28.0330908 0,27.2840731 0,26.5030675 L0,2.9447853 C0,2.16377967 0.310253262,1.41476201 0.862507634,0.862507634 C1.41476201,0.310253262 2.16377967,0 2.9447853,0 L16.4488344,0 L16.4488344,0 Z M17.4846599,23.5582822 C17.4844675,24.885549 18.1653233,26.1200781 19.2879882,26.8280758 C20.4106531,27.5360734 21.818074,27.6184955 23.0157055,27.0463803 L17.8615951,21.8922699 C17.6127992,22.4123816 17.4839855,22.9817277 17.4846599,23.5582822 L17.4846599,23.5582822 Z M21.3496932,19.6932489 C20.7731388,19.6925745 20.2037926,19.8213881 19.683681,20.0701841 L24.8377914,25.2242945 C25.4099066,24.0266629 25.3274845,22.619242 24.6194868,21.4965771 C23.9114892,20.3739122 22.67696,19.6930564 21.3496932,19.6932489 Z M17.3006135,1.99288344 C17.1228278,1.99282419 16.9704064,2.11984202 16.9384049,2.29472392 L16.9325153,2.36098159 L16.9325153,6.99386504 C16.9324561,7.17165079 17.0594739,7.3240722 17.2343558,7.35607363 L17.3006135,7.36196321 L21.9334969,7.36196321 C22.0702438,7.3618226 22.1956425,7.28588769 22.2591344,7.16477411 C22.3226264,7.04366053 22.3137459,6.89733186 22.2360736,6.78478527 L22.1933742,6.73325154 L17.561227,2.10110432 C17.4921815,2.03184248 17.3984117,1.99288344 17.3006135,1.99288344 Z" id="形状"></path>
            </g>
        </g>
    </g>
</svg>