<?xml version="1.0" encoding="UTF-8"?>
<svg width="36px" height="30px" viewBox="0 0 36 30" version="1.1" xmlns="http://www.w3.org/2000/svg" xmlns:xlink="http://www.w3.org/1999/xlink">
    <title>上传限制</title>
    <g id="页面-1" stroke="none" stroke-width="1" fill="none" fill-rule="evenodd">
        <g id="Use-Cases5" transform="translate(-149.000000, -376.000000)" fill="#6367F1" fill-rule="nonzero">
            <g id="上传限制" transform="translate(149.000000, 376.000000)">
                <path d="M17.645702,0.000370151866 C14.9389754,0.0300993922 12.3193152,0.960858025 10.2006081,2.64559317 C10.2006081,2.64559317 32.9532316,25.2985134 33.1411677,25.4043929 C34.4770141,24.0253124 35.2931686,22.2791828 35.2931686,20.2798249 C35.2931686,17.0787345 33.0838163,14.3743954 29.9991933,13.1170763 L29.9991933,12.3441559 C30.0521331,5.58022011 24.3346398,-0.052569601 17.6474666,0.000370151866 L17.645702,0.000370151866 Z M5.29309298,3.52792237 C4.84222276,3.52792237 4.36929429,3.67880066 4.02518589,4.02290906 C3.33723504,4.72820281 3.33723504,5.85342947 4.02518589,6.55872322 L6.12160011,8.65160813 C5.9910154,9.039833 5.82690216,9.39805865 5.73513991,9.80834173 C2.31170257,11.2474207 0,14.4529227 0,18.2963488 C0,23.6000297 4.19635773,28.2146115 9.37298325,28.2146115 L25.6960737,28.2146115 L26.9666278,29.4851655 C27.6721907,30.1716115 28.7959968,30.1716115 29.5015597,29.4851655 C30.1917025,28.779736 30.1917025,27.6521339 29.5015597,26.9467044 L6.56276473,4.02379137 C6.22152512,3.69824285 5.76550977,3.52065691 5.29397529,3.52968704 L5.29397529,3.52704005 L5.29309298,3.52792237 Z" id="形状"></path>
            </g>
        </g>
    </g>
</svg>