<?xml version="1.0" encoding="UTF-8"?>
<svg width="41px" height="31px" viewBox="0 0 41 31" version="1.1" xmlns="http://www.w3.org/2000/svg" xmlns:xlink="http://www.w3.org/1999/xlink">
    <title>博士帽</title>
    <g id="页面-1" stroke="none" stroke-width="1" fill="none" fill-rule="evenodd">
        <g id="Use-Cases5" transform="translate(-753.000000, -2467.000000)" fill="#6367F1" fill-rule="nonzero">
            <g id="博士帽" transform="translate(753.095895, 2467.500000)">
                <path d="M40.0513154,8.38461003 L20.7330439,0.0766247939 C20.6167088,0.0262647303 20.4913155,0 20.3645483,0 C20.2391622,0 20.1140084,0.025541598 19.9951239,0.0766247939 L0.677084543,8.38461003 C0.269812153,8.55898948 8.24927132e-16,9.00387768 8.24927132e-16,9.49984907 C8.24927132e-16,9.99674925 0.269812153,10.4404765 0.677084543,10.6157847 L19.9948917,18.9240021 C20.2300941,19.026946 20.4976093,19.026946 20.7328117,18.9240021 L35.7524323,12.464532 L35.7524323,19.07284 C34.9474075,19.4991525 34.3880465,20.4265447 34.3880465,21.5048645 C34.3880465,22.5834165 34.9474075,23.5105765 35.7524323,23.936889 L35.7524323,26.2421343 L37.7307451,26.2421343 L37.7307451,23.9373534 C38.5362342,23.5110409 39.0960596,22.5836487 39.0960596,21.5048645 C39.0960596,20.4260803 38.5362342,19.4986881 37.7307451,19.0723756 L37.7307451,11.6137646 L40.0510832,10.6157847 C40.4581234,10.4404765 40.7279355,9.99651705 40.7279355,9.49984907 C40.7279355,9.00387768 40.4581234,8.55898948 40.0510832,8.38461003 L40.0513154,8.38461003 Z M20.3645483,20.5914041 C20.0676226,20.5911021 19.7739019,20.5300189 19.5014744,20.4119163 L7.458611,15.2320802 L7.458611,22.3839599 C7.458611,28.2415771 16.2412056,30 18.9871595,30 L21.739615,30 C23.7966424,30 33.2690923,28.2415771 33.2690923,22.3839599 L33.2690923,15.2323124 L21.2257645,20.4119163 C20.9539194,20.5300534 20.6607213,20.5911429 20.3643161,20.5914041 L20.3645483,20.5914041 Z" id="形状"></path>
            </g>
        </g>
    </g>
</svg>