<?xml version="1.0" encoding="UTF-8"?>
<svg width="33px" height="30px" viewBox="0 0 33 30" version="1.1" xmlns="http://www.w3.org/2000/svg" xmlns:xlink="http://www.w3.org/1999/xlink">
    <title>建筑</title>
    <g id="页面-1" stroke="none" stroke-width="1" fill="none" fill-rule="evenodd">
        <g id="Use-Cases5" transform="translate(-158.000000, -2465.000000)" fill="#6367F1" fill-rule="nonzero">
            <g id="建筑" transform="translate(158.000000, 2465.000000)">
                <path d="M16.390625,0 L30.984375,6.21315788 L30.984375,10.588421 L1.81250001,10.588421 L1.81250001,6.21315788 L16.390625,0 Z M0,26.4726316 L32.8125,26.4726316 L32.8125,30 L0,30 L0,26.4726316 Z M3.62499999,9.24631579 L7.28125001,9.24631579 L7.28125001,26.6652632 L3.62499999,26.6652632 L3.62499999,9.24631579 Z M10.921875,9.24631579 L14.578125,9.24631579 L14.578125,26.6652632 L10.921875,26.6652632 L10.921875,9.24631579 L10.921875,9.24631579 Z M18.21875,9.24631579 L21.859375,9.24631579 L21.859375,26.6652632 L18.21875,26.6652632 L18.21875,9.24631579 Z M25.515625,9.24631579 L29.15625,9.24631579 L29.15625,26.6652632 L25.515625,26.6652632 L25.515625,9.24631579 Z" id="形状"></path>
            </g>
        </g>
    </g>
</svg>