<?xml version="1.0" encoding="UTF-8"?>
<svg width="39px" height="30px" viewBox="0 0 39 30" version="1.1" xmlns="http://www.w3.org/2000/svg" xmlns:xlink="http://www.w3.org/1999/xlink">
    <title>讨论 (1)</title>
    <g id="页面-1" stroke="none" stroke-width="1" fill="none" fill-rule="evenodd">
        <g id="Use-Cases5" transform="translate(-154.000000, -1953.000000)" fill="#6367F1" fill-rule="nonzero">
            <g id="讨论-(1)" transform="translate(154.000000, 1953.000000)">
                <path d="M36.7465943,1.62013252 C28.5723992,0.182071001 20.2587645,-0.301084706 11.9730134,0.180389565 C11.1288465,0.229260671 10.48163,0.856277046 10.5345737,1.55953233 L11.6470431,16.9081565 C11.6999868,17.6115747 12.3151112,18.1441069 13.0144568,18.1038697 C16.9702372,17.8741977 20.9369218,17.9082112 24.888182,18.2056845 C24.8808514,18.2477136 24.8751498,18.2900686 24.8717288,18.3332381 L24.6262329,21.5939187 C24.5747553,22.2974998 24.9447096,22.4942875 25.4604628,22.038157 C26.7782772,20.8745765 28.133197,19.7537076 29.5231183,18.6772907 C30.8989183,18.8534892 32.2704008,19.0619002 33.6364368,19.3023522 C34.3291034,19.4238784 35.0038505,18.9664448 35.1375944,18.2741041 L38.0214787,3.15778056 C38.1552227,2.46511401 37.5827791,1.76707162 36.7465943,1.62013252 L36.7465943,1.62013252 Z M19.3066124,10.906784 C18.1320767,10.8927743 17.1668722,10.0160266 17.1507448,8.91805558 C17.1346173,7.82089913 18.1205106,6.91678355 19.3528771,6.93160779 C20.5857323,6.94545462 21.5510996,7.87221379 21.5090705,8.96888151 C21.4675301,10.0662009 20.4817998,10.9199792 19.3066124,10.906784 Z M30.9068223,9.73974187 C30.7603719,10.8282644 29.6951446,11.5831602 28.5258218,11.4572356 C27.3558474,11.3303337 26.4777964,10.3652921 26.5670676,9.27090499 C26.6561759,8.17716952 27.725313,7.37193651 28.9529553,7.50486595 C30.179946,7.63714375 31.0535986,8.65219674 30.9068223,9.73974187 L30.9068223,9.73974187 Z" id="形状"></path>
                <path d="M23.4220487,21.2834242 C23.3809969,21.9573568 23.3399452,22.6312895 23.2985677,23.3052221 C23.2527917,24.051321 23.0778332,24.9427301 22.9126488,25.2864569 C22.7455096,25.6274144 21.4175186,25.8489634 20.740165,25.8315327 C17.9030076,25.7424247 15.0631305,25.8019116 12.2321932,26.0097494 C11.5543509,26.059435 11.0035735,26.1286691 11.0073203,26.1516385 C11.0109042,26.1749337 11.0718301,26.8465857 11.1378061,27.5913815 L11.1863514,28.1398782 C11.2520016,28.8846739 11.2436935,29.6974005 11.1689208,29.9455029 C11.0952883,30.1927907 10.1447452,29.5452485 9.62280169,29.0725019 C9.01373042,28.5153571 8.39564648,27.9681456 7.76879462,27.4310842 C7.23007205,26.9666457 6.22674816,26.6716271 5.55265263,26.7791436 C5.47397014,26.7913613 5.39545055,26.803742 5.31676805,26.8164485 C4.64430158,26.9229875 3.81398139,26.9383005 3.46748522,26.8412099 C3.12359548,26.742979 2.59138911,25.3716556 2.44966287,24.6372857 L0.0756671623,12.19242 C-0.066059047,11.458213 -0.0241928245,9.97660383 0.334358246,9.749679 C0.689977035,9.52226541 1.65436695,9.21926455 2.47589034,9.08894158 C4.69819875,8.73279565 6.93197646,8.45233057 9.17335035,8.24803262 L9.29683138,9.60208823 L10.1325274,18.7707974 C10.202576,19.5154303 10.8528875,20.0694658 11.5786236,20.0147301 C15.5472605,19.713781 19.5318202,19.684281 23.504478,19.9264363 L23.4220487,21.2834242 L23.4220487,21.2834242 Z" id="路径"></path>
            </g>
        </g>
    </g>
</svg>