<?xml version="1.0" encoding="UTF-8"?>
<svg width="16px" height="16px" viewBox="0 0 16 16" version="1.1" xmlns="http://www.w3.org/2000/svg" xmlns:xlink="http://www.w3.org/1999/xlink">
    <title>删除 (2)</title>
    <g id="页面-1" stroke="none" stroke-width="1" fill="none" fill-rule="evenodd" fill-opacity="0.967708561">
        <g id="游客模式" transform="translate(-1032.000000, -253.000000)" fill="#9334EB" fill-rule="nonzero">
            <g id="编组-4" transform="translate(323.000000, 96.000000)">
                <g id="删除-(2)" transform="translate(717.000000, 165.000000) scale(1, -1) translate(-717.000000, -165.000000) translate(709.000000, 157.000000)">
                    <path d="M8.59885523,0.0228365901 C3.72572794,-0.342878638 -0.342830489,3.73484615 0.0228826282,8.59885869 C0.315453122,12.5211545 3.46972876,15.6845912 7.40114477,15.9771634 C12.2742721,16.3428786 16.3428305,12.2651538 15.9771174,7.40114131 C15.6845469,3.47884549 12.5211284,0.315408772 8.59885523,0.0228365901 Z M11.2502753,11.2045797 C11.0308475,11.4240088 10.6742772,11.4240088 10.4457065,11.2045797 L7.99542859,8.80914494 L5.60000767,11.2045797 C5.3805798,11.4240088 5.01486668,11.4240088 4.79543881,11.2045797 C4.57601094,10.9851505 4.57601094,10.6194353 4.79543881,10.4000062 L7.20000256,8.00457144 L4.74058184,5.55427941 C4.52115397,5.33485028 4.52115397,4.96913505 4.74058184,4.74970591 C4.96000971,4.53027677 5.32572283,4.53027677 5.5451507,4.74970591 L7.94057162,7.14514065 L10.363421,4.72227727 C10.5737061,4.51199101 10.9119907,4.50284813 11.1405614,4.69484863 L11.1954184,4.74970591 C11.4422747,4.96913505 11.4514175,5.34399316 11.2228468,5.58170806 L8.79999744,8.00457144 L11.2411325,10.4000062 C11.4697032,10.6194353 11.4697032,10.9851505 11.2502753,11.2045797 L11.2502753,11.2045797 Z" id="形状"></path>
                </g>
            </g>
        </g>
    </g>
</svg>