<?xml version="1.0" encoding="UTF-8"?>
<svg width="113px" height="32px" viewBox="0 0 113 32" version="1.1" xmlns="http://www.w3.org/2000/svg" xmlns:xlink="http://www.w3.org/1999/xlink">
    <title>编组 17</title>
    <defs>
        <linearGradient x1="8.41594225%" y1="50%" x2="92.3900041%" y2="50%" id="linearGradient-1">
            <stop stop-color="#3470FF" offset="0%"></stop>
            <stop stop-color="#9534E6" offset="100%"></stop>
        </linearGradient>
    </defs>
    <g id="页面-1" stroke="none" stroke-width="1" fill="none" fill-rule="evenodd">
        <g id="AI转录官网静态版-黑色" transform="translate(-84.000000, -19.000000)">
            <g id="编组-17" transform="translate(84.000000, 19.000000)">
                <text id="Scribify" font-family="PingFangSC-Semibold, PingFang SC" font-size="20" font-weight="500" fill="#FFFFFF">
                    <tspan x="40" y="23">Scribify</tspan>
                </text>
                <g id="编组-14备份">
                    <rect id="矩形备份-27" fill="url(#linearGradient-1)" x="0" y="0" width="32" height="32" rx="16"></rect>
                    <g id="编组-10备份-4" transform="translate(7.142857, 7.126028)" fill="#FFFFFF">
                        <g id="编组-13" transform="translate(0.285714, 6.857143)">
                            <path d="M4.20886341,5.76569288 L14.198274,5.7383835 C15.327254,5.73529706 16.2449752,6.64801415 16.2480617,7.77699418 C16.2485465,7.95435173 16.2259481,8.13101826 16.1808356,8.30254317 C15.7823124,9.81779202 14.4124296,10.8739717 12.8456495,10.8739717 L2.66478624,10.8739717 C1.57261131,10.8739717 0.687228596,9.98858903 0.687228596,8.8964141 C0.687228596,8.70230682 0.71580668,8.5092571 0.772043562,8.32347484 C1.23077011,6.80804138 2.62552835,5.77002146 4.20886341,5.76569288 Z" id="矩形备份-22" transform="translate(8.428571, 8.302543) scale(-1, -1) translate(-8.428571, -8.302543) "></path>
                            <path d="M12.0308956,0 C14.9348401,0 17.3065847,2.2770709 17.4557156,5.14194746 L15.1758894,5.14285714 L15.1756335,5.146 L15.1661103,5.14631662 C12.2881916,5.22213709 9.99704624,6.5347339 9.99704624,8.14285714 C9.99704624,9.29049472 11.163919,10.2876217 12.878194,10.7921315 C12.602753,10.8346595 12.3194517,10.8571429 12.0308956,10.8571429 C9.03074005,10.8571429 6.59863346,8.42668864 6.59863346,5.42857143 C6.59863346,2.43045422 9.03074005,0 12.0308956,0 Z" id="形状结合备份-3" transform="translate(12.027205, 5.428571) scale(-1, -1) translate(-12.027205, -5.428571) "></path>
                        </g>
                        <g id="编组-13" transform="translate(8.727888, 5.436986) scale(-1, -1) translate(-8.727888, -5.436986) ">
                            <path d="M4.20886341,5.76569288 L14.198274,5.7383835 C15.327254,5.73529706 16.2449752,6.64801415 16.2480617,7.77699418 C16.2485465,7.95435173 16.2259481,8.13101826 16.1808356,8.30254317 C15.7823124,9.81779202 14.4124296,10.8739717 12.8456495,10.8739717 L2.66478624,10.8739717 C1.57261131,10.8739717 0.687228596,9.98858903 0.687228596,8.8964141 C0.687228596,8.70230682 0.71580668,8.5092571 0.772043562,8.32347484 C1.23077011,6.80804138 2.62552835,5.77002146 4.20886341,5.76569288 Z" id="矩形备份-22" transform="translate(8.428571, 8.302543) scale(-1, -1) translate(-8.428571, -8.302543) "></path>
                            <path d="M12.0308956,0 C14.9348401,0 17.3065847,2.2770709 17.4557156,5.14194746 L15.1758894,5.14285714 L15.1756335,5.146 L15.1661103,5.14631662 C12.2881916,5.22213709 9.99704624,6.5347339 9.99704624,8.14285714 C9.99704624,9.29049472 11.163919,10.2876217 12.878194,10.7921315 C12.602753,10.8346595 12.3194517,10.8571429 12.0308956,10.8571429 C9.03074005,10.8571429 6.59863346,8.42668864 6.59863346,5.42857143 C6.59863346,2.43045422 9.03074005,0 12.0308956,0 Z" id="形状结合备份-3" transform="translate(12.027205, 5.428571) scale(-1, -1) translate(-12.027205, -5.428571) "></path>
                        </g>
                    </g>
                </g>
            </g>
        </g>
    </g>
</svg>