<?xml version="1.0" encoding="UTF-8"?>
<svg width="14px" height="12px" viewBox="0 0 14 12" version="1.1" xmlns="http://www.w3.org/2000/svg" xmlns:xlink="http://www.w3.org/1999/xlink">
    <title>路径</title>
    <g id="页面-1" stroke="none" stroke-width="1" fill="none" fill-rule="evenodd">
        <g id="AI转录官网静态版-黑色" transform="translate(-85.000000, -764.000000)" fill="#9534E6" fill-rule="nonzero">
            <g id="编组-11" transform="translate(85.000000, 764.000000)">
                <path d="M8.70708263,11.5017034 L13.7071255,6.58933751 C14.0976248,6.20568567 14.0976248,5.58377229 13.7071255,5.20010473 L8.70708263,0.287738882 C8.31658328,-0.0959129607 7.68356986,-0.0959129607 7.29305451,0.287738882 C6.90255516,0.671390725 6.90255516,1.2933041 7.29305451,1.67697166 L10.5860907,4.91226367 L1,4.91226367 C0.447507836,4.91226367 0,5.35192435 0,5.89473684 C0,6.43754934 0.447507836,6.87721001 1,6.87721001 L10.5860907,6.87721001 L7.29305451,10.112502 C7.09804484,10.3040921 7.000044,10.5556053 7.000044,10.8071184 C7.000044,11.0586315 7.09756484,11.3101447 7.29305451,11.5017348 C7.68355386,11.8853866 8.31656728,11.8853866 8.70708263,11.5017348 L8.70708263,11.5017034 Z" id="路径"></path>
            </g>
        </g>
    </g>
</svg>