<?xml version="1.0" encoding="UTF-8"?>
<svg width="18px" height="16px" viewBox="0 0 18 16" version="1.1" xmlns="http://www.w3.org/2000/svg" xmlns:xlink="http://www.w3.org/1999/xlink">
    <title>链接 (7)</title>
    <g id="页面-1" stroke="none" stroke-width="1" fill="none" fill-rule="evenodd">
        <g id="首页" transform="translate(-1033.000000, -1132.000000)" fill="#64748B" fill-rule="nonzero">
            <g id="编组-3" transform="translate(320.000000, 876.000000)">
                <g id="编组-18" transform="translate(699.000000, 248.000000)">
                    <g id="链接-(7)" transform="translate(22.888889, 16.000000) scale(-1, 1) translate(-22.888889, -16.000000) translate(14.000000, 8.000000)">
                        <path d="M17.7667088,11.9256432 C17.7118385,10.8397012 17.2078739,9.81437881 16.3583807,9.06038164 L14.9500526,7.7620473 C14.6660854,7.4876032 14.2431282,7.37652105 13.8449098,7.47180127 C13.4466914,7.56708149 13.1357161,7.85376891 13.0323638,8.22088551 C12.9290115,8.58800211 13.0495045,8.97792533 13.3471992,9.23971408 L14.7555273,10.5380484 C15.1979166,10.9243191 15.4593908,11.4544597 15.4843371,12.0157152 C15.5151388,12.5121933 15.3217484,12.9982948 14.9500526,13.3586798 C14.5871518,13.6849375 14.0968815,13.8625112 13.5901358,13.8512354 C12.9548583,13.8210411 12.3521355,13.5827826 11.8904599,13.1793473 L8.34499396,9.91079063 C7.46996805,9.18913763 7.38343365,7.95423628 8.15046864,7.13478952 C8.44816351,6.87300079 8.56865653,6.48307752 8.46530426,6.11596086 C8.361952,5.7488442 8.05097662,5.46215673 7.65275816,5.36687652 C7.2545397,5.27159632 6.83158248,5.38267855 6.54761524,5.65712276 C5.75532986,6.37652612 5.31676332,7.36341453 5.33381249,8.38849362 C5.35043634,9.53465622 5.85645089,10.6285838 6.74214056,11.4330876 L10.2876065,14.7016444 C11.1623228,15.5153731 12.3476296,15.9813567 13.5901358,16 C14.6994915,16.0033736 15.7650065,15.6009416 16.552906,14.8809768 C17.4108306,14.1093148 17.8550959,13.02763 17.7667088,11.9256432 L17.7667088,11.9256432 Z" id="路径"></path>
                        <path d="M4.52021096,6.75785165 L3.5514292,5.86524679 L3.06527691,5.41732143 C2.62951537,5.03993162 2.35383012,4.53191628 2.28760937,3.98428487 C2.25668349,3.48779216 2.45020005,3.00165286 2.82220076,2.64132027 C3.18531002,2.31506252 3.67586198,2.13748887 4.18289877,2.14876467 C4.8235297,2.15835345 5.43437178,2.3996829 5.88355111,2.82065271 L9.43105376,6.08920947 C10.3065823,6.81086248 10.3931664,8.04576384 9.62569081,8.86521061 C9.32782503,9.12699937 9.20726288,9.51692259 9.31067453,9.8840392 C9.41408618,10.2511558 9.72524015,10.5378432 10.1236873,10.6331235 C10.5221345,10.7284037 10.9453346,10.6173215 11.229465,10.3428774 C12.0222055,9.62347404 12.461024,8.63658561 12.443965,7.61150651 C12.4273316,6.46534389 11.9210264,5.37141631 11.0348279,4.56691243 L7.48732528,1.29835567 C6.61210652,0.48462689 5.4261188,0.0186432744 4.18289877,0 C3.07290582,-0.00337356374 2.00677871,0.399058373 1.21842659,1.11902323 C0.393204829,1.8918769 -0.0466513447,2.94575412 0.00392655652,4.02891513 C0.0588284183,5.11485723 0.563082466,6.14017959 1.41306366,6.89417677 L1.89921594,7.34210213 L2.82220076,8.23470699 C3.26750431,8.63730389 3.98067137,8.63730389 4.42597492,8.23470699 C4.65888122,8.054828 4.80120635,7.79458354 4.81953094,7.5150816 C4.83785552,7.23557966 4.73056531,6.96144248 4.52285309,6.75704019 L4.52021096,6.75785165 Z" id="路径"></path>
                    </g>
                </g>
            </g>
        </g>
    </g>
</svg>