<?xml version="1.0" encoding="UTF-8"?>
<svg width="56px" height="56px" viewBox="0 0 56 56" version="1.1" xmlns="http://www.w3.org/2000/svg" xmlns:xlink="http://www.w3.org/1999/xlink">
    <title>编组 5备份</title>
    <defs>
        <linearGradient x1="8.41594225%" y1="50%" x2="92.3900041%" y2="50%" id="linearGradient-1">
            <stop stop-color="#9534E6" offset="0%"></stop>
            <stop stop-color="#3470FF" offset="100%"></stop>
        </linearGradient>
    </defs>
    <g id="页面-1" stroke="none" stroke-width="1" fill="none" fill-rule="evenodd">
        <g id="about" transform="translate(-771.000000, -1065.000000)" fill-rule="nonzero">
            <g id="编组-5备份" transform="translate(771.000000, 1065.000000)">
                <rect id="矩形" fill="url(#linearGradient-1)" x="0" y="0" width="56" height="56" rx="12"></rect>
                <g id="earth-fill" transform="translate(13.000000, 13.000000)" fill="#FFFFFF">
                    <path d="M14.8000011,0 C22.9740417,0 29.6000021,6.62596048 29.6000021,14.8000011 C29.6000021,22.9740417 22.9740417,29.6000021 14.8000011,29.6000021 C6.62596048,29.6000021 0,22.9740417 0,14.8000011 C0,6.62596048 6.62596048,0 14.8000011,0 Z M20.7259215,16.0994411 C20.2153214,15.3224411 19.8468014,14.7630011 18.4437613,14.9850011 C15.7945611,15.4053211 15.5000411,15.8685611 15.3742411,16.6322412 L15.3387211,16.8631212 L15.3017211,17.1088012 C15.1581611,18.1196413 15.1626011,18.5014813 15.6273211,18.9884014 C17.4995213,20.9538415 18.6213614,22.3702016 18.9617614,23.1990017 C19.1275214,23.6030417 19.5537614,24.8270018 19.2607214,26.0376419 C21.0571815,25.3220885 22.6562375,24.1868654 23.9242017,22.7268816 C24.0870017,22.1733616 24.2054018,21.4836816 24.2054018,20.6489615 L24.2054018,20.4935615 C24.2054018,19.1290014 24.2054018,18.5059214 23.2404417,17.9538813 C22.9303118,17.7780097 22.6117277,17.6174828 22.2858416,17.4728813 C21.7426816,17.2257213 21.3830415,17.0644012 20.8976015,16.3540012 C20.8384015,16.2696412 20.7821615,16.1852812 20.7259215,16.0994411 L20.7259215,16.0994411 Z M14.8000011,2.71283364 C11.3708408,2.71283364 8.2732006,4.1425203 6.07392043,6.43652048 C6.33588045,6.6185605 6.56380048,6.8746005 6.7206805,7.22684054 C7.02260052,7.9032006 7.02260052,8.60028065 7.02260052,9.21744066 C7.02260052,9.7028807 7.02260052,10.1646407 7.17800054,10.4976408 C7.39112055,10.9534808 8.31168063,11.1488408 9.12420065,11.3175608 C9.41576066,11.3797208 9.71472069,11.4418808 9.98704072,11.5173608 C10.7359208,11.7245608 11.3160808,12.3979609 11.7793208,12.9381609 C11.9717209,13.161641 12.2573609,13.491681 12.4009209,13.574561 C12.4749209,13.521281 12.7132009,13.2622809 12.8301209,12.8375209 C12.9218809,12.5119209 12.8952409,12.2248009 12.7635209,12.0679209 C11.9347209,11.0911208 11.9806009,9.21152065 12.2366409,8.51740062 C12.6392009,7.42368053 13.897201,7.50508055 14.8177611,7.56428056 C15.1611211,7.58648056 15.4837611,7.60868057 15.7264811,7.57760056 C16.6470412,7.46216056 16.9312012,6.06060047 17.1310012,5.78680042 C17.5631613,5.19480037 18.8862814,4.30236031 19.7062014,3.75180027 C18.1618164,3.06506965 16.4901848,2.71107707 14.8000011,2.71283364 Z" id="形状"></path>
                </g>
            </g>
        </g>
    </g>
</svg>