<?xml version="1.0" encoding="UTF-8"?>
<svg width="56px" height="56px" viewBox="0 0 56 56" version="1.1" xmlns="http://www.w3.org/2000/svg" xmlns:xlink="http://www.w3.org/1999/xlink">
    <title>编组 5</title>
    <defs>
        <linearGradient x1="8.41594225%" y1="50%" x2="92.3900041%" y2="50%" id="linearGradient-1">
            <stop stop-color="#9534E6" offset="0%"></stop>
            <stop stop-color="#3470FF" offset="100%"></stop>
        </linearGradient>
    </defs>
    <g id="页面-1" stroke="none" stroke-width="1" fill="none" fill-rule="evenodd">
        <g id="about" transform="translate(-176.000000, -1064.000000)" fill-rule="nonzero">
            <g id="编组-5" transform="translate(176.000000, 1064.000000)">
                <rect id="矩形" fill="url(#linearGradient-1)" x="0" y="0" width="56" height="56" rx="12"></rect>
                <g id="精准营销-(1)" transform="translate(13.000000, 13.000000)" fill="#FFFFFF">
                    <path d="M14.6179768,0 C16.7788997,0 18.8347212,0.484196704 20.6802812,1.3498533 L18.3629515,3.60935975 C17.7909149,4.1938311 17.5660324,5.04483194 17.7665074,5.84688258 L17.8104877,5.99604881 L18.1576418,7.1111756 C17.0477918,6.58538587 15.8402534,6.31393205 14.6179768,6.31639422 C9.94417163,6.31639422 6.15518744,10.2045357 6.15518744,14.999956 C6.15518744,19.7978093 9.94417163,23.6835178 14.6179768,23.6835178 C19.289438,23.6835178 23.0783636,19.7978093 23.0783636,14.999956 C23.0783636,13.9337795 22.8901362,12.9115701 22.5479046,11.9676518 L24.5132164,12.539871 C25.2906212,12.8064005 26.0239286,12.2610893 26.6155087,11.66929 L26.713285,11.5715362 L28.3461809,9.84016438 C28.9328092,11.4932745 29.2359537,13.2392434 29.2311188,14.999956 C29.2311188,23.28494 22.6896319,30 14.6179475,30 C6.54386056,30 0,23.2849987 0,15.0000147 C0,6.71505996 6.54386056,0 14.6179768,0 Z M14.6179768,8.68602398 C15.600662,8.68602398 16.5296098,8.9207798 17.3557709,9.3438034 L13.5864182,13.4056448 C12.9166639,14.0903615 13.1268668,15.6505248 13.9702274,16.4721555 C14.7817675,17.2644161 16.4856002,17.1861544 17.2091505,16.5724302 L17.2971696,16.4941685 L20.5336608,13.2540164 C21.2621335,15.8656712 20.2868028,18.6632196 18.1062778,20.2037736 C15.9258113,21.7444447 13.0315518,21.6808388 10.9170704,20.0472795 C8.80255973,18.4137788 7.94211685,15.5746667 8.78055494,12.9996512 C9.62151288,10.4222322 11.9682019,8.68602398 14.6179768,8.68602398 Z M25.0217292,0.224965779 C25.1048551,0.308093199 25.165947,0.413262868 25.2026314,0.525760414 L26.2732771,3.82945982 L29.490254,4.92497721 C29.7347386,5.00813394 29.9205048,5.21841466 29.9791647,5.47764558 C30.0402858,5.73687651 29.9645143,6.00830102 29.7836121,6.1965688 L25.4568145,10.6374372 C25.0559523,11.0507294 24.459479,11.1950006 23.9216949,11.0091364 L21.6287725,10.2217122 L16.5320711,15.4524084 C16.2509313,15.7532323 15.8329283,15.8730577 15.4393619,15.7678881 C15.0482276,15.6602562 14.7402484,15.3472387 14.6376083,14.9437659 C14.5349388,14.5402931 14.6522586,14.1123744 14.9456167,13.8237734 L20.0301291,8.60286725 L19.2698652,6.23572896 C19.0914242,5.68306059 19.2331807,5.07906778 19.6341015,4.67067062 L23.9633018,0.224965779 C24.2541986,-0.0733373783 24.7284297,-0.0733373783 25.0217292,0.224965779 Z" id="形状"></path>
                </g>
            </g>
        </g>
    </g>
</svg>