<?xml version="1.0" encoding="UTF-8"?>
<svg width="56px" height="56px" viewBox="0 0 56 56" version="1.1" xmlns="http://www.w3.org/2000/svg" xmlns:xlink="http://www.w3.org/1999/xlink">
    <title>编组 5备份</title>
    <defs>
        <linearGradient x1="8.41594225%" y1="50%" x2="92.3900041%" y2="50%" id="linearGradient-1">
            <stop stop-color="#9534E6" offset="0%"></stop>
            <stop stop-color="#3470FF" offset="100%"></stop>
        </linearGradient>
    </defs>
    <g id="页面-1" stroke="none" stroke-width="1" fill="none" fill-rule="evenodd">
        <g id="about" transform="translate(-771.000000, -1395.000000)" fill-rule="nonzero">
            <g id="编组-5备份" transform="translate(771.000000, 1395.000000)">
                <rect id="矩形" fill="url(#linearGradient-1)" x="0" y="0" width="56" height="56" rx="12"></rect>
                <g id="企业-(7)" transform="translate(14.000000, 13.000000)" fill="#FFFFFF">
                    <path d="M18.2563556,1.09410363 L18.2563556,30 L1.52136298,30 C0.608545198,30 0,29.3914548 0,28.478637 L0,5.35391995 C0,4.59323848 0.45640889,3.98469328 1.21709036,3.83255697 L16.43072,0.0291495783 C17.1914015,-0.12298673 17.952083,0.33342216 18.2563556,1.09410363 Z M19.7777186,14.7863703 L26.4717156,17.3726874 C27.0802608,17.67696 27.3845334,18.1333689 27.3845334,18.7419141 L27.3845334,28.478637 C27.3845334,29.3914548 26.7759882,30 25.8631704,30 L19.7777186,30 L19.7777186,14.7863703 L19.7777186,14.7863703 Z M12.1709037,16.3077333 L6.08545188,16.3077333 C5.1726341,16.3077333 4.5640889,16.9162785 4.5640889,17.8290963 C4.5640889,18.5897778 5.1726341,19.198323 5.93331557,19.3504592 L12.1709037,19.3504592 C13.0837215,19.3504592 13.6922667,18.741914 13.6922667,17.8290963 C13.6922667,16.9162785 13.0837215,16.3077333 12.1709037,16.3077333 L12.1709037,16.3077333 Z M12.1709037,8.70091849 L6.08545188,8.70091849 C5.1726341,8.70091849 4.5640889,9.30946368 4.5640889,10.2222814 C4.5640889,10.9829629 5.1726341,11.5915081 5.93331557,11.7436444 L12.1709037,11.7436444 C13.0837215,11.7436444 13.6922667,11.1350992 13.6922667,10.2222814 C13.6922667,9.30946365 13.0837215,8.70091849 12.1709037,8.70091849 L12.1709037,8.70091849 Z" id="形状"></path>
                </g>
            </g>
        </g>
    </g>
</svg>