<?xml version="1.0" encoding="UTF-8"?>
<svg width="12px" height="10px" viewBox="0 0 12 10" version="1.1" xmlns="http://www.w3.org/2000/svg" xmlns:xlink="http://www.w3.org/1999/xlink">
    <title>文件夹-展开</title>
    <g id="页面-1" stroke="none" stroke-width="1" fill="none" fill-rule="evenodd">
        <g id="Use-Cases6" transform="translate(-894.000000, -1468.000000)" fill="#6367F1" fill-rule="nonzero">
            <g id="文件夹-展开" transform="translate(894.000000, 1468.000000)">
                <path d="M0,1 C0,0.45 0.470046671,0 1.04454816,0 L4.30876115,0 C4.88326264,0 5.35330931,0.45 5.35330931,1 L5.35330931,1.25 C5.35330931,1.525 5.58833264,1.75 5.87558339,1.75 L9.66207046,1.75 C10.2365719,1.75 10.7066186,2.2 10.7066186,2.75 L10.7066186,3 L2.97696225,3 C2.40246076,3 1.85407298,3.45 1.74961816,3.975 L0.600615191,10 C0.261137039,10 0,9.55 0,9 L0,1 Z M2.32411965,4.225 C2.40246076,3.825 2.82028003,3.5 3.26421299,3.5 L11.3594612,3.5 C11.8033942,3.5 12.0645312,3.825 11.9861901,4.225 L10.9677557,9.25 C10.8894145,9.65 10.4715953,9.975 10.0276623,9.975 L1.14900297,9.975 L2.32411965,4.225 Z" id="形状"></path>
            </g>
        </g>
    </g>
</svg>