<?xml version="1.0" encoding="UTF-8"?>
<svg width="56px" height="56px" viewBox="0 0 56 56" version="1.1" xmlns="http://www.w3.org/2000/svg" xmlns:xlink="http://www.w3.org/1999/xlink">
    <title>录音停止</title>
    <g id="页面-1" stroke="none" stroke-width="1" fill="none" fill-rule="evenodd">
        <g id="Use-Cases6" transform="translate(-1006.000000, -468.000000)" fill-rule="nonzero">
            <g id="录音停止" transform="translate(1006.000000, 468.000000)">
                <path d="M28,0 C12.536,0 0,12.536 0,28 C0,43.464 12.536,56 28,56 C43.464,56 56,43.464 56,28 C56,12.536 43.464,0 28,0 Z M28,3.99999999 C41.254,3.99999999 52,14.746 52,28 C52,41.254 41.254,52 28,52 C14.746,52 3.99999999,41.254 3.99999999,28 C3.99999999,14.746 14.746,3.99999999 28,3.99999999 Z" id="形状" fill="#FFFFFF"></path>
                <path d="M22,16 L34,16 C38,16 40,18 40,22 L40,34 C40,38 38,40 34,40 L22,40 C18,40 16,38 16,34 L16,22 C16,18 18,16 22,16 Z" id="路径" fill="#EA6A6A"></path>
            </g>
        </g>
    </g>
</svg>