<?xml version="1.0" encoding="UTF-8"?>
<svg width="267px" height="97px" viewBox="0 0 267 97" version="1.1" xmlns="http://www.w3.org/2000/svg" xmlns:xlink="http://www.w3.org/1999/xlink">
    <title>编组</title>
    <g id="页面-1" stroke="none" stroke-width="1" fill="none" fill-rule="evenodd">
        <g id="Use-Cases6" transform="translate(-258.000000, -863.000000)">
            <g id="编组" transform="translate(258.687500, 863.000000)">
                <circle id="椭圆形" stroke="#979797" stroke-width="3" cx="133.3125" cy="75" r="20"></circle>
                <circle id="椭圆形" fill="#F04D4B" cx="133.3125" cy="75" r="13.6842105"></circle>
                <g id="编组-5" transform="translate(0.000000, 5.156250)" fill="#3470FF">
                    <path d="M46.9219965,1.23076923 C47.4742812,1.23076923 47.9219965,1.67848448 47.9219965,2.23076923 L47.9219965,15 C47.9219965,15.5522847 47.4742812,16 46.9219965,16 L46.4623111,16 C45.9100264,16 45.4623111,15.5522847 45.4623111,15 L45.4623111,2.23076923 C45.4623111,1.67848448 45.9100264,1.23076923 46.4623111,1.23076923 L46.9219965,1.23076923 Z M53.0712097,0 C53.6234945,-1.01453063e-16 54.0712097,0.44771525 54.0712097,1 L54.0712097,15 C54.0712097,15.5522847 53.6234945,16 53.0712097,16 L52.6115244,16 C52.0592397,16 51.6115244,15.5522847 51.6115244,15 L51.6115244,1 C51.6115244,0.44771525 52.0592397,1.01453063e-16 52.6115244,0 L53.0712097,0 Z M13.7162448,2.46153846 C14.2685296,2.46153846 14.7162448,2.90925371 14.7162448,3.46153846 L14.7162448,13.7692308 C14.7162448,14.3215155 14.2685296,14.7692308 13.7162448,14.7692308 L13.2565595,14.7692308 C12.7042748,14.7692308 12.2565595,14.3215155 12.2565595,13.7692308 L12.2565595,3.46153846 C12.2565595,2.90925371 12.7042748,2.46153846 13.2565595,2.46153846 L13.7162448,2.46153846 Z M40.7727832,3.69230769 C41.3250679,3.69230769 41.7727832,4.14002294 41.7727832,4.69230769 L41.7727832,11.3076923 C41.7727832,11.8599771 41.3250679,12.3076923 40.7727832,12.3076923 L40.3130979,12.3076923 C39.7608131,12.3076923 39.3130979,11.8599771 39.3130979,11.3076923 L39.3130979,4.69230769 C39.3130979,4.14002294 39.7608131,3.69230769 40.3130979,3.69230769 L40.7727832,3.69230769 Z M1.41781832,6.15384615 C1.97010307,6.15384615 2.41781832,6.6015614 2.41781832,7.15384615 L2.41781832,10.0769231 C2.41781832,10.6292078 1.97010307,11.0769231 1.41781832,11.0769231 L0.958133016,11.0769231 C0.405848266,11.0769231 -0.0418669839,10.6292078 -0.0418669839,10.0769231 L-0.0418669839,7.15384615 C-0.0418669839,6.6015614 0.405848266,6.15384615 0.958133016,6.15384615 L1.41781832,6.15384615 Z M21.0953008,4.92307692 C21.6475855,4.92307692 22.0953008,5.37079217 22.0953008,5.92307692 L22.0953008,10.0769231 C22.0953008,10.6292078 21.6475855,11.0769231 21.0953008,11.0769231 L20.6356155,11.0769231 C20.0833307,11.0769231 19.6356155,10.6292078 19.6356155,10.0769231 L19.6356155,5.92307692 C19.6356155,5.37079217 20.0833307,4.92307692 20.6356155,4.92307692 L21.0953008,4.92307692 Z M7.56703158,4.92307692 C8.11931633,4.92307692 8.56703158,5.37079217 8.56703158,5.92307692 L8.56703158,10.0769231 C8.56703158,10.6292078 8.11931633,11.0769231 7.56703158,11.0769231 L7.10734628,11.0769231 C6.55506153,11.0769231 6.10734628,10.6292078 6.10734628,10.0769231 L6.10734628,5.92307692 C6.10734628,5.37079217 6.55506153,4.92307692 7.10734628,4.92307692 L7.56703158,4.92307692 Z M33.3937273,4.92307692 C33.946012,4.92307692 34.3937273,5.37079217 34.3937273,5.92307692 L34.3937273,10.0769231 C34.3937273,10.6292078 33.946012,11.0769231 33.3937273,11.0769231 L32.934042,11.0769231 C32.3817572,11.0769231 31.934042,10.6292078 31.934042,10.0769231 L31.934042,5.92307692 C31.934042,5.37079217 32.3817572,4.92307692 32.934042,4.92307692 L33.3937273,4.92307692 Z M27.244514,6.15384615 C27.7967988,6.15384615 28.244514,6.6015614 28.244514,7.15384615 L28.244514,8.84615385 C28.244514,9.3984386 27.7967988,9.84615385 27.244514,9.84615385 L26.7848287,9.84615385 C26.232544,9.84615385 25.7848287,9.3984386 25.7848287,8.84615385 L25.7848287,7.15384615 C25.7848287,6.6015614 26.232544,6.15384615 26.7848287,6.15384615 L27.244514,6.15384615 Z" id="形状结合备份"></path>
                    <path d="M72.6896552,2 C73.2419399,2 73.6896552,2.44771525 73.6896552,3 L73.6896552,13 C73.6896552,13.5522847 73.2419399,14 72.6896552,14 L72.2758621,14 C71.7235773,14 71.2758621,13.5522847 71.2758621,13 L71.2758621,3 C71.2758621,2.44771525 71.7235773,2 72.2758621,2 L72.6896552,2 Z M78.7241379,5.6 C79.2764227,5.6 79.7241379,6.04771525 79.7241379,6.6 L79.7241379,10.6 C79.7241379,11.1522847 79.2764227,11.6 78.7241379,11.6 L78.3103448,11.6 C77.7580601,11.6 77.3103448,11.1522847 77.3103448,10.6 L77.3103448,6.6 C77.3103448,6.04771525 77.7580601,5.6 78.3103448,5.6 L78.7241379,5.6 Z M66.6551724,5.6 C67.2074572,5.6 67.6551724,6.04771525 67.6551724,6.6 L67.6551724,10.6 C67.6551724,11.1522847 67.2074572,11.6 66.6551724,11.6 L66.2413793,11.6 C65.6890946,11.6 65.2413793,11.1522847 65.2413793,10.6 L65.2413793,6.6 C65.2413793,6.04771525 65.6890946,5.6 66.2413793,5.6 L66.6551724,5.6 Z M92,5.6 C92.5522847,5.6 93,6.04771525 93,6.6 L93,10.6 C93,11.1522847 92.5522847,11.6 92,11.6 L91.5862069,11.6 C91.0339221,11.6 90.5862069,11.1522847 90.5862069,10.6 L90.5862069,6.6 C90.5862069,6.04771525 91.0339221,5.6 91.5862069,5.6 L92,5.6 Z M59.4137931,5.6 C59.9660779,5.6 60.4137931,6.04771525 60.4137931,6.6 L60.4137931,9.4 C60.4137931,9.95228475 59.9660779,10.4 59.4137931,10.4 L59,10.4 C58.4477153,10.4 58,9.95228475 58,9.4 L58,6.6 C58,6.04771525 58.4477153,5.6 59,5.6 L59.4137931,5.6 Z M84.7586207,6.8 C85.3109054,6.8 85.7586207,7.24771525 85.7586207,7.8 L85.7586207,9.4 C85.7586207,9.95228475 85.3109054,10.4 84.7586207,10.4 L84.3448276,10.4 C83.7925428,10.4 83.3448276,9.95228475 83.3448276,9.4 L83.3448276,7.8 C83.3448276,7.24771525 83.7925428,6.8 84.3448276,6.8 L84.7586207,6.8 Z" id="形状结合备份-2"></path>
                </g>
                <text id="00:09" font-family="PingFangSC-Semibold, PingFang SC" font-size="20" font-weight="500" fill="#000000">
                    <tspan x="106.3125" y="21">00:09</tspan>
                </text>
                <g id="编组-5备份" transform="translate(173.312500, 5.000000)" fill="#3470FF">
                    <path d="M46.6094965,1.38701923 C47.1617812,1.38701923 47.6094965,1.83473448 47.6094965,2.38701923 L47.6094965,15.15625 C47.6094965,15.7085347 47.1617812,16.15625 46.6094965,16.15625 L46.1498111,16.15625 C45.5975264,16.15625 45.1498111,15.7085347 45.1498111,15.15625 L45.1498111,2.38701923 C45.1498111,1.83473448 45.5975264,1.38701923 46.1498111,1.38701923 L46.6094965,1.38701923 Z M52.7587097,0.15625 C53.3109945,0.15625 53.7587097,0.60396525 53.7587097,1.15625 L53.7587097,15.15625 C53.7587097,15.7085347 53.3109945,16.15625 52.7587097,16.15625 L52.2990244,16.15625 C51.7467397,16.15625 51.2990244,15.7085347 51.2990244,15.15625 L51.2990244,1.15625 C51.2990244,0.60396525 51.7467397,0.15625 52.2990244,0.15625 L52.7587097,0.15625 Z M13.4037448,2.61778846 C13.9560296,2.61778846 14.4037448,3.06550371 14.4037448,3.61778846 L14.4037448,13.9254808 C14.4037448,14.4777655 13.9560296,14.9254808 13.4037448,14.9254808 L12.9440595,14.9254808 C12.3917748,14.9254808 11.9440595,14.4777655 11.9440595,13.9254808 L11.9440595,3.61778846 C11.9440595,3.06550371 12.3917748,2.61778846 12.9440595,2.61778846 L13.4037448,2.61778846 Z M40.4602832,3.84855769 C41.0125679,3.84855769 41.4602832,4.29627294 41.4602832,4.84855769 L41.4602832,11.4639423 C41.4602832,12.0162271 41.0125679,12.4639423 40.4602832,12.4639423 L40.0005979,12.4639423 C39.4483131,12.4639423 39.0005979,12.0162271 39.0005979,11.4639423 L39.0005979,4.84855769 C39.0005979,4.29627294 39.4483131,3.84855769 40.0005979,3.84855769 L40.4602832,3.84855769 Z M1.10531832,6.31009615 C1.65760307,6.31009615 2.10531832,6.7578114 2.10531832,7.31009615 L2.10531832,10.2331731 C2.10531832,10.7854578 1.65760307,11.2331731 1.10531832,11.2331731 L0.645633016,11.2331731 C0.0933482663,11.2331731 -0.354366984,10.7854578 -0.354366984,10.2331731 L-0.354366984,7.31009615 C-0.354366984,6.7578114 0.0933482663,6.31009615 0.645633016,6.31009615 L1.10531832,6.31009615 Z M20.7828008,5.07932692 C21.3350855,5.07932692 21.7828008,5.52704217 21.7828008,6.07932692 L21.7828008,10.2331731 C21.7828008,10.7854578 21.3350855,11.2331731 20.7828008,11.2331731 L20.3231155,11.2331731 C19.7708307,11.2331731 19.3231155,10.7854578 19.3231155,10.2331731 L19.3231155,6.07932692 C19.3231155,5.52704217 19.7708307,5.07932692 20.3231155,5.07932692 L20.7828008,5.07932692 Z M7.25453158,5.07932692 C7.80681633,5.07932692 8.25453158,5.52704217 8.25453158,6.07932692 L8.25453158,10.2331731 C8.25453158,10.7854578 7.80681633,11.2331731 7.25453158,11.2331731 L6.79484628,11.2331731 C6.24256153,11.2331731 5.79484628,10.7854578 5.79484628,10.2331731 L5.79484628,6.07932692 C5.79484628,5.52704217 6.24256153,5.07932692 6.79484628,5.07932692 L7.25453158,5.07932692 Z M33.0812273,5.07932692 C33.633512,5.07932692 34.0812273,5.52704217 34.0812273,6.07932692 L34.0812273,10.2331731 C34.0812273,10.7854578 33.633512,11.2331731 33.0812273,11.2331731 L32.621542,11.2331731 C32.0692572,11.2331731 31.621542,10.7854578 31.621542,10.2331731 L31.621542,6.07932692 C31.621542,5.52704217 32.0692572,5.07932692 32.621542,5.07932692 L33.0812273,5.07932692 Z M26.932014,6.31009615 C27.4842988,6.31009615 27.932014,6.7578114 27.932014,7.31009615 L27.932014,9.00240385 C27.932014,9.5546886 27.4842988,10.0024038 26.932014,10.0024038 L26.4723287,10.0024038 C25.920044,10.0024038 25.4723287,9.5546886 25.4723287,9.00240385 L25.4723287,7.31009615 C25.4723287,6.7578114 25.920044,6.31009615 26.4723287,6.31009615 L26.932014,6.31009615 Z" id="形状结合备份"></path>
                    <path d="M72.3771552,2.15625 C72.9294399,2.15625 73.3771552,2.60396525 73.3771552,3.15625 L73.3771552,13.15625 C73.3771552,13.7085347 72.9294399,14.15625 72.3771552,14.15625 L71.9633621,14.15625 C71.4110773,14.15625 70.9633621,13.7085347 70.9633621,13.15625 L70.9633621,3.15625 C70.9633621,2.60396525 71.4110773,2.15625 71.9633621,2.15625 L72.3771552,2.15625 Z M78.4116379,5.75625 C78.9639227,5.75625 79.4116379,6.20396525 79.4116379,6.75625 L79.4116379,10.75625 C79.4116379,11.3085347 78.9639227,11.75625 78.4116379,11.75625 L77.9978448,11.75625 C77.4455601,11.75625 76.9978448,11.3085347 76.9978448,10.75625 L76.9978448,6.75625 C76.9978448,6.20396525 77.4455601,5.75625 77.9978448,5.75625 L78.4116379,5.75625 Z M66.3426724,5.75625 C66.8949572,5.75625 67.3426724,6.20396525 67.3426724,6.75625 L67.3426724,10.75625 C67.3426724,11.3085347 66.8949572,11.75625 66.3426724,11.75625 L65.9288793,11.75625 C65.3765946,11.75625 64.9288793,11.3085347 64.9288793,10.75625 L64.9288793,6.75625 C64.9288793,6.20396525 65.3765946,5.75625 65.9288793,5.75625 L66.3426724,5.75625 Z M91.6875,5.75625 C92.2397847,5.75625 92.6875,6.20396525 92.6875,6.75625 L92.6875,10.75625 C92.6875,11.3085347 92.2397847,11.75625 91.6875,11.75625 L91.2737069,11.75625 C90.7214221,11.75625 90.2737069,11.3085347 90.2737069,10.75625 L90.2737069,6.75625 C90.2737069,6.20396525 90.7214221,5.75625 91.2737069,5.75625 L91.6875,5.75625 Z M59.1012931,5.75625 C59.6535779,5.75625 60.1012931,6.20396525 60.1012931,6.75625 L60.1012931,9.55625 C60.1012931,10.1085347 59.6535779,10.55625 59.1012931,10.55625 L58.6875,10.55625 C58.1352153,10.55625 57.6875,10.1085347 57.6875,9.55625 L57.6875,6.75625 C57.6875,6.20396525 58.1352153,5.75625 58.6875,5.75625 L59.1012931,5.75625 Z M84.4461207,6.95625 C84.9984054,6.95625 85.4461207,7.40396525 85.4461207,7.95625 L85.4461207,9.55625 C85.4461207,10.1085347 84.9984054,10.55625 84.4461207,10.55625 L84.0323276,10.55625 C83.4800428,10.55625 83.0323276,10.1085347 83.0323276,9.55625 L83.0323276,7.95625 C83.0323276,7.40396525 83.4800428,6.95625 84.0323276,6.95625 L84.4461207,6.95625 Z" id="形状结合备份-2"></path>
                </g>
            </g>
        </g>
    </g>
</svg>