<?xml version="1.0" encoding="UTF-8"?>
<svg width="56px" height="56px" viewBox="0 0 56 56" version="1.1" xmlns="http://www.w3.org/2000/svg" xmlns:xlink="http://www.w3.org/1999/xlink">
    <title>录音暂停</title>
    <g id="页面-1" stroke="none" stroke-width="1" fill="none" fill-rule="evenodd">
        <g id="Use-Cases6" transform="translate(-925.000000, -468.000000)" fill="#FFFFFF" fill-rule="nonzero">
            <g id="录音暂停" transform="translate(925.000000, 468.000000)">
                <path d="M28,0 C12.536,0 0,12.536 0,28 C0,43.464 12.536,56 28,56 C43.464,56 56,43.464 56,28 C56,12.536 43.464,0 28,0 Z M28,3.99999999 C41.254,3.99999999 52,14.746 52,28 C52,41.254 41.254,52 28,52 C14.746,52 3.99999999,41.254 3.99999999,28 C3.99999999,14.746 14.746,3.99999999 28,3.99999999 Z" id="形状"></path>
                <path d="M22,18 L24,18 C25.3333334,18 26,18.6666667 26,20 L26,36 C26,37.3333333 25.3333333,38 24,38 L22,38 C20.6666666,38 20,37.3333333 20,36 L20,20 C20,18.6666667 20.6666667,18 22,18 Z" id="路径"></path>
                <path d="M32,18 L34,18 C35.3333334,18 36,18.6666667 36,20 L36,36 C36,37.3333333 35.3333333,38 34,38 L32,38 C30.6666666,38 30,37.3333333 30,36 L30,20 C30,18.6666667 30.6666667,18 32,18 Z" id="路径"></path>
            </g>
        </g>
    </g>
</svg>