<?xml version="1.0" encoding="UTF-8"?>
<svg width="14px" height="12px" viewBox="0 0 14 12" version="1.1" xmlns="http://www.w3.org/2000/svg" xmlns:xlink="http://www.w3.org/1999/xlink">
    <title>路径</title>
    <g id="页面-1" stroke="none" stroke-width="1" fill="none" fill-rule="evenodd">
        <g id="官网首页静态版3" transform="translate(-85.000000, -607.000000)" fill="#000000" fill-rule="nonzero">
            <path d="M93.7070826,618.501703 L98.7071255,613.589338 C99.0976248,613.205686 99.0976248,612.583772 98.7071255,612.200105 L93.7070826,607.287739 C93.3165833,606.904087 92.6835699,606.904087 92.2930545,607.287739 C91.9025552,607.671391 91.9025552,608.293304 92.2930545,608.676972 L95.5860907,611.912264 L86,611.912264 C85.4475078,611.912264 85,612.351924 85,612.894737 C85,613.437549 85.4475078,613.87721 86,613.87721 L95.5860907,613.87721 L92.2930545,617.112502 C92.0980448,617.304092 92.000044,617.555605 92.000044,617.807118 C92.000044,618.058632 92.0975648,618.310145 92.2930545,618.501735 C92.6835539,618.885387 93.3165673,618.885387 93.7070826,618.501735 L93.7070826,618.501703 Z" id="路径"></path>
        </g>
    </g>
</svg>