<?xml version="1.0" encoding="UTF-8"?>
<svg width="56px" height="56px" viewBox="0 0 56 56" version="1.1" xmlns="http://www.w3.org/2000/svg" xmlns:xlink="http://www.w3.org/1999/xlink">
    <title>编组 10</title>
    <defs>
        <linearGradient x1="8.41594225%" y1="50%" x2="92.3900041%" y2="50%" id="linearGradient-1">
            <stop stop-color="#9534E6" offset="0%"></stop>
            <stop stop-color="#3470FF" offset="100%"></stop>
        </linearGradient>
    </defs>
    <g id="页面-1" stroke="none" stroke-width="1" fill="none" fill-rule="evenodd">
        <g id="首页" transform="translate(-684.000000, -3147.000000)" fill-rule="nonzero">
            <g id="编组-4备份" transform="translate(122.000000, 2579.000000)">
                <g id="编组-10" transform="translate(562.000000, 568.000000)">
                    <rect id="矩形备份-12" fill="url(#linearGradient-1)" x="0" y="0" width="56" height="56" rx="12"></rect>
                    <g id="公司企业老板" transform="translate(13.000000, 13.000000)" fill="#FFFFFF">
                        <polygon id="路径" points="3.24484121 28.0523997 3.24484121 1.94760027 22.3278461 1.94760027 22.3278461 7.68258752 24.2754463 7.68258752 24.2754463 0 1.29724093 0 1.29724093 28.0523997 0 28.0523997 0 30 30.7164387 30 30.7164387 28.0523997"></polygon>
                        <path d="M8.68768839,5.88453512 L11.2821702,5.88453512 L11.2821702,11.3169488 L8.68768839,11.3169488 L8.68768839,5.88453512 Z M14.3531185,5.88453512 L16.9476003,5.88453512 L16.9476003,11.3169488 L14.3531185,11.3169488 L14.3531185,5.88453512 Z M8.68768839,15.0939022 L11.2821702,15.0939022 L11.2821702,20.5263158 L8.68768839,20.5263158 L8.68768839,15.0939022 Z M14.3531185,15.0939022 L16.9476003,15.0939022 L16.9476003,20.5263158 L14.3531185,20.5263158 L14.3531185,15.0939022 Z M20.8601901,10.332715 L24.8388593,14.75655 L19.9385579,21.9557153 L25.3257593,26.6369117 L30.709483,21.9557153 L25.7917923,14.75655 L29.7843728,10.332715 L20.8601901,10.332715 Z M25.3257593,24.0424299 L22.5226061,21.6079295 L25.3257593,17.5005797 L28.1289126,21.6079295 L25.3257593,24.0424299 Z" id="形状"></path>
                    </g>
                </g>
            </g>
        </g>
    </g>
</svg>