<?xml version="1.0" encoding="UTF-8"?>
<svg width="56px" height="56px" viewBox="0 0 56 56" version="1.1" xmlns="http://www.w3.org/2000/svg" xmlns:xlink="http://www.w3.org/1999/xlink">
    <title>编组 8</title>
    <defs>
        <linearGradient x1="8.41594225%" y1="50%" x2="92.3900041%" y2="50%" id="linearGradient-1">
            <stop stop-color="#9534E6" offset="0%"></stop>
            <stop stop-color="#3470FF" offset="100%"></stop>
        </linearGradient>
    </defs>
    <g id="页面-1" stroke="none" stroke-width="1" fill="none" fill-rule="evenodd">
        <g id="首页" transform="translate(-284.000000, -3147.000000)">
            <g id="编组-4备份" transform="translate(122.000000, 2579.000000)">
                <g id="编组-8" transform="translate(162.000000, 568.000000)">
                    <rect id="矩形备份-11" fill="url(#linearGradient-1)" fill-rule="nonzero" x="0" y="0" width="56" height="56" rx="12"></rect>
                    <g id="我的博客" transform="translate(12.585294, 12.917638)">
                        <path d="M11.0823529,23.9147152 L9,23.4147152 L9.08235294,22.9970682 C9.83235294,20.0794211 11.3323529,17.4970682 13.4147059,15.4147152 C12.7470588,14.3323623 12.8323529,12.9147152 13.6647059,11.9147152 C14.6647059,10.8323623 16.2470588,10.5823623 17.4970588,11.4147152 C18.7470588,12.2470682 19.1647059,13.8323623 18.4970588,15.1647152 C17.9147059,16.4147152 16.4970588,16.9970682 15.1647059,16.7470682 C13.1647059,18.5823623 11.7470588,20.9147152 11.0823529,23.5823623 L11.0823529,23.9147152 L11.0823529,23.9147152 Z M22.9147059,17.8323623 C21.4970588,20.3323623 18.8323529,21.8323623 15.9970588,21.8323623 C15.5794118,21.8323623 15.1647059,21.8323623 14.6647059,21.7500093 L14.2470588,21.6676564 L14.5794118,19.5853035 L14.9970588,19.6676564 C17.4970588,20.0853035 19.9970588,18.8353035 21.1647059,16.5853035 C22.3323529,14.3353035 21.9147059,11.5853035 20.0823529,9.83530345 C18.1647059,7.91765639 15.0823529,7.58530345 12.75,9.08530345 C10.4176471,10.5853035 9.5,13.5853035 10.5823529,16.1676564 L10.75,16.5853035 L8.75,17.4176564 L8.58235294,17.0000025 C8.16470588,16.0823623 8,15.0000025 8,14.0000025 C8,10.6676564 10.0823529,7.66765639 13.25,6.50000247 C16.4176471,5.33236228 19.9176471,6.25000934 22.0823529,8.83236228 C24.2470588,11.2500093 24.5823529,14.9147152 22.9147059,17.8323623 Z" id="形状" fill="#FFFFFF" fill-rule="nonzero"></path>
                        <circle id="椭圆形" stroke="#FFFFFF" stroke-width="2" cx="15" cy="15" r="15"></circle>
                    </g>
                </g>
            </g>
        </g>
    </g>
</svg>