<?xml version="1.0" encoding="UTF-8"?>
<svg width="56px" height="56px" viewBox="0 0 56 56" version="1.1" xmlns="http://www.w3.org/2000/svg" xmlns:xlink="http://www.w3.org/1999/xlink">
    <title>编组 13</title>
    <defs>
        <linearGradient x1="8.41594225%" y1="50%" x2="92.3900041%" y2="50%" id="linearGradient-1">
            <stop stop-color="#9534E6" offset="0%"></stop>
            <stop stop-color="#3470FF" offset="100%"></stop>
        </linearGradient>
    </defs>
    <g id="页面-1" stroke="none" stroke-width="1" fill="none" fill-rule="evenodd">
        <g id="首页" transform="translate(-1084.000000, -3147.000000)" fill-rule="nonzero">
            <g id="编组-4备份" transform="translate(122.000000, 2579.000000)">
                <g id="编组-13" transform="translate(962.000000, 568.000000)">
                    <rect id="矩形备份-13" fill="url(#linearGradient-1)" x="0" y="0" width="56" height="56" rx="12"></rect>
                    <g id="老师" transform="translate(12.000000, 13.000000)" fill="#FFFFFF">
                        <path d="M13.773259,17.7269364 L13.7509457,17.7462746 L9.5456316,17.7462746 C5.78004259,17.7462746 2.72742956,20.7988877 2.72742956,24.5644767 L2.72742956,27.2733118 L17.1827319,27.2733118 L28.3185583,14.9065348 C28.9019299,14.2585228 29.8772766,14.148058 30.5907965,14.649188 C30.9057978,14.8705424 31.1097666,15.2172307 31.1502482,15.6000947 C31.1907297,15.9829587 31.0637735,16.3646368 30.8020291,16.6469725 L18.9142443,29.4548092 C18.7951629,29.5834609 18.6528338,29.6884412 18.4947542,29.7642204 C18.2689669,29.9181792 18.0019462,30.0003594 17.7286641,30 L1.36259913,30 C0.617872598,29.9992723 0.0113695167,29.4013768 0,28.6567367 L0,24.5659642 C0,20.295219 2.83525892,16.5435637 6.94390031,15.3780893 C3.34625189,12.0586134 3.12088751,6.45053622 6.4403634,2.85288776 C9.76058309,-0.74476067 15.3679165,-0.970125044 18.9655649,2.34935088 C22.5639572,5.66957057 22.7885777,11.2769039 19.4691018,14.8745524 C19.4244752,14.9243854 19.3776173,14.9727309 19.3315031,15.0210764 C20.0322018,15.1402093 20.5238163,15.7776638 20.4609935,16.485636 C20.3981707,17.1936081 19.8019909,17.7345358 19.0912632,17.728424 L13.773259,17.728424 L13.773259,17.7269364 Z M12.9551045,14.9995069 C16.3442168,14.9995069 19.0916351,12.2520886 19.0916351,8.8629763 C19.0916351,5.47386405 16.3442168,2.72644572 12.9551045,2.72644572 C9.56599225,2.72644572 6.81857393,5.47386405 6.81857393,8.8629763 C6.81857393,12.2520886 9.56599225,14.9995069 12.9551045,14.9995069 Z" id="形状"></path>
                        <path d="M24.4226554,1.36235903 L29.8775145,1.36235903 C30.6306734,1.36235903 31.2412293,1.97291494 31.2412293,2.72607382 C31.2412293,3.47923271 30.6306734,4.08978862 29.8775145,4.08978862 L24.4226554,4.08978862 C23.6694965,4.08978862 23.0589406,3.47923271 23.0589406,2.72607382 C23.0589406,1.97291494 23.6694965,1.36235903 24.4226554,1.36235903 Z M27.150085,5.45387528 L29.8775145,5.45387528 C30.6306734,5.45387528 31.2412293,6.06443118 31.2412293,6.81759006 C31.2412293,7.57074893 30.6306734,8.18130484 29.8775145,8.18130484 L27.150085,8.18130484 C26.3969261,8.18130484 25.7863702,7.57074893 25.7863702,6.81759006 C25.7863702,6.06443118 26.3969261,5.45387528 27.150085,5.45387528 L27.150085,5.45387528 Z" id="形状"></path>
                    </g>
                </g>
            </g>
        </g>
    </g>
</svg>