<?xml version="1.0" encoding="UTF-8"?>
<svg width="56px" height="56px" viewBox="0 0 56 56" version="1.1" xmlns="http://www.w3.org/2000/svg" xmlns:xlink="http://www.w3.org/1999/xlink">
    <title>编组 6</title>
    <defs>
        <linearGradient x1="8.41594225%" y1="50%" x2="92.3900041%" y2="50%" id="linearGradient-1">
            <stop stop-color="#9534E6" offset="0%"></stop>
            <stop stop-color="#3470FF" offset="100%"></stop>
        </linearGradient>
    </defs>
    <g id="页面-1" stroke="none" stroke-width="1" fill="none" fill-rule="evenodd">
        <g id="首页" transform="translate(-684.000000, -2801.000000)" fill-rule="nonzero">
            <g id="编组-4备份" transform="translate(122.000000, 2579.000000)">
                <g id="编组-6" transform="translate(562.000000, 222.000000)">
                    <rect id="矩形备份-9" fill="url(#linearGradient-1)" x="0" y="0" width="56" height="56" rx="12"></rect>
                    <g id="找记者" transform="translate(15.000000, 15.000000)" fill="#FFFFFF">
                        <path d="M2.48516497,2.04723475 L14.4018514,2.04723475 L14.4018514,6.76477569 C14.4018514,7.42345122 14.9359127,7.95751246 15.5945882,7.95751246 L20.4367434,7.95751246 L20.4367434,8.69451697 C20.4367434,9.26062188 20.8960361,9.71635414 21.4585806,9.71635414 C22.0246855,9.71635414 22.4804178,9.25706148 22.4804178,8.69451697 L22.4804178,6.6793259 C22.4804178,6.41585568 22.3842867,6.15950629 22.2133871,5.96012343 L17.406836,0.380963684 C17.1967719,0.138855922 16.8941372,0 16.5737005,0 L1.47400902,0 C0.658675528,0 1.29526898e-15,0.658675528 1.29526898e-15,1.47400902 L1.29526898e-15,24.6736292 C1.29526898e-15,25.4889627 0.658675528,26.1476383 1.47400902,26.1476383 L7.23474958,26.1476383 C7.8008545,26.1476383 8.25658676,25.6883456 8.25658676,25.1258011 C8.25658676,24.5596962 7.79729409,24.1039639 7.23474958,24.1039639 L2.48516497,24.1039639 C2.2430572,24.1039639 2.04367434,23.9045811 2.04367434,23.6624733 L2.04367434,2.48872537 C2.04367434,2.2430572 2.2394968,2.04723475 2.48516497,2.04723475 Z M19.4718728,5.91027771 L16.8442915,5.91027771 C16.6235462,5.91027771 16.4419653,5.72869689 16.4419653,5.50795158 L16.4419653,2.39971517 L19.4718728,5.91027771 Z" id="形状"></path>
                        <path d="M6.02421078,9.9549015 L14.1846665,9.9549015 C14.7507714,9.9549015 15.2065037,10.4141942 15.2065037,10.9767387 C15.2065037,11.5428436 14.747211,11.9985758 14.1846665,11.9985758 L6.02421078,11.9985758 C5.45810586,11.9985758 5.00237361,11.5392832 5.00237361,10.9767387 C5.00237361,10.4141942 5.46166627,9.9549015 6.02421078,9.9549015 Z M6.02421078,15.6764776 L9.94422027,15.6764776 C10.5103252,15.6764776 10.9660574,16.1357702 10.9660574,16.6983147 C10.9660574,17.2644197 10.5067648,17.7201519 9.94422027,17.7201519 L6.02421078,17.7201519 C5.45810586,17.7201519 5.00237361,17.2608592 5.00237361,16.6983147 C5.00237361,16.1357702 5.46166627,15.6764776 6.02421078,15.6764776 Z M30.192262,14.6546404 C30.192262,12.0626632 28.0809399,9.9549015 25.4925231,9.9549015 C23.3847615,9.9549015 21.5938761,11.3541419 20.9992879,13.2696416 L20.7180157,12.9883693 C20.3299312,12.6002848 19.8172324,12.3902207 19.2724899,12.3902207 C18.7277474,12.3902207 18.2150487,12.6038452 17.8269642,12.9883693 L14.6154759,16.1998576 C14.2273914,16.5879421 14.0173273,17.1006409 14.0173273,17.6453833 C14.0173273,18.1901258 14.2309518,18.7028246 14.6154759,19.0909091 L15.3596012,19.8350344 L11.1761215,24.0327558 C9.81604557,25.3928317 9.81604557,27.6109661 11.1761215,28.9746024 C11.8383575,29.6368384 12.7142179,30 13.6470449,30 C14.5798718,30 15.4592927,29.6368384 16.1179682,28.9746024 L20.3085687,24.7840019 L21.052694,25.5281272 C21.4407785,25.9162117 21.9534773,26.1262758 22.4982198,26.1262758 C23.0429623,26.1262758 23.555661,25.9126513 23.9437455,25.5281272 L27.1552338,22.316639 C27.5433183,21.9285545 27.7533824,21.4158557 27.7533824,20.8711132 C27.7533824,20.3263708 27.5397579,19.813672 27.1552338,19.4255875 L26.8739615,19.1443152 C28.7930216,18.5532874 30.192262,16.7659625 30.192262,14.6546404 Z M14.668882,27.5290767 C14.1027771,28.0951816 13.1841918,28.0951816 12.6180869,27.5290767 C12.051982,26.9629718 12.051982,26.0443864 12.6180869,25.4782815 L16.8086874,21.287681 L18.8594826,23.3384761 L14.668882,27.5290767 L14.668882,27.5290767 Z M22.5017802,24.0861619 L16.0645621,17.6489437 L19.2760503,14.4374555 L25.7132685,20.8746736 L22.5017802,24.0861619 L22.5017802,24.0861619 Z M25.4925231,17.310705 C25.3572276,17.310705 25.2290529,17.3391882 25.1151199,17.3854735 L22.840019,15.1103727 C22.8507002,15.0356041 22.8542606,14.9572751 22.8471398,14.8825065 C22.840019,14.807738 22.8364586,14.729409 22.8364586,14.6582008 C22.8364586,13.194873 24.0256349,12.0021362 25.4925231,12.0021362 C26.9558509,12.0021362 28.1485877,13.1913126 28.1485877,14.6582008 C28.1450273,16.1215286 26.9558509,17.310705 25.4925231,17.310705 L25.4925231,17.310705 Z" id="形状"></path>
                    </g>
                </g>
            </g>
        </g>
    </g>
</svg>