<?xml version="1.0" encoding="UTF-8"?>
<svg width="56px" height="56px" viewBox="0 0 56 56" version="1.1" xmlns="http://www.w3.org/2000/svg" xmlns:xlink="http://www.w3.org/1999/xlink">
    <title>编组 5</title>
    <defs>
        <linearGradient x1="8.41594225%" y1="50%" x2="92.3900041%" y2="50%" id="linearGradient-1">
            <stop stop-color="#9534E6" offset="0%"></stop>
            <stop stop-color="#3470FF" offset="100%"></stop>
        </linearGradient>
    </defs>
    <g id="页面-1" stroke="none" stroke-width="1" fill="none" fill-rule="evenodd">
        <g id="首页" transform="translate(-284.000000, -2801.000000)" fill-rule="nonzero">
            <g id="编组-4备份" transform="translate(122.000000, 2579.000000)">
                <g id="编组-5" transform="translate(162.000000, 222.000000)">
                    <rect id="矩形" fill="url(#linearGradient-1)" x="0" y="0" width="56" height="56" rx="12"></rect>
                    <g id="播音室" transform="translate(18.000000, 15.000000)" fill="#FFFFFF">
                        <path d="M14.3831198,18.8150685 C15.6995582,18.7986301 16.7625719,17.6890411 16.7803801,16.3164383 L16.7803801,14.9986301 L13.1844897,14.9986301 C12.8602392,15.0101805 12.5464032,14.8831517 12.321476,14.6493151 C12.0938734,14.4061911 11.9730183,14.0821022 11.9858596,13.7493151 C11.9858596,13.3849315 12.0981883,13.0849315 12.321476,12.8493151 C12.5464032,12.6154784 12.8602392,12.4884496 13.1844897,12.5 L16.7803801,12.5 L16.7803801,8.74931507 L13.1844897,8.74931507 C12.8602392,8.76086547 12.5464032,8.63383662 12.321476,8.4 C12.0938734,8.15687604 11.9730183,7.83278719 11.9858596,7.49999998 C11.9858596,7.13424658 12.0981883,6.83424658 12.321476,6.6 C12.5461624,6.36565965 12.8600301,6.23811975 13.1844897,6.24931506 L16.7803801,6.24931506 L16.7803801,4.99999998 C16.7639417,3.62602738 15.6995582,2.51643833 14.3831198,2.49999998 L4.79407873,2.49999998 C3.47764036,2.51643833 2.4132568,3.62602738 2.39681845,4.99999998 L2.39681845,6.24931506 L5.99270886,6.24931506 C6.31695139,6.23933567 6.63034359,6.36668234 6.85572256,6.6 C7.07901024,6.83424658 7.19133898,7.13424658 7.19133898,7.49999998 C7.20418021,7.83278719 7.08332517,8.15687604 6.85572256,8.4 C6.63079536,8.63383662 6.31695937,8.76086547 5.99270886,8.74931507 L2.39681845,8.74931507 L2.39681845,12.5 L5.99270886,12.5 C6.31674408,12.4896642 6.6301052,12.6165008 6.85572256,12.8493151 C7.07901024,13.0849315 7.19133898,13.3835616 7.19133898,13.7493151 C7.20418021,14.0821022 7.08332517,14.4061911 6.85572256,14.6493151 C6.63079536,14.8831517 6.31695937,15.0101805 5.99270886,14.9986301 L2.39681845,14.9986301 L2.39681845,16.3164383 C2.41462668,17.6890411 3.47764036,18.7986301 4.79407873,18.8150685 L14.3831198,18.8150685 L14.3831198,18.8150685 Z M10.7872294,21.3150685 L10.7872294,23.5260274 L17.9790102,23.5260274 C18.3032527,23.516048 18.6166449,23.6433947 18.8420239,23.8767123 C19.0639417,24.1123288 19.1762705,24.4109589 19.1762705,24.7767123 C19.1891117,25.1094995 19.0682567,25.4335884 18.8406541,25.6767123 C18.6157269,25.9105489 18.3018909,26.0375778 17.9776404,26.0260274 L1.19955816,26.0260274 C0.875307649,26.0375778 0.561471656,25.9105489 0.336544463,25.6767123 C0.108941853,25.4335884 -0.0119131933,25.1094995 0.000928035116,24.7767123 C0.000928035116,24.4123288 0.113256813,24.1123288 0.336544463,23.8767123 C0.561230852,23.642372 0.875098551,23.5148321 1.19955816,23.5260274 L8.39133898,23.5260274 L8.39133898,21.3150685 L4.79407873,21.3150685 C3.44476365,21.2904109 2.31462667,20.8 1.40503761,19.8506849 C0.49407872,18.9013698 0.026955411,17.7205479 0.000928035116,16.3164383 L0.000928035116,5 C0.0242156956,3.59178082 0.49407872,2.41506848 1.40503761,1.46575341 C2.31599654,0.51369863 3.44613353,0.0273972496 4.79407873,0 L14.3831198,0 C15.7324349,0.0246575342 16.8625719,0.515068504 17.7721609,1.46575341 C18.6831198,2.41506848 19.1502431,3.59452054 19.1762705,5 L19.1762705,16.3150685 C19.1529828,17.7232877 18.6831198,18.9013699 17.7721609,19.8506849 C16.861202,20.8 15.731065,21.2890411 14.3831198,21.3164384 L10.7872294,21.3164384 L10.7872294,21.3150685 Z" id="形状"></path>
                    </g>
                </g>
            </g>
        </g>
    </g>
</svg>