<?xml version="1.0" encoding="UTF-8"?>
<svg width="56px" height="56px" viewBox="0 0 56 56" version="1.1" xmlns="http://www.w3.org/2000/svg" xmlns:xlink="http://www.w3.org/1999/xlink">
    <title>编组 7</title>
    <defs>
        <linearGradient x1="8.41594225%" y1="50%" x2="92.3900041%" y2="50%" id="linearGradient-1">
            <stop stop-color="#9534E6" offset="0%"></stop>
            <stop stop-color="#3470FF" offset="100%"></stop>
        </linearGradient>
    </defs>
    <g id="页面-1" stroke="none" stroke-width="1" fill="none" fill-rule="evenodd">
        <g id="首页" transform="translate(-1084.000000, -2801.000000)" fill-rule="nonzero">
            <g id="编组-4备份" transform="translate(122.000000, 2579.000000)">
                <g id="编组-7" transform="translate(962.000000, 222.000000)">
                    <g id="矩形备份-14" fill="url(#linearGradient-1)">
                        <rect id="矩形备份-10" x="0" y="0" width="56" height="56" rx="12"></rect>
                    </g>
                    <g id="研究员列表-选中" transform="translate(17.000000, 13.000000)" fill="#FFFFFF">
                        <path d="M11.4021875,0 C7.21075186,0 3.80068446,3.41006741 3.80068446,7.60136891 C3.80068446,11.7929052 7.21075186,15.2029726 11.4021875,15.2029726 C15.5936232,15.2029726 19.0036906,11.7929052 19.0036906,7.60136891 C19.0036906,3.41006741 15.5935897,0 11.4021875,0 Z M11.4021875,11.7905909 C9.09229443,11.7905909 7.21306618,10.0523014 7.21306618,7.91544569 C7.21306618,7.52492926 7.52959144,7.20853817 7.9199737,7.20853817 C8.31035597,7.20853817 8.62688122,7.5249628 8.62688122,7.91544569 C8.62688122,9.27267727 9.87191857,10.3767423 11.4021875,10.3767423 C12.9324565,10.3767423 14.1774938,9.27264373 14.1774938,7.91544569 C14.1774938,7.52492926 14.4940191,7.20853817 14.8844014,7.20853817 C15.2747836,7.20853817 15.5913089,7.5249628 15.5913089,7.91544569 C15.5913089,10.0523014 13.7120806,11.7905909 11.4021875,11.7905909 L11.4021875,11.7905909 Z M20.8254633,16.795091 C20.357065,16.4687718 19.8431181,16.2391174 19.2979783,16.1126683 C17.5793773,15.7135318 15.7572021,16.4070901 14.6561222,17.8793669 L11.4021875,22.2301888 L8.14825291,17.8793669 C7.04703884,16.4073249 5.22486363,15.7136325 3.50636326,16.1126683 C2.96145818,16.2391174 2.44761195,16.4686711 1.97897881,16.7949568 C0.73981112,17.6577623 0,19.1112897 0,20.6830823 L0,28.9396387 C0,29.525296 0.474737571,30 1.06036128,30 C1.64601853,30 2.12072256,29.5252624 2.12072256,28.9396387 L2.12072256,20.6831159 C2.12072256,19.8047809 2.5207646,19.0019129 3.19074361,18.5353258 C3.43720198,18.3637642 3.70469047,18.243755 3.98589718,18.1784173 C4.88553058,17.9695918 5.85258114,18.3510187 6.4499777,19.149627 L10.3697658,24.3907244 C10.6172639,24.7216051 11.0209955,24.8665353 11.4020869,24.7999902 C11.7832119,24.8666023 12.1870776,24.7217393 12.4345757,24.3907244 L16.3543638,19.149627 C16.9517269,18.3508845 17.918811,17.9699272 18.8184444,18.1784173 C19.0998858,18.243755 19.3672737,18.3637642 19.6135979,18.5353258 C20.2836776,19.0018794 20.6837531,19.8048815 20.6837531,20.6831159 L20.6837531,28.9396387 C20.6837531,29.525296 21.1584907,30 21.7441144,30 C22.3297717,30 22.8044757,29.5252624 22.8044757,28.9396387 L22.8044757,20.6831159 C22.8044757,19.1113233 22.064631,17.6577959 20.8254633,16.795091 L20.8254633,16.795091 Z" id="形状"></path>
                        <polygon id="路径" points="15.5301639 23.2755909 20.0683787 23.2755909 20.0683787 24.6894059 15.5301639 24.6894059"></polygon>
                    </g>
                </g>
            </g>
        </g>
    </g>
</svg>