<?xml version="1.0" standalone="no"?><!DOCTYPE svg PUBLIC "-//W3C//DTD SVG 1.1//EN" "http://www.w3.org/Graphics/SVG/1.1/DTD/svg11.dtd"><svg t="1751355483805" class="icon" viewBox="0 0 1024 1024" version="1.1" xmlns="http://www.w3.org/2000/svg" p-id="2360" xmlns:xlink="http://www.w3.org/1999/xlink" width="200" height="200"><path d="M512 512m-512 0a512 512 0 1 0 1024 0 512 512 0 1 0-1024 0Z" fill="#F5F5F5" p-id="2361" data-spm-anchor-id="a313x.manage_type_myprojects.0.i2.37fa3a8127nzng" class="selected"></path><path d="M224 288m41.6 0l492.8 0q41.6 0 41.6 41.6l0 0q0 41.6-41.6 41.6l-492.8 0q-41.6 0-41.6-41.6l0 0q0-41.6 41.6-41.6Z" fill="#999999" p-id="2362"></path><path d="M224 512m41.6 0l364.8 0q41.6 0 41.6 41.6l0 0q0 41.6-41.6 41.6l-364.8 0q-41.6 0-41.6-41.6l0 0q0-41.6 41.6-41.6Z" fill="#999999" p-id="2363" data-spm-anchor-id="a313x.manage_type_myprojects.0.i1.37fa3a8127nzng" class="selected"></path><path d="M224 736m41.6 0l236.8 0q41.6 0 41.6 41.6l0 0q0 41.6-41.6 41.6l-236.8 0q-41.6 0-41.6-41.6l0 0q0-41.6 41.6-41.6Z" fill="#999999" p-id="2364" data-spm-anchor-id="a313x.manage_type_myprojects.0.i0.37fa3a8127nzng" class="selected"></path></svg>