<?xml version="1.0" encoding="UTF-8"?>
<svg width="23px" height="18px" viewBox="0 0 23 18" version="1.1" xmlns="http://www.w3.org/2000/svg" xmlns:xlink="http://www.w3.org/1999/xlink">
    <title>录音</title>
    <g id="紫色" stroke="none" stroke-width="1" fill="none" fill-rule="evenodd">
        <g id="上传与录音界面提示展示备份" transform="translate(-626.000000, -2344.000000)" fill="#FFFFFF" fill-rule="nonzero">
            <g id="编组-2" transform="translate(448.000000, 2338.000000)">
                <g id="录音" transform="translate(178.000000, 6.000000)">
                    <path d="M0,18 L0,-7.13714802e-16 L22.5,-7.13714802e-16 L22.5,18 L0,18 Z M20.25,2.25 L2.25,2.25 L2.25,15.75 L20.25,15.75 L20.25,2.25 Z M6.75,5.625 C8.61328125,5.6244674 10.1244978,7.13445871 10.125,8.99773996 C10.1252511,9.38169643 10.0597098,9.76289063 9.93138951,10.125 L12.5683594,10.125 C11.9470982,8.36768973 12.868192,6.43962054 14.6255022,5.81835938 C16.3828125,5.19709821 18.3108817,6.11819196 18.9321429,7.87550223 C19.553404,9.6328125 18.6323103,11.5608817 16.875,12.1821429 C16.5136773,12.3098653 16.1332324,12.3750844 15.75,12.3750001 L6.75,12.3750001 C4.8859654,12.3750001 3.375,10.8640346 3.375,9 C3.375,7.1359654 4.8859654,5.625 6.75,5.625 Z M16.875,9 C16.875,8.37873884 16.3712612,7.875 15.75,7.875 C15.1287388,7.875 14.625,8.37873884 14.625,9 C14.625,9.62126116 15.1287388,10.125 15.75,10.125 C16.37101,10.1242467 16.8742467,9.62101004 16.875,9 Z M6.75,10.125 C7.37126116,10.125 7.875,9.62126116 7.875,9 C7.875,8.37873884 7.37126116,7.875 6.75,7.875 C6.12873884,7.875 5.625,8.37873884 5.625,9 C5.62575335,9.62101004 6.12898996,10.1242467 6.75,10.125 Z" id="形状"></path>
                </g>
            </g>
        </g>
    </g>
</svg>