<?xml version="1.0" encoding="UTF-8"?>
<svg width="15px" height="19px" viewBox="0 0 15 19" version="1.1" xmlns="http://www.w3.org/2000/svg" xmlns:xlink="http://www.w3.org/1999/xlink">
    <title>语音2</title>
    <g id="页面-1" stroke="none" stroke-width="1" fill="none" fill-rule="evenodd">
        <g id="游客模式" transform="translate(-734.000000, -1368.000000)" fill="#64748B" fill-rule="nonzero">
            <g id="编组备份-3" transform="translate(425.000000, 1277.000000)">
                <g id="编组-2" transform="translate(309.000000, 85.000000)">
                    <g id="语音2" transform="translate(0.000000, 6.000000)">
                        <path d="M12.5714286,8.57142857 C12.5713661,8.16308337 12.7891797,7.78573009 13.1428066,7.58153944 C13.4964335,7.37734879 13.9321379,7.37734879 14.2857648,7.58153944 C14.6393917,7.78573009 14.8571429,8.16308337 14.8571429,8.57142857 C14.8571429,12.2857143 12.1314286,15.3628571 8.57142858,15.9125714 L8.57142858,17.1428571 C8.57142858,17.7740397 8.05975401,18.2857143 7.42857143,18.2857143 C6.79738885,18.2857143 6.28571428,17.7740397 6.28571428,17.1428571 L6.28571428,15.9125714 C2.7257143,15.3628571 0,12.2857143 0,8.57142857 C0,8.16308337 0.217751166,7.78573009 0.571378069,7.58153944 C0.925004972,7.37734879 1.36070933,7.37734879 1.71433623,7.58153944 C2.06796314,7.78573009 2.2857768,8.16308337 2.28571429,8.57142857 C2.28571429,11.4117501 4.58824986,13.7142857 7.42857143,13.7142857 C10.268893,13.7142857 12.5714286,11.4117501 12.5714286,8.57142857 Z M7.42857144,0 C8.48943739,0 9.50685303,0.42142736 10.2569985,1.17157287 C11.0071441,1.92171838 11.4285714,2.93913403 11.4285714,4 L11.4285714,8.57142857 C11.4285714,10.7805676 9.63771042,12.5714286 7.42857144,12.5714286 C5.21943244,12.5714286 3.42857144,10.7805676 3.42857144,8.57142857 L3.42857144,4 C3.42857144,1.790861 5.21943244,0 7.42857144,0 L7.42857144,0 Z" id="形状"></path>
                    </g>
                </g>
            </g>
        </g>
    </g>
</svg>