<?xml version="1.0" standalone="no"?><!DOCTYPE svg PUBLIC "-//W3C//DTD SVG 1.1//EN" "http://www.w3.org/Graphics/SVG/1.1/DTD/svg11.dtd"><svg t="1750928179394" class="icon" viewBox="0 0 1024 1024" version="1.1" xmlns="http://www.w3.org/2000/svg" p-id="2407" id="mx_n_1750928179395" xmlns:xlink="http://www.w3.org/1999/xlink" width="200" height="200"><path d="M169.490963 843.282963c31.668148-255.772444 167.177481-253.952 167.177481-253.952l86.736593 86.736593s1.517037 128.568889-254.217481 160.237037l0.303407 6.97837z" fill="#FFC500" p-id="2408" data-spm-anchor-id="a313x.manage_type_myprojects.0.i1.37fa3a81zfklnX" class=""></path><path d="M231.348148 778.770963c36.939852-197.745778 125.686519-165.925926 125.686519-165.925926l23.438222 23.476148s20.328296 13.198222 20.100741 20.100741C397.274074 766.862222 231.348148 778.770963 231.348148 778.770963z" fill="#FDEBA1" p-id="2409"></path><path d="M421.129481 673.792l-81.92-86.546963 18.735408-18.735407 84.233481 84.233481z" fill="#DF3428" p-id="2410"></path><path d="M539.496296 808.087704c-20.707556 20.707556-41.339259 34.550519-68.797629 41.60474 34.816-82.488889 14.942815-185.116444-56.50963-256.568888-71.452444-71.49037-170.666667-94.814815-253.155556-59.960889a204.686222 204.686222 0 0 1 45.018075-65.422223c86.243556-86.243556 230.058667-73.500444 321.953185 18.356149 98.721185 91.856593 97.735111 235.747556 11.491555 321.991111z" fill="#FF7748" p-id="2411"></path><path d="M378.311111 548.181333c-60.871111-41.604741-137.367704-53.854815-199.604148-32.616296a178.555259 178.555259 0 0 1 41.14963-61.591704c67.432296-67.470222 176.658963-67.432296 264.419555-11.794963l-105.965037 106.002963z" fill="#DF3428" p-id="2412"></path><path d="M690.782815 530.052741c-70.883556 70.921481-155.685926 114.346667-233.927111 137.367703-10.467556-23.969185-27.799704-48.052148-48.469334-68.759703-20.707556-20.66963-48.165926-34.62637-68.759703-48.469334 16.19437-78.317037 69.935407-159.592296 140.818963-230.475851 114.839704-107.937185 254.103704-164.446815 366.857481-146.204445 18.204444 105.965037-41.680593 248.604444-156.520296 356.54163z" fill="#E2E2E2" p-id="2413"></path><path d="M849.009778 175.217778c10.391704 111.653926-43.425185 246.859852-158.226963 354.834963-70.883556 70.921481-155.344593 114.688-233.092741 138.202074-13.577481-20.328296-33.905778-47.407407-50.858667-64.360296L849.047704 175.217778z" fill="#FFFFFF" p-id="2414" data-spm-anchor-id="a313x.manage_type_myprojects.0.i0.37fa3a81zfklnX"></path><path d="M810.628741 361.509926l-10.505482 17.483852s-80.744296-101.717333-168.429037-168.429037l21.010963-6.978371c3.489185-3.489185 119.239111 91.287704 157.923556 157.923556z" fill="#FFAE00" p-id="2415"></path><path d="M466.526815 586.296889c-49.34163 49.303704-98.531556 79.113481-131.223704 85.864296 6.750815-32.692148 39.74637-78.65837 85.82637-124.700444 46.042074-46.042074 95.269926-75.851852 127.962075-82.602667-6.750815 26.168889-36.522667 75.358815-82.564741 121.438815z" fill="#FF7748" p-id="2416"></path><path d="M333.899852 670.795852c7.698963-31.781926 41.14963-77.293037 87.229629-123.335111 46.042074-46.042074 94.549333-76.534519 126.33126-84.195556l-213.560889 207.530667z" fill="#DF3428" p-id="2417"></path><path d="M821.172148 357.944889c-22.414222-28.823704-44.86637-51.237926-70.504296-76.875852L676.977778 207.378963c63.905185-25.448296 124.624593-34.891852 179.01037-25.182815 3.299556 54.347852-6.144 115.067259-34.816 175.748741z" fill="#FF7748" p-id="2418"></path><path d="M751.009185 287.781926l-77.217185-77.217185c67.128889-25.031111 131.375407-33.109333 189.515852-21.048889l-112.298667 98.228148z" fill="#DF3428" p-id="2419"></path><path d="M672.426667 335.530667c12.401778 12.401778 18.356148 25.106963 17.597629 44.525037 2.578963 16.080593-4.437333 29.278815-17.901037 42.742518-23.589926 23.589926-59.088593 21.807407-83.930074-3.034074-21.769481-21.769481-20.176593-60.643556 0-80.858074 23.893333-30.037333 59.354074-28.254815 84.195556-3.413333z" fill="#FFAE00" p-id="2420"></path><path d="M684.335407 347.401481c18.962963 18.962963 17.521778 45.662815 0 63.184593-17.559704 17.559704-47.407407 15.815111-63.184592 0-18.962963-18.962963-17.521778-45.624889 0-63.146667 17.559704-17.559704 44.22163-18.962963 63.184592 0z" fill="#C0F6FF" p-id="2421"></path></svg>