<?xml version="1.0" encoding="UTF-8"?>
<svg width="29px" height="24px" viewBox="0 0 29 24" version="1.1" xmlns="http://www.w3.org/2000/svg" xmlns:xlink="http://www.w3.org/1999/xlink">
    <title>上传</title>
    <g id="页面-1" stroke="none" stroke-width="1" fill="none" fill-rule="evenodd">
        <g id="蓝色首页" transform="translate(-298.000000, -154.000000)">
            <g id="编组-6备份-7" transform="translate(258.000000, 130.000000)">
                <g id="上传" transform="translate(40.000000, 24.000000)">
                    <path d="M17.5347767,0.3433071 C21.2886877,1.37535977 24.0729845,4.56634864 24.8080642,8.44706484 C23.9249894,8.15689509 22.9808171,8 22,8 C17.0294373,8 13,12.0294373 13,17 C13,18.437276 13.3369098,19.7958624 13.9360629,21.001093 L7.50422165,21 C3.59788666,21.0031203 0.343706554,17.8566986 0.0252766837,13.7687093 C-0.293153187,9.68072001 2.43086189,6.02090536 6.28576571,5.35751157 C8.51289323,1.19426631 13.1354041,-0.866200581 17.5347767,0.3433071 Z" id="形状结合" fill="#3470FF"></path>
                    <g id="云朵"></g>
                    <circle id="椭圆形" fill="#3470FF" cx="22" cy="17" r="7"></circle>
                    <path d="M21.2211149,15.6831809 L21.2211149,20.6202095 C21.2211149,20.8309827 21.397248,21 21.6146867,21 L22.3862434,21 C22.4902652,21.0009948 22.5903846,20.9614313 22.6643078,20.8901002 C22.7382311,20.818769 22.7798205,20.7215927 22.7798153,20.6202095 L22.7798153,15.6831809 L23.5556584,15.6831809 C23.9870287,15.6831809 24.1292601,15.4112645 23.8712952,15.0755466 L22.4680752,13.2526437 C22.2077722,12.9146471 21.7912095,12.9169257 21.532855,13.2526437 L20.1300246,15.0755466 C19.8697216,15.4135431 20.0131221,15.6831809 20.4452718,15.6831809 L21.2211149,15.6831809 L21.2211149,15.6831809 Z" id="路径" fill="#FFFFFF" fill-rule="nonzero"></path>
                </g>
            </g>
        </g>
    </g>
</svg>